<svg xmlns="http://www.w3.org/2000/svg" xmlns:xlink="http://www.w3.org/1999/xlink" width="500" zoomAndPan="magnify" viewBox="0 0 375 374.999991" height="500" preserveAspectRatio="xMidYMid meet" version="1.0"><defs><g/><clipPath id="66e1cbbda9"><path d="M 284 78.65625 L 304 78.65625 L 304 102 L 284 102 Z M 284 78.65625 " clip-rule="nonzero"/></clipPath><clipPath id="0e16f6dbc6"><path d="M 36.058594 183 L 58 183 L 58 207 L 36.058594 207 Z M 36.058594 183 " clip-rule="nonzero"/></clipPath><clipPath id="83beade9b8"><path d="M 36.058594 155 L 52 155 L 52 180 L 36.058594 180 Z M 36.058594 155 " clip-rule="nonzero"/></clipPath><clipPath id="423ea4a14d"><path d="M 71 78.65625 L 91 78.65625 L 91 102 L 71 102 Z M 71 78.65625 " clip-rule="nonzero"/></clipPath><clipPath id="8eab88ea69"><path d="M 175.910156 260.019531 L 199.160156 260.019531 L 199.160156 281.769531 L 175.910156 281.769531 Z M 175.910156 260.019531 " clip-rule="nonzero"/></clipPath><clipPath id="623f058149"><path d="M 101.175781 86.882812 L 270.675781 86.882812 L 270.675781 180.632812 L 101.175781 180.632812 Z M 101.175781 86.882812 " clip-rule="nonzero"/></clipPath></defs><path fill="#f9971d" d="M 187.503906 290.160156 C 189.261719 293.542969 191.164062 296.886719 193.207031 300.195312 C 198.527344 309.308594 216.839844 315.648438 235.101562 311.394531 C 232.160156 308.808594 229.335938 306.140625 226.636719 303.394531 C 219.035156 295.957031 204.5625 292.210938 187.496094 290.160156 Z M 187.503906 290.160156 " fill-opacity="1" fill-rule="nonzero"/><path fill="#f9971d" d="M 210.992188 290.773438 C 212.726562 287.476562 214.289062 284.160156 215.683594 280.8125 C 219.75 271.691406 229.609375 264.261719 240.414062 259.511719 C 240.3125 263.007812 240.058594 266.527344 239.652344 270.066406 C 238.824219 279.660156 227.453125 289.730469 211 290.765625 Z M 210.992188 290.773438 " fill-opacity="1" fill-rule="nonzero"/><path fill="#f9971d" d="M 218.410156 290.050781 C 220.652344 292.777344 223.003906 295.445312 225.472656 298.058594 C 231.996094 305.300781 248.8125 307.355469 263.953125 300.015625 C 260.824219 298.1875 257.789062 296.269531 254.84375 294.257812 C 246.628906 288.871094 233.140625 288.261719 218.410156 290.050781 Z M 218.410156 290.050781 " fill-opacity="1" fill-rule="nonzero"/><path fill="#f9971d" d="M 238.515625 285.710938 C 239.289062 282.335938 239.921875 278.964844 240.414062 275.605469 C 241.984375 266.386719 249.195312 257.558594 258.195312 251.140625 C 258.765625 254.394531 259.21875 257.695312 259.546875 261.042969 C 260.660156 270.078125 252.484375 281.441406 238.511719 285.710938 Z M 238.515625 285.710938 " fill-opacity="1" fill-rule="nonzero"/><path fill="#f9971d" d="M 246.265625 283.011719 C 248.820312 285.039062 251.460938 287 254.1875 288.890625 C 261.464844 294.179688 276.519531 292.730469 288.589844 283.25 C 285.417969 282.148438 282.304688 280.953125 279.257812 279.664062 C 270.808594 276.265625 258.585938 278.300781 246.261719 283.011719 Z M 246.265625 283.011719 " fill-opacity="1" fill-rule="nonzero"/><path fill="#f9971d" d="M 262.925781 274.96875 C 262.894531 271.71875 262.75 268.503906 262.492188 265.320312 C 261.957031 256.558594 266.730469 247.007812 273.898438 239.398438 C 275.011719 242.300781 276.035156 245.261719 276.960938 248.285156 C 279.664062 256.414062 274.40625 268.3125 262.933594 274.96875 Z M 262.925781 274.96875 " fill-opacity="1" fill-rule="nonzero"/><path fill="#f9971d" d="M 270.601562 270.074219 C 273.3125 271.402344 276.085938 272.65625 278.917969 273.835938 C 286.535156 277.191406 299.597656 272.976562 308.71875 262.1875 C 305.625 261.757812 302.566406 261.238281 299.550781 260.628906 C 291.226562 259.089844 280.511719 263.273438 270.601562 270.074219 Z M 270.601562 270.074219 " fill-opacity="1" fill-rule="nonzero"/><path fill="#f9971d" d="M 283.820312 259.4375 C 283.128906 256.480469 282.351562 253.574219 281.484375 250.710938 C 279.246094 242.808594 281.800781 233.101562 287.109375 224.753906 C 288.648438 227.222656 290.113281 229.765625 291.507812 232.371094 C 295.441406 239.351562 292.808594 251.152344 283.820312 259.4375 Z M 283.820312 259.4375 " fill-opacity="1" fill-rule="nonzero"/><path fill="#f9971d" d="M 290.949219 252.257812 C 293.671875 252.921875 296.433594 253.507812 299.230469 254.015625 C 306.796875 255.546875 317.707031 249.261719 324.015625 237.882812 C 321.101562 238.054688 318.210938 238.140625 315.351562 238.144531 C 307.472656 238.277344 298.46875 244.105469 290.949219 252.257812 Z M 290.949219 252.257812 " fill-opacity="1" fill-rule="nonzero"/><path fill="#f9971d" d="M 300.785156 240.027344 C 299.578125 237.476562 298.3125 234.980469 296.984375 232.542969 C 293.429688 225.785156 294.003906 216.386719 297.488281 207.703125 C 299.324219 209.699219 301.109375 211.765625 302.847656 213.898438 C 307.675781 219.601562 307.355469 230.792969 300.792969 240.027344 Z M 300.785156 240.027344 " fill-opacity="1" fill-rule="nonzero"/><path fill="#f9971d" d="M 306.832031 230.589844 C 309.433594 230.644531 312.054688 230.625 314.691406 230.539062 C 321.851562 230.425781 330.503906 222.734375 334.171875 211.355469 C 331.554688 212.039062 328.941406 212.648438 326.328125 213.179688 C 319.171875 214.75 312.027344 221.734375 306.832031 230.589844 Z M 306.832031 230.589844 " fill-opacity="1" fill-rule="nonzero"/><path fill="#f9971d" d="M 313.40625 217.617188 C 311.828125 215.542969 310.207031 213.527344 308.539062 211.566406 C 304.042969 206.121094 302.886719 197.398438 304.601562 188.75 C 306.621094 190.253906 308.609375 191.824219 310.566406 193.460938 C 315.964844 197.800781 317.644531 208.015625 313.40625 217.617188 Z M 313.40625 217.617188 " fill-opacity="1" fill-rule="nonzero"/><path fill="#f9971d" d="M 317.792969 206.101562 C 320.152344 205.628906 322.519531 205.09375 324.890625 204.496094 C 331.351562 202.976562 337.679688 194.472656 338.933594 183.589844 C 336.6875 184.683594 334.425781 185.710938 332.160156 186.679688 C 325.964844 189.421875 320.773438 197.097656 317.792969 206.09375 Z M 317.792969 206.101562 " fill-opacity="1" fill-rule="nonzero"/><path fill="#f9971d" d="M 321.273438 193.132812 C 319.457031 191.566406 317.613281 190.054688 315.742188 188.597656 C 310.660156 184.53125 308.035156 176.765625 308.058594 168.46875 C 310.160156 169.492188 312.242188 170.574219 314.308594 171.714844 C 319.976562 174.71875 323.320312 183.671875 321.273438 193.132812 Z M 321.273438 193.132812 " fill-opacity="1" fill-rule="nonzero"/><path fill="#f9971d" d="M 323.355469 179.8125 C 325.382812 178.914062 327.402344 177.964844 329.410156 176.960938 C 334.90625 174.320312 338.945312 165.53125 338.03125 155.554688 C 336.21875 156.945312 334.378906 158.292969 332.519531 159.589844 C 327.476562 163.214844 324.265625 171.144531 323.347656 179.8125 Z M 323.355469 179.8125 " fill-opacity="1" fill-rule="nonzero"/><path fill="#f9971d" d="M 323.976562 167.464844 C 322.046875 166.40625 320.101562 165.390625 318.144531 164.425781 C 312.808594 161.71875 308.976562 155.113281 307.433594 147.4375 C 309.515625 148.007812 311.59375 148.625 313.667969 149.296875 C 319.332031 151.039062 324.003906 158.542969 323.976562 167.457031 Z M 323.976562 167.464844 " fill-opacity="1" fill-rule="nonzero"/><path fill="#f9971d" d="M 323.070312 152.75 C 324.683594 151.539062 326.285156 150.285156 327.863281 148.988281 C 332.203125 145.53125 334.023438 136.933594 331.230469 128.140625 C 329.890625 129.734375 328.527344 131.285156 327.132812 132.800781 C 323.367188 137.003906 322.113281 144.792969 323.070312 152.757812 Z M 323.070312 152.75 " fill-opacity="1" fill-rule="nonzero"/><path fill="#f9971d" d="M 321.105469 141.523438 C 319.171875 140.933594 317.238281 140.390625 315.304688 139.890625 C 310.007812 138.453125 305.242188 133.105469 302.285156 126.285156 C 304.265625 126.449219 306.25 126.65625 308.238281 126.90625 C 313.65625 127.507812 319.328125 133.484375 321.105469 141.523438 Z M 321.105469 141.523438 " fill-opacity="1" fill-rule="nonzero"/><path fill="#f9971d" d="M 316.4375 125.941406 C 317.589844 124.53125 318.722656 123.089844 319.828125 121.621094 C 322.882812 117.664062 322.628906 109.648438 318.273438 102.234375 C 317.433594 103.914062 316.558594 105.566406 315.65625 107.191406 C 313.234375 111.675781 313.839844 118.976562 316.4375 125.933594 Z M 316.4375 125.941406 " fill-opacity="1" fill-rule="nonzero"/><path fill="#f9971d" d="M 312.234375 116.199219 C 310.402344 116.035156 308.578125 115.902344 306.753906 115.808594 C 301.757812 115.492188 296.332031 111.449219 292.15625 105.644531 C 293.960938 105.464844 295.777344 105.316406 297.601562 105.207031 C 302.570312 104.839844 308.90625 109.277344 312.238281 116.199219 Z M 312.234375 116.199219 " fill-opacity="1" fill-rule="nonzero"/><g clip-path="url(#66e1cbbda9)"><path fill="#f9971d" d="M 303.886719 101.53125 C 301.824219 99.753906 299.703125 98.046875 297.523438 96.398438 C 291.632812 91.894531 286.433594 85.171875 284.027344 78.667969 C 286.617188 80.070312 289.152344 81.546875 291.632812 83.09375 C 298.488281 87.308594 303.519531 95.128906 303.871094 101.53125 Z M 303.886719 101.53125 " fill-opacity="1" fill-rule="nonzero"/></g><path fill="#f9971d" d="M 187.507812 290.160156 C 185.75 293.542969 183.847656 296.886719 181.804688 300.195312 C 176.480469 309.308594 158.167969 315.648438 139.910156 311.394531 C 142.851562 308.808594 145.671875 306.140625 148.375 303.394531 C 155.976562 295.957031 170.445312 292.210938 187.511719 290.160156 Z M 187.507812 290.160156 " fill-opacity="1" fill-rule="nonzero"/><path fill="#f9971d" d="M 164.015625 290.773438 C 162.28125 287.488281 160.722656 284.167969 159.332031 280.820312 C 155.265625 271.699219 145.410156 264.269531 134.605469 259.519531 C 134.703125 263.015625 134.957031 266.535156 135.363281 270.074219 C 136.191406 279.667969 147.5625 289.738281 164.019531 290.773438 Z M 164.015625 290.773438 " fill-opacity="1" fill-rule="nonzero"/><path fill="#f9971d" d="M 156.597656 290.050781 C 154.359375 292.777344 152.003906 295.445312 149.539062 298.058594 C 143.015625 305.300781 126.199219 307.355469 111.058594 300.015625 C 114.183594 298.1875 117.21875 296.269531 120.164062 294.257812 C 128.382812 288.871094 141.871094 288.261719 156.597656 290.050781 Z M 156.597656 290.050781 " fill-opacity="1" fill-rule="nonzero"/><path fill="#f9971d" d="M 136.496094 285.710938 C 135.71875 282.335938 135.085938 278.964844 134.59375 275.605469 C 133.027344 266.386719 125.816406 257.558594 116.816406 251.140625 C 116.242188 254.394531 115.792969 257.695312 115.464844 261.042969 C 114.347656 270.078125 122.527344 281.441406 136.5 285.710938 Z M 136.496094 285.710938 " fill-opacity="1" fill-rule="nonzero"/><path fill="#f9971d" d="M 128.742188 283.011719 C 126.1875 285.039062 123.546875 287 120.820312 288.890625 C 113.542969 294.179688 98.492188 292.730469 86.417969 283.25 C 89.59375 282.148438 92.703125 280.953125 95.75 279.664062 C 104.199219 276.265625 116.421875 278.300781 128.75 283.011719 Z M 128.742188 283.011719 " fill-opacity="1" fill-rule="nonzero"/><path fill="#f9971d" d="M 112.082031 274.96875 C 112.113281 271.71875 112.257812 268.503906 112.515625 265.320312 C 113.050781 256.558594 108.277344 247.007812 101.113281 239.398438 C 99.996094 242.300781 98.972656 245.261719 98.046875 248.285156 C 95.347656 256.414062 100.605469 268.3125 112.074219 274.96875 Z M 112.082031 274.96875 " fill-opacity="1" fill-rule="nonzero"/><path fill="#f9971d" d="M 104.410156 270.074219 C 101.699219 271.402344 98.925781 272.65625 96.09375 273.835938 C 88.476562 277.191406 75.417969 272.976562 66.296875 262.1875 C 69.390625 261.757812 72.449219 261.238281 75.464844 260.628906 C 83.792969 259.089844 94.503906 263.273438 104.414062 270.074219 Z M 104.410156 270.074219 " fill-opacity="1" fill-rule="nonzero"/><path fill="#f9971d" d="M 91.195312 259.4375 C 91.886719 256.480469 92.664062 253.574219 93.53125 250.710938 C 95.769531 242.808594 93.214844 233.101562 87.90625 224.753906 C 86.367188 227.222656 84.902344 229.765625 83.507812 232.371094 C 79.574219 239.351562 82.207031 251.152344 91.195312 259.4375 Z M 91.195312 259.4375 " fill-opacity="1" fill-rule="nonzero"/><path fill="#f9971d" d="M 84.066406 252.257812 C 81.339844 252.921875 78.578125 253.507812 75.78125 254.015625 C 68.21875 255.546875 57.304688 249.261719 51 237.882812 C 53.914062 238.054688 56.800781 238.140625 59.660156 238.144531 C 67.542969 238.277344 76.542969 244.105469 84.066406 252.257812 Z M 84.066406 252.257812 " fill-opacity="1" fill-rule="nonzero"/><path fill="#f9971d" d="M 74.226562 240.027344 C 75.429688 237.476562 76.699219 234.980469 78.035156 232.542969 C 81.589844 225.785156 81.015625 216.386719 77.53125 207.703125 C 75.695312 209.699219 73.910156 211.765625 72.171875 213.898438 C 67.34375 219.601562 67.664062 230.792969 74.226562 240.027344 Z M 74.226562 240.027344 " fill-opacity="1" fill-rule="nonzero"/><path fill="#f9971d" d="M 68.179688 230.589844 C 65.578125 230.644531 62.957031 230.625 60.320312 230.539062 C 53.15625 230.425781 44.507812 222.730469 40.835938 211.355469 C 43.453125 212.039062 46.070312 212.648438 48.683594 213.179688 C 55.835938 214.75 62.984375 221.734375 68.179688 230.589844 Z M 68.179688 230.589844 " fill-opacity="1" fill-rule="nonzero"/><path fill="#f9971d" d="M 61.601562 217.617188 C 63.179688 215.542969 64.804688 213.527344 66.472656 211.566406 C 70.96875 206.121094 72.125 197.398438 70.410156 188.75 C 68.390625 190.253906 66.398438 191.824219 64.441406 193.460938 C 59.046875 197.800781 57.367188 208.015625 61.601562 217.617188 Z M 61.601562 217.617188 " fill-opacity="1" fill-rule="nonzero"/><g clip-path="url(#0e16f6dbc6)"><path fill="#f9971d" d="M 57.21875 206.101562 C 54.855469 205.628906 52.488281 205.09375 50.121094 204.496094 C 43.65625 202.976562 37.328125 194.472656 36.074219 183.589844 C 38.324219 184.683594 40.582031 185.710938 42.851562 186.679688 C 49.042969 189.421875 54.238281 197.097656 57.21875 206.09375 Z M 57.21875 206.101562 " fill-opacity="1" fill-rule="nonzero"/></g><path fill="#f9971d" d="M 53.734375 193.132812 C 55.550781 191.566406 57.394531 190.054688 59.261719 188.597656 C 64.347656 184.53125 66.96875 176.765625 66.945312 168.46875 C 64.847656 169.492188 62.765625 170.574219 60.699219 171.714844 C 55.027344 174.71875 51.6875 183.671875 53.730469 193.132812 Z M 53.734375 193.132812 " fill-opacity="1" fill-rule="nonzero"/><g clip-path="url(#83beade9b8)"><path fill="#f9971d" d="M 51.660156 179.8125 C 49.632812 178.914062 47.617188 177.964844 45.605469 176.960938 C 40.101562 174.320312 36.066406 165.53125 36.980469 155.554688 C 38.792969 156.945312 40.628906 158.292969 42.492188 159.589844 C 47.527344 163.214844 50.738281 171.144531 51.660156 179.8125 Z M 51.660156 179.8125 " fill-opacity="1" fill-rule="nonzero"/></g><path fill="#f9971d" d="M 51.03125 167.464844 C 52.964844 166.40625 54.90625 165.390625 56.863281 164.425781 C 62.203125 161.71875 66.035156 155.113281 67.574219 147.4375 C 65.496094 148.007812 63.417969 148.625 61.34375 149.296875 C 55.679688 151.039062 51.003906 158.542969 51.03125 167.457031 Z M 51.03125 167.464844 " fill-opacity="1" fill-rule="nonzero"/><path fill="#f9971d" d="M 51.949219 152.75 C 50.332031 151.539062 48.734375 150.285156 47.152344 148.984375 C 42.8125 145.527344 40.996094 136.929688 43.789062 128.136719 C 45.125 129.730469 46.492188 131.28125 47.882812 132.796875 C 51.660156 137.011719 52.90625 144.792969 51.949219 152.75 Z M 51.949219 152.75 " fill-opacity="1" fill-rule="nonzero"/><path fill="#f9971d" d="M 53.90625 141.523438 C 55.835938 140.933594 57.769531 140.390625 59.707031 139.890625 C 65.003906 138.453125 69.769531 133.105469 72.722656 126.285156 C 70.742188 126.449219 68.757812 126.65625 66.769531 126.90625 C 61.351562 127.507812 55.683594 133.484375 53.90625 141.523438 Z M 53.90625 141.523438 " fill-opacity="1" fill-rule="nonzero"/><path fill="#f9971d" d="M 58.574219 125.941406 C 57.417969 124.53125 56.289062 123.089844 55.183594 121.621094 C 52.125 117.664062 52.378906 109.648438 56.734375 102.234375 C 57.578125 103.914062 58.449219 105.566406 59.351562 107.191406 C 61.773438 111.675781 61.167969 118.976562 58.574219 125.933594 Z M 58.574219 125.941406 " fill-opacity="1" fill-rule="nonzero"/><path fill="#f9971d" d="M 62.769531 116.199219 C 64.601562 116.035156 66.425781 115.902344 68.25 115.808594 C 73.246094 115.492188 78.671875 111.449219 82.847656 105.644531 C 81.042969 105.464844 79.226562 105.316406 77.398438 105.207031 C 72.433594 104.839844 66.097656 109.277344 62.765625 116.199219 Z M 62.769531 116.199219 " fill-opacity="1" fill-rule="nonzero"/><g clip-path="url(#423ea4a14d)"><path fill="#f9971d" d="M 71.121094 101.53125 C 73.1875 99.753906 75.308594 98.046875 77.488281 96.398438 C 83.378906 91.894531 88.574219 85.171875 90.980469 78.667969 C 88.386719 80.070312 85.855469 81.546875 83.378906 83.09375 C 76.519531 87.308594 71.492188 95.128906 71.136719 101.53125 Z M 71.121094 101.53125 " fill-opacity="1" fill-rule="nonzero"/></g><g clip-path="url(#8eab88ea69)"><path fill="#f9971d" d="M 187.5 260.019531 L 190.863281 267.574219 L 199.089844 268.4375 L 192.945312 273.972656 L 194.660156 282.0625 L 187.5 277.929688 L 180.339844 282.0625 L 182.054688 273.972656 L 175.910156 268.4375 L 184.136719 267.574219 L 187.5 260.019531 " fill-opacity="1" fill-rule="nonzero"/></g><g clip-path="url(#623f058149)"><path fill="#0d0149" d="M 269.800781 108.121094 C 267.386719 107.421875 264.988281 106.679688 262.578125 105.972656 C 236.578125 98.738281 210.28125 91.113281 183.683594 86.882812 C 155.660156 94.898438 128.507812 106.058594 103.472656 121.050781 C 102.25 121.777344 101.578125 122.589844 101.429688 123.976562 C 101.320312 124.988281 101.242188 124.984375 102.320312 124.984375 C 104.554688 124.988281 106.785156 124.984375 109.761719 124.984375 C 123.515625 125.492188 138.121094 127.375 151.644531 130.582031 C 152.539062 130.789062 152.542969 130.835938 152.347656 131.703125 C 152.050781 133.027344 151.738281 134.351562 151.421875 135.671875 C 144.996094 164.914062 142.878906 146.070312 172.675781 174.226562 C 174.742188 176.132812 176.746094 178.105469 178.75 180.074219 C 179.128906 180.449219 179.304688 180.441406 179.714844 180.089844 C 194.472656 167.519531 211.109375 156.621094 229.699219 150.730469 C 230.730469 150.417969 230.71875 150.40625 230.53125 149.269531 C 229.289062 141.402344 228.132812 133.519531 226.914062 125.644531 C 226.746094 124.539062 226.726562 124.539062 227.757812 124.199219 C 238.097656 120.710938 248.542969 117.5625 258.96875 114.351562 C 260.070312 114.011719 260.078125 114.023438 260.082031 115.226562 C 260.082031 117.707031 260.0625 120.1875 260.089844 122.667969 C 260.355469 124.171875 257.5625 123.722656 256.148438 126.257812 C 254.386719 128.792969 254.683594 131.945312 257.023438 134.25 C 257.742188 134.957031 257.894531 135.5625 257.488281 136.40625 C 252.632812 151.667969 244.945312 165.457031 235.773438 178.480469 C 239.0625 177.375 242.265625 175.96875 245.707031 175.304688 C 246.3125 175.171875 246.574219 174.765625 246.863281 174.296875 C 252.484375 165.457031 256.269531 155.707031 258.867188 145.597656 C 258.191406 155.59375 254.316406 165.109375 250.390625 174.226562 C 252.269531 174.269531 254.132812 173.664062 256.015625 173.589844 C 256.992188 173.515625 257.4375 173.128906 257.75 172.222656 C 260.933594 163.441406 262.644531 154.210938 263.03125 144.886719 C 265.132812 153.773438 263.511719 163.027344 261.597656 171.808594 C 261.492188 172.300781 261.472656 172.570312 262.019531 172.722656 C 264.535156 173.351562 266.433594 174.988281 268.460938 176.476562 C 270.734375 163.011719 270.566406 148.585938 264.828125 135.949219 C 264.589844 135.425781 264.625 135.148438 265.113281 134.730469 C 269.25 131.164062 267.605469 125.460938 263.625 123.96875 C 263.140625 123.785156 262.921875 123.53125 262.925781 122.976562 C 262.949219 119.917969 262.945312 116.859375 262.925781 113.800781 C 262.550781 112.640625 267.988281 111.953125 269.035156 111.414062 C 270.519531 111 270.519531 111.015625 270.632812 109.441406 C 270.828125 108.691406 270.519531 108.308594 269.800781 108.121094 Z M 189.183594 108.566406 C 188.953125 114.3125 180.871094 113.742188 181.035156 108.523438 C 181.136719 102.996094 189.105469 103.183594 189.183594 108.566406 Z M 227.023438 146.589844 C 227.292969 146.617188 227.453125 146.628906 227.617188 146.644531 C 212.363281 151.742188 197.601562 158.558594 185.269531 169.0625 C 196.226562 157.425781 211.210938 149.285156 227.023438 146.589844 Z M 185.558594 137 C 184.976562 137.367188 184.5 137.425781 183.847656 137.105469 C 172.597656 131.582031 160.734375 127.832031 148.488281 125.296875 C 139.703125 123.5 130.785156 122.34375 121.878906 121.363281 C 122.5 121.171875 123.144531 121.261719 123.78125 121.246094 C 123.785156 121.234375 123.785156 121.222656 123.789062 121.214844 C 141.765625 122.632812 159.859375 125.15625 176.855469 131.421875 C 178.765625 131.8125 183.929688 134.847656 185.199219 134.226562 C 208.332031 121.714844 234.152344 114 259.910156 109.484375 C 234.253906 115.886719 208.53125 123.621094 185.558594 137 Z M 185.558594 137 " fill-opacity="1" fill-rule="nonzero"/></g><g fill="#0d0149" fill-opacity="1"><g transform="translate(133.334306, 231.969741)"><g><path d="M 5.328125 -5.34375 L 1.890625 -5.34375 L 1.890625 -3.640625 L 4.96875 -3.640625 L 4.96875 -2.6875 L 1.890625 -2.6875 L 1.890625 -0.953125 L 5.4375 -0.953125 L 5.4375 0 L 0.828125 0 L 0.828125 -6.296875 L 5.328125 -6.296875 Z M 5.328125 -5.34375 "/></g></g></g><g fill="#0d0149" fill-opacity="1"><g transform="translate(145.538347, 231.969741)"><g><path d="M 0.828125 -6.296875 L 3.40625 -6.296875 C 4.351562 -6.296875 5.132812 -6 5.75 -5.40625 C 6.363281 -4.8125 6.671875 -4.054688 6.671875 -3.140625 C 6.671875 -2.234375 6.359375 -1.484375 5.734375 -0.890625 C 5.117188 -0.296875 4.335938 0 3.390625 0 L 0.828125 0 Z M 1.890625 -5.34375 L 1.890625 -0.953125 L 3.4375 -0.953125 C 4.050781 -0.953125 4.5625 -1.15625 4.96875 -1.5625 C 5.382812 -1.976562 5.59375 -2.503906 5.59375 -3.140625 C 5.59375 -3.773438 5.378906 -4.300781 4.953125 -4.71875 C 4.535156 -5.132812 4.015625 -5.34375 3.390625 -5.34375 Z M 1.890625 -5.34375 "/></g></g></g><g fill="#0d0149" fill-opacity="1"><g transform="translate(158.813394, 231.969741)"><g><path d="M 6.1875 -6.296875 L 6.1875 -2.609375 C 6.1875 -1.785156 5.941406 -1.132812 5.453125 -0.65625 C 4.960938 -0.1875 4.289062 0.046875 3.4375 0.046875 C 2.59375 0.046875 1.925781 -0.1875 1.4375 -0.65625 C 0.945312 -1.132812 0.703125 -1.785156 0.703125 -2.609375 L 0.703125 -6.296875 L 1.765625 -6.296875 L 1.765625 -2.609375 C 1.765625 -2.078125 1.914062 -1.660156 2.21875 -1.359375 C 2.519531 -1.054688 2.929688 -0.90625 3.453125 -0.90625 C 3.972656 -0.90625 4.378906 -1.054688 4.671875 -1.359375 C 4.972656 -1.660156 5.125 -2.078125 5.125 -2.609375 L 5.125 -6.296875 Z M 6.1875 -6.296875 "/></g></g></g><g fill="#0d0149" fill-opacity="1"><g transform="translate(171.989436, 231.969741)"><g><path d="M 3.625 -6.328125 C 4.0625 -6.328125 4.488281 -6.238281 4.90625 -6.0625 C 5.332031 -5.894531 5.703125 -5.660156 6.015625 -5.359375 L 5.390625 -4.578125 C 5.160156 -4.828125 4.890625 -5.019531 4.578125 -5.15625 C 4.265625 -5.300781 3.953125 -5.375 3.640625 -5.375 C 3.003906 -5.375 2.46875 -5.160156 2.03125 -4.734375 C 1.601562 -4.304688 1.390625 -3.785156 1.390625 -3.171875 C 1.390625 -2.546875 1.601562 -2.015625 2.03125 -1.578125 C 2.46875 -1.148438 3.003906 -0.9375 3.640625 -0.9375 C 4.285156 -0.9375 4.867188 -1.1875 5.390625 -1.6875 L 6.015625 -0.984375 C 5.691406 -0.671875 5.3125 -0.421875 4.875 -0.234375 C 4.445312 -0.046875 4.015625 0.046875 3.578125 0.046875 C 2.660156 0.046875 1.882812 -0.257812 1.25 -0.875 C 0.625 -1.488281 0.3125 -2.25 0.3125 -3.15625 C 0.3125 -4.050781 0.628906 -4.800781 1.265625 -5.40625 C 1.898438 -6.019531 2.6875 -6.328125 3.625 -6.328125 Z M 3.625 -6.328125 "/></g></g></g><g fill="#0d0149" fill-opacity="1"><g transform="translate(184.562481, 231.969741)"><g><path d="M 4.890625 -1.421875 L 1.71875 -1.421875 L 1.109375 0 L 0.015625 0 L 2.796875 -6.296875 L 3.875 -6.296875 L 6.640625 0 L 5.5 0 Z M 4.484375 -2.359375 L 3.296875 -5.171875 L 2.109375 -2.359375 Z M 4.484375 -2.359375 "/></g></g></g><g fill="#0d0149" fill-opacity="1"><g transform="translate(197.504529, 231.969741)"><g><path d="M 5.125 -5.34375 L 3.125 -5.34375 L 3.125 0 L 2.0625 0 L 2.0625 -5.34375 L 0.078125 -5.34375 L 0.078125 -6.296875 L 5.125 -6.296875 Z M 5.125 -5.34375 "/></g></g></g><g fill="#0d0149" fill-opacity="1"><g transform="translate(209.015563, 231.969741)"><g><path d="M 1.890625 0 L 0.828125 0 L 0.828125 -6.296875 L 1.890625 -6.296875 Z M 1.890625 0 "/></g></g></g><g fill="#0d0149" fill-opacity="1"><g transform="translate(218.033581, 231.969741)"><g><path d="M 1.265625 -5.40625 C 1.910156 -6.019531 2.703125 -6.328125 3.640625 -6.328125 C 4.585938 -6.328125 5.378906 -6.019531 6.015625 -5.40625 C 6.660156 -4.800781 6.984375 -4.046875 6.984375 -3.140625 C 6.984375 -2.242188 6.660156 -1.488281 6.015625 -0.875 C 5.378906 -0.257812 4.585938 0.046875 3.640625 0.046875 C 2.703125 0.046875 1.910156 -0.257812 1.265625 -0.875 C 0.628906 -1.488281 0.3125 -2.242188 0.3125 -3.140625 C 0.3125 -4.046875 0.628906 -4.800781 1.265625 -5.40625 Z M 3.65625 -5.375 C 3.03125 -5.375 2.492188 -5.160156 2.046875 -4.734375 C 1.609375 -4.304688 1.390625 -3.78125 1.390625 -3.15625 C 1.390625 -2.53125 1.613281 -2 2.0625 -1.5625 C 2.507812 -1.125 3.039062 -0.90625 3.65625 -0.90625 C 4.269531 -0.90625 4.796875 -1.125 5.234375 -1.5625 C 5.671875 -2 5.890625 -2.53125 5.890625 -3.15625 C 5.890625 -3.78125 5.671875 -4.304688 5.234375 -4.734375 C 4.796875 -5.160156 4.269531 -5.375 3.65625 -5.375 Z M 3.65625 -5.375 "/></g></g></g><g fill="#0d0149" fill-opacity="1"><g transform="translate(231.623622, 231.969741)"><g><path d="M 6.296875 0 L 5.25 0 L 1.890625 -4.515625 L 1.890625 0 L 0.828125 0 L 0.828125 -6.296875 L 1.875 -6.296875 L 5.25 -1.765625 L 5.25 -6.296875 L 6.296875 -6.296875 Z M 6.296875 0 "/></g></g></g><g fill="#0d0149" fill-opacity="1"><g transform="translate(115.756183, 243.96974)"><g><path d="M 3.625 -6.328125 C 4.0625 -6.328125 4.488281 -6.238281 4.90625 -6.0625 C 5.332031 -5.894531 5.703125 -5.660156 6.015625 -5.359375 L 5.390625 -4.578125 C 5.160156 -4.828125 4.890625 -5.019531 4.578125 -5.15625 C 4.265625 -5.300781 3.953125 -5.375 3.640625 -5.375 C 3.003906 -5.375 2.46875 -5.160156 2.03125 -4.734375 C 1.601562 -4.304688 1.390625 -3.785156 1.390625 -3.171875 C 1.390625 -2.546875 1.601562 -2.015625 2.03125 -1.578125 C 2.46875 -1.148438 3.003906 -0.9375 3.640625 -0.9375 C 4.285156 -0.9375 4.867188 -1.1875 5.390625 -1.6875 L 6.015625 -0.984375 C 5.691406 -0.671875 5.3125 -0.421875 4.875 -0.234375 C 4.445312 -0.046875 4.015625 0.046875 3.578125 0.046875 C 2.660156 0.046875 1.882812 -0.257812 1.25 -0.875 C 0.625 -1.488281 0.3125 -2.25 0.3125 -3.15625 C 0.3125 -4.050781 0.628906 -4.800781 1.265625 -5.40625 C 1.898438 -6.019531 2.6875 -6.328125 3.625 -6.328125 Z M 3.625 -6.328125 "/></g></g></g><g fill="#0d0149" fill-opacity="1"><g transform="translate(128.329226, 243.96974)"><g><path d="M 1.265625 -5.40625 C 1.910156 -6.019531 2.703125 -6.328125 3.640625 -6.328125 C 4.585938 -6.328125 5.378906 -6.019531 6.015625 -5.40625 C 6.660156 -4.800781 6.984375 -4.046875 6.984375 -3.140625 C 6.984375 -2.242188 6.660156 -1.488281 6.015625 -0.875 C 5.378906 -0.257812 4.585938 0.046875 3.640625 0.046875 C 2.703125 0.046875 1.910156 -0.257812 1.265625 -0.875 C 0.628906 -1.488281 0.3125 -2.242188 0.3125 -3.140625 C 0.3125 -4.046875 0.628906 -4.800781 1.265625 -5.40625 Z M 3.65625 -5.375 C 3.03125 -5.375 2.492188 -5.160156 2.046875 -4.734375 C 1.609375 -4.304688 1.390625 -3.78125 1.390625 -3.15625 C 1.390625 -2.53125 1.613281 -2 2.0625 -1.5625 C 2.507812 -1.125 3.039062 -0.90625 3.65625 -0.90625 C 4.269531 -0.90625 4.796875 -1.125 5.234375 -1.5625 C 5.671875 -2 5.890625 -2.53125 5.890625 -3.15625 C 5.890625 -3.78125 5.671875 -4.304688 5.234375 -4.734375 C 4.796875 -5.160156 4.269531 -5.375 3.65625 -5.375 Z M 3.65625 -5.375 "/></g></g></g><g fill="#0d0149" fill-opacity="1"><g transform="translate(141.919272, 243.96974)"><g><path d="M 6.296875 0 L 5.25 0 L 1.890625 -4.515625 L 1.890625 0 L 0.828125 0 L 0.828125 -6.296875 L 1.875 -6.296875 L 5.25 -1.765625 L 5.25 -6.296875 L 6.296875 -6.296875 Z M 6.296875 0 "/></g></g></g><g fill="#0d0149" fill-opacity="1"><g transform="translate(155.347325, 243.96974)"><g><path d="M 2.890625 -6.34375 C 3.710938 -6.34375 4.453125 -6.128906 5.109375 -5.703125 L 4.65625 -4.765625 C 4.019531 -5.148438 3.40625 -5.34375 2.8125 -5.34375 C 2.5 -5.34375 2.25 -5.285156 2.0625 -5.171875 C 1.882812 -5.054688 1.796875 -4.894531 1.796875 -4.6875 C 1.796875 -4.476562 1.878906 -4.300781 2.046875 -4.15625 C 2.210938 -4.007812 2.421875 -3.898438 2.671875 -3.828125 C 2.921875 -3.753906 3.191406 -3.664062 3.484375 -3.5625 C 3.785156 -3.457031 4.0625 -3.347656 4.3125 -3.234375 C 4.5625 -3.117188 4.769531 -2.9375 4.9375 -2.6875 C 5.101562 -2.4375 5.1875 -2.132812 5.1875 -1.78125 C 5.1875 -1.226562 4.960938 -0.785156 4.515625 -0.453125 C 4.078125 -0.128906 3.507812 0.03125 2.8125 0.03125 C 2.332031 0.03125 1.863281 -0.0546875 1.40625 -0.234375 C 0.957031 -0.410156 0.566406 -0.65625 0.234375 -0.96875 L 0.6875 -1.875 C 1.007812 -1.582031 1.359375 -1.359375 1.734375 -1.203125 C 2.117188 -1.046875 2.484375 -0.96875 2.828125 -0.96875 C 3.203125 -0.96875 3.488281 -1.035156 3.6875 -1.171875 C 3.894531 -1.304688 4 -1.492188 4 -1.734375 C 4 -1.941406 3.914062 -2.117188 3.75 -2.265625 C 3.582031 -2.421875 3.375 -2.53125 3.125 -2.59375 C 2.875 -2.664062 2.597656 -2.75 2.296875 -2.84375 C 2.003906 -2.945312 1.734375 -3.050781 1.484375 -3.15625 C 1.234375 -3.269531 1.023438 -3.445312 0.859375 -3.6875 C 0.691406 -3.9375 0.609375 -4.238281 0.609375 -4.59375 C 0.609375 -5.125 0.816406 -5.546875 1.234375 -5.859375 C 1.648438 -6.179688 2.203125 -6.34375 2.890625 -6.34375 Z M 2.890625 -6.34375 "/></g></g></g><g fill="#0d0149" fill-opacity="1"><g transform="translate(167.245363, 243.96974)"><g><path d="M 6.1875 -6.296875 L 6.1875 -2.609375 C 6.1875 -1.785156 5.941406 -1.132812 5.453125 -0.65625 C 4.960938 -0.1875 4.289062 0.046875 3.4375 0.046875 C 2.59375 0.046875 1.925781 -0.1875 1.4375 -0.65625 C 0.945312 -1.132812 0.703125 -1.785156 0.703125 -2.609375 L 0.703125 -6.296875 L 1.765625 -6.296875 L 1.765625 -2.609375 C 1.765625 -2.078125 1.914062 -1.660156 2.21875 -1.359375 C 2.519531 -1.054688 2.929688 -0.90625 3.453125 -0.90625 C 3.972656 -0.90625 4.378906 -1.054688 4.671875 -1.359375 C 4.972656 -1.660156 5.125 -2.078125 5.125 -2.609375 L 5.125 -6.296875 Z M 6.1875 -6.296875 "/></g></g></g><g fill="#0d0149" fill-opacity="1"><g transform="translate(180.421409, 243.96974)"><g><path d="M 1.890625 -0.96875 L 4.609375 -0.96875 L 4.609375 0 L 0.828125 0 L 0.828125 -6.296875 L 1.890625 -6.296875 Z M 1.890625 -0.96875 "/></g></g></g><g fill="#0d0149" fill-opacity="1"><g transform="translate(191.527447, 243.96974)"><g><path d="M 5.125 -5.34375 L 3.125 -5.34375 L 3.125 0 L 2.0625 0 L 2.0625 -5.34375 L 0.078125 -5.34375 L 0.078125 -6.296875 L 5.125 -6.296875 Z M 5.125 -5.34375 "/></g></g></g><g fill="#0d0149" fill-opacity="1"><g transform="translate(203.03848, 243.96974)"><g><path d="M 4.890625 -1.421875 L 1.71875 -1.421875 L 1.109375 0 L 0.015625 0 L 2.796875 -6.296875 L 3.875 -6.296875 L 6.640625 0 L 5.5 0 Z M 4.484375 -2.359375 L 3.296875 -5.171875 L 2.109375 -2.359375 Z M 4.484375 -2.359375 "/></g></g></g><g fill="#0d0149" fill-opacity="1"><g transform="translate(215.980523, 243.96974)"><g><path d="M 6.296875 0 L 5.25 0 L 1.890625 -4.515625 L 1.890625 0 L 0.828125 0 L 0.828125 -6.296875 L 1.875 -6.296875 L 5.25 -1.765625 L 5.25 -6.296875 L 6.296875 -6.296875 Z M 6.296875 0 "/></g></g></g><g fill="#0d0149" fill-opacity="1"><g transform="translate(229.408573, 243.96974)"><g><path d="M 3.625 -6.328125 C 4.0625 -6.328125 4.488281 -6.238281 4.90625 -6.0625 C 5.332031 -5.894531 5.703125 -5.660156 6.015625 -5.359375 L 5.390625 -4.578125 C 5.160156 -4.828125 4.890625 -5.019531 4.578125 -5.15625 C 4.265625 -5.300781 3.953125 -5.375 3.640625 -5.375 C 3.003906 -5.375 2.46875 -5.160156 2.03125 -4.734375 C 1.601562 -4.304688 1.390625 -3.785156 1.390625 -3.171875 C 1.390625 -2.546875 1.601562 -2.015625 2.03125 -1.578125 C 2.46875 -1.148438 3.003906 -0.9375 3.640625 -0.9375 C 4.285156 -0.9375 4.867188 -1.1875 5.390625 -1.6875 L 6.015625 -0.984375 C 5.691406 -0.671875 5.3125 -0.421875 4.875 -0.234375 C 4.445312 -0.046875 4.015625 0.046875 3.578125 0.046875 C 2.660156 0.046875 1.882812 -0.257812 1.25 -0.875 C 0.625 -1.488281 0.3125 -2.25 0.3125 -3.15625 C 0.3125 -4.050781 0.628906 -4.800781 1.265625 -5.40625 C 1.898438 -6.019531 2.6875 -6.328125 3.625 -6.328125 Z M 3.625 -6.328125 "/></g></g></g><g fill="#0d0149" fill-opacity="1"><g transform="translate(241.981612, 243.96974)"><g><path d="M 3.40625 -2.09375 L 3.40625 0 L 2.359375 0 L 2.359375 -2.0625 L 0.015625 -6.296875 L 1.078125 -6.296875 L 2.875 -3.234375 L 4.640625 -6.296875 L 5.71875 -6.296875 Z M 3.40625 -2.09375 "/></g></g></g><g fill="#0d0149" fill-opacity="1"><g transform="translate(254.025705, 243.96974)"><g/></g></g><g fill="#0d0149" fill-opacity="1"><g transform="translate(93.493269, 215.912885)"><g><path d="M 0.484375 -2.28125 L 2.203125 -2.28125 L 9.703125 -24.09375 L 14.46875 -24.09375 L 21.953125 -2.28125 L 23.671875 -2.28125 L 23.671875 0 L 13.5625 0 L 13.5625 -2.28125 L 16.328125 -2.28125 L 14.671875 -7.359375 L 6.796875 -7.359375 L 5.140625 -2.28125 L 7.90625 -2.28125 L 7.90625 0 L 0.484375 0 Z M 7.484375 -9.734375 L 14.046875 -9.734375 L 10.796875 -19.875 L 10.671875 -19.875 Z M 7.484375 -9.734375 "/></g></g></g><g fill="#0d0149" fill-opacity="1"><g transform="translate(116.270579, 215.912885)"><g><path d="M 1.421875 -2.28125 L 3.828125 -2.28125 L 3.828125 -21.8125 L 1.421875 -21.8125 L 1.421875 -24.09375 L 12.015625 -24.09375 L 12.015625 -21.8125 L 9.421875 -21.8125 L 9.421875 -2.484375 L 15.984375 -2.484375 L 15.984375 -7.109375 L 19.984375 -7.109375 L 19.984375 0 L 1.421875 0 Z M 1.421875 -2.28125 "/></g></g></g><g fill="#0d0149" fill-opacity="1"><g transform="translate(136.321449, 215.912885)"><g><path d="M 1.421875 -2.28125 L 3.828125 -2.28125 L 3.828125 -21.8125 L 1.421875 -21.8125 L 1.421875 -24.09375 L 14.703125 -24.09375 C 17.234375 -24.09375 19.125 -23.535156 20.375 -22.421875 C 21.632812 -21.304688 22.265625 -19.664062 22.265625 -17.5 C 22.265625 -15.3125 21.582031 -13.601562 20.21875 -12.375 C 18.863281 -11.144531 16.921875 -10.53125 14.390625 -10.53125 L 9.421875 -10.53125 L 9.421875 -2.28125 L 12.703125 -2.28125 L 12.703125 0 L 1.421875 0 Z M 9.421875 -13.015625 L 12.84375 -13.015625 C 14.007812 -13.015625 14.921875 -13.296875 15.578125 -13.859375 C 16.234375 -14.421875 16.5625 -15.273438 16.5625 -16.421875 L 16.5625 -18.1875 C 16.5625 -19.34375 16.234375 -20.203125 15.578125 -20.765625 C 14.921875 -21.328125 14.007812 -21.609375 12.84375 -21.609375 L 9.421875 -21.609375 Z M 9.421875 -13.015625 "/></g></g></g><g fill="#0d0149" fill-opacity="1"><g transform="translate(158.477538, 215.912885)"><g><path d="M 1.421875 -2.28125 L 3.828125 -2.28125 L 3.828125 -21.8125 L 1.421875 -21.8125 L 1.421875 -24.09375 L 11.84375 -24.09375 L 11.84375 -21.8125 L 9.421875 -21.8125 L 9.421875 -13.640625 L 18.609375 -13.640625 L 18.609375 -21.8125 L 16.1875 -21.8125 L 16.1875 -24.09375 L 26.609375 -24.09375 L 26.609375 -21.8125 L 24.203125 -21.8125 L 24.203125 -2.28125 L 26.609375 -2.28125 L 26.609375 0 L 16.1875 0 L 16.1875 -2.28125 L 18.609375 -2.28125 L 18.609375 -11.15625 L 9.421875 -11.15625 L 9.421875 -2.28125 L 11.84375 -2.28125 L 11.84375 0 L 1.421875 0 Z M 1.421875 -2.28125 "/></g></g></g><g fill="#0d0149" fill-opacity="1"><g transform="translate(185.15467, 215.912885)"><g><path d="M 0.484375 -2.28125 L 2.203125 -2.28125 L 9.703125 -24.09375 L 14.46875 -24.09375 L 21.953125 -2.28125 L 23.671875 -2.28125 L 23.671875 0 L 13.5625 0 L 13.5625 -2.28125 L 16.328125 -2.28125 L 14.671875 -7.359375 L 6.796875 -7.359375 L 5.140625 -2.28125 L 7.90625 -2.28125 L 7.90625 0 L 0.484375 0 Z M 7.484375 -9.734375 L 14.046875 -9.734375 L 10.796875 -19.875 L 10.671875 -19.875 Z M 7.484375 -9.734375 "/></g></g></g><g fill="#0d0149" fill-opacity="1"><g transform="translate(207.931981, 215.912885)"><g><path d="M 13.109375 -2.140625 C 13.828125 -2.140625 14.492188 -2.253906 15.109375 -2.484375 C 15.734375 -2.710938 16.28125 -3.066406 16.75 -3.546875 C 17.226562 -4.035156 17.601562 -4.660156 17.875 -5.421875 C 18.15625 -6.179688 18.296875 -7.085938 18.296875 -8.140625 L 18.296875 -15.953125 C 18.296875 -17.003906 18.15625 -17.910156 17.875 -18.671875 C 17.601562 -19.429688 17.226562 -20.050781 16.75 -20.53125 C 16.28125 -21.019531 15.734375 -21.378906 15.109375 -21.609375 C 14.492188 -21.835938 13.828125 -21.953125 13.109375 -21.953125 C 12.398438 -21.953125 11.734375 -21.835938 11.109375 -21.609375 C 10.492188 -21.378906 9.945312 -21.019531 9.46875 -20.53125 C 9 -20.050781 8.625 -19.429688 8.34375 -18.671875 C 8.070312 -17.910156 7.9375 -17.003906 7.9375 -15.953125 L 7.9375 -8.140625 C 7.9375 -7.085938 8.070312 -6.179688 8.34375 -5.421875 C 8.625 -4.660156 9 -4.035156 9.46875 -3.546875 C 9.945312 -3.066406 10.492188 -2.710938 11.109375 -2.484375 C 11.734375 -2.253906 12.398438 -2.140625 13.109375 -2.140625 Z M 13.109375 0.421875 C 11.503906 0.421875 10.007812 0.144531 8.625 -0.40625 C 7.25 -0.96875 6.050781 -1.769531 5.03125 -2.8125 C 4.019531 -3.863281 3.226562 -5.164062 2.65625 -6.71875 C 2.082031 -8.269531 1.796875 -10.046875 1.796875 -12.046875 C 1.796875 -14.046875 2.082031 -15.820312 2.65625 -17.375 C 3.226562 -18.925781 4.019531 -20.222656 5.03125 -21.265625 C 6.050781 -22.316406 7.25 -23.117188 8.625 -23.671875 C 10.007812 -24.222656 11.503906 -24.5 13.109375 -24.5 C 14.722656 -24.5 16.21875 -24.222656 17.59375 -23.671875 C 18.976562 -23.117188 20.175781 -22.316406 21.1875 -21.265625 C 22.207031 -20.222656 23.003906 -18.925781 23.578125 -17.375 C 24.148438 -15.820312 24.4375 -14.046875 24.4375 -12.046875 C 24.4375 -10.046875 24.148438 -8.269531 23.578125 -6.71875 C 23.003906 -5.164062 22.207031 -3.863281 21.1875 -2.8125 C 20.175781 -1.769531 18.976562 -0.96875 17.59375 -0.40625 C 16.21875 0.144531 14.722656 0.421875 13.109375 0.421875 Z M 13.109375 0.421875 "/></g></g></g><g fill="#0d0149" fill-opacity="1"><g transform="translate(232.814514, 215.912885)"><g><path d="M 1.421875 -2.28125 L 3.828125 -2.28125 L 3.828125 -21.8125 L 1.421875 -21.8125 L 1.421875 -24.09375 L 10.734375 -24.09375 L 20.609375 -6.9375 L 20.8125 -6.9375 L 20.8125 -21.8125 L 18.390625 -21.8125 L 18.390625 -24.09375 L 25.890625 -24.09375 L 25.890625 -21.8125 L 23.5 -21.8125 L 23.5 0 L 18.46875 0 L 6.734375 -20.046875 L 6.53125 -20.046875 L 6.53125 -2.28125 L 8.9375 -2.28125 L 8.9375 0 L 1.421875 0 Z M 1.421875 -2.28125 "/></g></g></g><g fill="#0d0149" fill-opacity="1"><g transform="translate(258.766908, 215.912885)"><g><path d="M 1.421875 -2.28125 L 3.828125 -2.28125 L 3.828125 -21.8125 L 1.421875 -21.8125 L 1.421875 -24.09375 L 20.640625 -24.09375 L 20.640625 -17.671875 L 16.640625 -17.671875 L 16.640625 -21.609375 L 9.421875 -21.609375 L 9.421875 -13.8125 L 13.984375 -13.8125 L 13.984375 -15.875 L 16.53125 -15.875 L 16.53125 -9.25 L 13.984375 -9.25 L 13.984375 -11.328125 L 9.421875 -11.328125 L 9.421875 -2.484375 L 16.90625 -2.484375 L 16.90625 -7.109375 L 20.921875 -7.109375 L 20.921875 0 L 1.421875 0 Z M 1.421875 -2.28125 "/></g></g></g></svg>