<?xml version="1.0" encoding="utf-8"?>
<!-- Generator: Adobe Illustrator 27.1.1, SVG Export Plug-In . SVG Version: 6.00 Build 0)  -->
<svg version="1.1" id="Layer_1" xmlns="http://www.w3.org/2000/svg" xmlns:xlink="http://www.w3.org/1999/xlink" x="0px" y="0px"
	 viewBox="0 0 160 90" style="enable-background:new 0 0 160 90;" xml:space="preserve">
<style type="text/css">
	.st0{fill:#040203;}
	.st1{fill:#7D797A;}
	.st2{fill:#7B7777;}
	.st3{fill:#D5A538;}
	.st4{fill:#D4A63A;}
	.st5{fill:#D3A639;}
	.st6{fill:#D2A739;}
	.st7{fill:#0B0705;}
	.st8{fill:#CBA540;}
	.st9{fill:#CFA73E;}
	.st10{fill:#CBA640;}
	.st11{fill:#736233;}
	.st12{fill:#614F29;}
	.st13{fill:#78683C;}
	.st14{fill:#796534;}
	.st15{fill:#8A682C;}
	.st16{fill:#867142;}
	.st17{fill:#776337;}
	.st18{fill:#040304;}
	.st19{fill:#090605;}
	.st20{fill:#0B0807;}
	.st21{fill:#0B0806;}
	.st22{fill:#0A0806;}
	.st23{fill:#0B0706;}
	.st24{fill:#0A0706;}
	.st25{fill:#0C0806;}
	.st26{fill:#0B0906;}
	.st27{fill:#0D0907;}
	.st28{fill:#0C0907;}
	.st29{fill:#0D0806;}
	.st30{fill:#443216;}
	.st31{fill:#2D200C;}
	.st32{fill:#745A25;}
	.st33{fill:#6C5422;}
	.st34{fill:#6B5A33;}
	.st35{fill:#442E13;}
	.st36{fill:#6B5327;}
	.st37{fill:#D1A739;}
	.st38{fill:#9A783A;}
	.st39{fill:#D1A73A;}
	.st40{fill:#D4A439;}
	.st41{fill:#CFA63B;}
	.st42{fill:#CFA53D;}
	.st43{fill:#D0A63C;}
	.st44{fill:#D0A738;}
	.st45{fill:#D6A53A;}
	.st46{fill:#D4A53C;}
	.st47{fill:#D4A53A;}
	.st48{fill:#D1A73B;}
	.st49{fill:#D1A638;}
	.st50{fill:#D2A738;}
	.st51{fill:#CEA43E;}
	.st52{fill:#D0A53C;}
	.st53{fill:#B39A5A;}
	.st54{fill:#B69F5B;}
	.st55{fill:#BF9F5F;}
	.st56{fill:#BEA058;}
	.st57{fill:#B89E5C;}
	.st58{fill:#1E180B;}
	.st59{fill:#938050;}
	.st60{fill:#967C4E;}
	.st61{fill:#ADA9AA;}
	.st62{fill:#040302;}
	.st63{fill:#110D06;}
	.st64{fill:#191209;}
	.st65{fill:#050303;}
	.st66{fill:#060506;}
	.st67{fill:#060404;}
	.st68{fill:#050304;}
	.st69{fill:#0A0704;}
	.st70{fill:#140E06;}
	.st71{fill:#251B0A;}
	.st72{fill:#0E0A06;}
	.st73{fill:#171108;}
	.st74{fill:#32210A;}
	.st75{fill:#1B140A;}
</style>
<g>
	<path class="st0" d="M33.66,52.15c-1.13-0.11-2.23-0.31-3.18-0.99c-0.19-0.13-0.35-0.12-0.56-0.06c-1.49,0.4-3,0.72-4.55,0.69
		c-1.34-0.03-2.62-0.34-3.81-0.94c-0.2-0.1-0.36-0.1-0.56-0.05c-1.58,0.4-3.19,0.66-4.83,0.54c-0.82-0.06-1.65-0.17-2.37-0.62
		c-0.15-0.09-0.25-0.02-0.37,0.01c-1.69,0.39-3.38,0.85-5.11,1.05c-1.35,0.16-2.7,0.37-4.05-0.03c-0.85-0.26-1.42-0.82-1.7-1.65
		c-0.37-1.08-0.22-2.08,0.49-2.98c0.33-0.42,0.76-0.73,1.3-0.87c2.06-0.55,4.14-1.06,6.18-1.67c3.62-1.09,7.21-2.28,10.66-3.85
		c3.29-1.49,6.34-3.38,9.2-5.58c0.48-0.37,0.64-0.71,0.47-1.33c-0.31-1.11,0.03-2.12,0.94-2.82c1.67-1.29,3.32-2.6,4.95-3.94
		c1.95-1.6,3.88-3.23,5.84-4.82c1.1-0.9,2.24-1.76,3.41-2.56c1.49-1.02,3.04-1.94,4.63-2.78c2.14-1.14,4.41-1.85,6.72-2.48
		c2.41-0.66,4.85-0.93,7.33-0.78c1.34,0.08,2.66,0.28,3.92,0.78c0.09,0.04,0.16,0.15,0.26-0.04c0.93-1.77,2.53-1.88,4.24-1.69
		c0.57,0.07,1.14,0.23,1.69,0.39c0.22,0.06,0.25,0.02,0.34-0.18c0.63-1.53,1.66-2.79,3.05-3.64c1.11-0.69,2.53-0.55,3.64,0.42
		c1.06,0.92,1.97,1.98,2.54,3.28c0.09,0.2,0.16,0.18,0.33,0.14c0.59-0.15,1.19-0.31,1.79-0.4c1.16-0.17,2.28-0.04,3.28,0.62
		c0.6,0.4,0.91,0.99,1.03,1.69c1.39-0.84,2.88-1.2,4.48-1.29c1.08-0.06,2.16-0.11,3.23-0.07c1.78,0.06,3.5,0.5,5.22,0.94
		c1.59,0.4,3.17,0.87,4.63,1.59c1.57,0.76,3.13,1.56,4.61,2.51c1.96,1.26,3.76,2.73,5.59,4.16c2.13,1.67,4.16,3.46,6.25,5.18
		c1.14,0.94,2.29,1.87,3.48,2.74c1.14,0.84,1.58,1.96,1.19,3.36c-0.09,0.32-0.06,0.53,0.23,0.76c1.7,1.36,3.47,2.59,5.37,3.67
		c2.05,1.16,4.14,2.22,6.32,3.1c2.48,1,5.02,1.85,7.57,2.65c2.4,0.75,4.85,1.32,7.26,2.01c0.87,0.25,1.42,0.87,1.7,1.78
		c0.28,0.9,0.18,1.74-0.25,2.53c-0.57,1.03-1.56,1.34-2.65,1.37c-2.32,0.07-4.58-0.42-6.82-0.96c-0.73-0.18-1.38-0.26-2.17,0
		c-1.97,0.67-4,0.39-5.99-0.07c-0.52-0.12-0.96-0.14-1.5,0.09c-2.23,0.96-4.53,0.94-6.86,0.37c-0.1-0.02-0.2-0.03-0.29-0.06
		c-0.73-0.24-1.4-0.31-2.13,0.17c-0.76,0.5-1.71,0.59-2.62,0.66c-0.74,0.06-1.48,0.05-2.23,0.01c-0.46-0.04-0.92-0.08-1.37-0.21
		c-0.2-0.06-0.37-0.01-0.56,0.1c-1.44,0.79-2.95,1.11-4.59,0.74c-1.25-0.28-2.45-0.67-3.55-1.56c0.05,0.94-0.11,1.75-0.3,2.56
		c-0.15,0.65-0.32,1.31-0.81,1.79c-0.54,0.53-0.6,1.18-0.67,1.86c-0.13,1.2-0.33,2.39-0.61,3.57c-0.26,1.11-0.91,1.82-2.04,2.01
		c-0.48,0.08-0.68,0.33-0.83,0.76c-0.25,0.72-0.77,1.23-1.47,1.52c-0.19,0.08-0.25,0.16-0.29,0.34c-0.11,0.47-0.25,0.93-0.35,1.39
		c-0.3,1.38-1.18,2.14-2.54,2.36c-0.38,0.06-0.59,0.22-0.73,0.58c-0.48,1.18-1.38,1.85-2.65,1.93c-0.71,0.04-1.42-0.11-2-0.59
		c-0.21-0.18-0.36-0.18-0.64-0.05c-1.34,0.63-2.65,0.49-3.78-0.6c-0.36-0.35-0.64-0.23-0.86,0.03c-1.37,1.61-2.86,3.11-4.41,4.54
		c-2.02,1.87-4.05,3.75-6.44,5.17c-1.49,0.88-3.1,1.2-4.76,0.57c-1.01-0.38-1.93-0.97-2.74-1.68c-2.15-1.88-4.36-3.69-6.42-5.67
		c-0.93-0.9-1.85-1.82-2.65-2.84c-0.19-0.24-0.28-0.31-0.56-0.06c-1.15,1.05-2.52,1.18-3.83,0.49c-0.19-0.1-0.3-0.06-0.43,0.05
		c-0.98,0.77-2.08,0.82-3.19,0.4c-0.8-0.3-1.27-0.99-1.6-1.76c-0.12-0.29-0.28-0.44-0.59-0.48c-1-0.14-1.84-0.54-2.36-1.45
		c-0.33-0.59-0.38-1.26-0.55-1.9c-0.11-0.4-0.18-0.73-0.64-0.93c-0.69-0.3-1.13-0.91-1.36-1.63c-0.08-0.27-0.23-0.37-0.49-0.4
		c-0.92-0.12-1.62-0.61-2.02-1.43c-0.3-0.62-0.37-1.33-0.5-2.02c-0.18-0.98-0.34-1.96-0.43-2.95c-0.03-0.29-0.13-0.55-0.35-0.79
		c-0.97-1.05-1.15-2.39-1.31-3.72c-0.03-0.28,0-0.56,0-0.91c-0.53,0.32-0.99,0.66-1.53,0.86c-1.24,0.47-2.51,0.92-3.85,0.79
		c-0.95-0.09-1.91-0.27-2.74-0.79c-0.29-0.18-0.54-0.23-0.88-0.13c-0.38,0.11-0.79,0.1-1.18,0.15
		C35.2,52.21,34.43,52.22,33.66,52.15z"/>
	<path class="st1" d="M33.66,52.15c0.77,0,1.54,0,2.31,0C35.2,52.3,34.43,52.3,33.66,52.15z"/>
	<path class="st2" d="M124.42,52.16c0.74,0,1.49,0,2.23-0.01C125.91,52.3,125.16,52.29,124.42,52.16z"/>
	<path class="st3" d="M60.92,64.14c0.04,0.36,0.02,0.75,0.13,1.08c0.4,1.2-0.19,2.13-0.79,3.06c-0.17,0.26-0.34,0.73-0.66,0.66
		c-0.27-0.06-0.33-0.54-0.44-0.84c-0.85-2.29-1.02-4.69-1.14-7.1c-0.07-1.44-0.13-2.89-0.23-4.33c-0.25,1.07-0.33,2.16-0.36,3.26
		c-0.02,0.81-0.02,1.63,0,2.45c0.02,1.4-0.33,2.73-0.83,4.02c-0.02,0.06-0.08,0.1-0.16,0.2c-0.3-0.83-0.47-1.63-0.58-2.44
		c-0.48-3.61-0.43-7.23-0.41-10.86c0-0.18,0-0.36-0.03-0.54c-0.28,1.06-0.4,2.14-0.51,3.23c-0.16,1.59,0,3.19-0.13,4.78
		c-0.05,0.67-0.23,1.29-0.67,1.88c-0.49-1.09-0.85-2.18-0.94-3.33c-0.27-3.43-0.14-6.85,0.16-10.26c0.01-0.16,0-0.33-0.02-0.5
		c-0.33,1.04-0.52,2.11-0.68,3.19c-0.3,2.09-0.31,4.2-0.5,6.3c-0.07,0.78-0.28,1.52-0.79,2.32c-1.18-5.38-0.89-10.56,0.65-15.72
		c-0.53,0.7-1.22,2.77-1.59,4.6c-0.32,1.6-0.42,3.21-0.52,4.89c-0.4-0.24-0.52-0.58-0.62-0.92c-0.28-0.91-0.19-1.84-0.07-2.77
		c0.34-2.79,1.01-5.51,1.96-8.16c0.01-0.58,0.28-1.08,0.47-1.61c0.05-0.13,0.1-0.32,0.29-0.28c0.14,0.03,0.14,0.21,0.16,0.34
		c0.11,0.86,0.29,1.7,0.62,2.51c0.28,0.69,0.7,1.29,1.24,1.78c0.28,0.25,0.34,0.51,0.34,0.83c0,1.2,0.15,2.39,0.57,3.53
		c0.17,0.45,0.37,0.89,0.77,1.36c-0.36-1.17-0.64-2.25-0.83-3.35c-0.23-1.33-0.1-2.64,0.02-3.97c0.18-2.03,0.76-3.98,1.05-5.99
		c0.01-0.05,0.03-0.09,0.06-0.14c-0.94,2.24-1.53,4.89-1.63,7.24c0,0.03,0,0.07,0,0.1c-0.03,0.16,0.01,0.38-0.19,0.41
		c-0.2,0.02-0.24-0.19-0.29-0.35c-0.12-0.4-0.27-0.79-0.43-1.17c-0.04-0.1-0.09-0.2-0.14-0.3c-0.8-1.39-0.71-2.88-0.49-4.38
		c0.3-1.5,0.81-2.94,1.07-4.5c-0.82,1.34-0.97,2.92-1.77,4.22c-0.45,0.83-0.82,1.7-1.2,2.56c-0.09,0.2-0.17,0.4-0.35,0.53
		c-0.51,1.12-0.96,2.29-1.79,3.2c-1.46,1.61-2.95,3.21-4.84,4.34c-1.1,0.66-2.26,1.06-3.56,0.73c-0.32-0.08-0.64-0.19-0.95-0.46
		c0.57-0.33,1.16-0.59,1.68-0.96c1.33-0.95,2.59-1.97,3.7-3.18c0.48-0.53,0.98-1.01,1.75-1.23c0.78-0.22,1.26-0.95,1.75-1.58
		c1.17-1.5,2.1-3.15,3.09-4.76c0.04-0.07,0.06-0.15,0.13-0.31c-0.76,0.28-1.24,0.8-1.66,1.36c-0.52,0.69-1,1.41-1.47,2.13
		c-0.9,1.38-1.96,2.56-3.64,2.99c-0.06,0.02-0.13,0.04-0.18,0.07c-0.03,0.01-0.05,0.04-0.11,0.09c0.61,0.31,0.2,0.52-0.06,0.76
		c-1.48,1.35-3.06,2.55-4.88,3.42c-2,0.95-4.11,1.15-6.28,0.86c-0.55-0.07-0.96-0.29-1.28-0.63c0.98-0.5,1.94-1.02,2.84-1.64
		c0.78-0.54,1.54-1.1,2.18-1.81c0.19-0.21,0.4-0.29,0.69-0.32c1.58-0.18,2.85-0.92,3.86-2.15c0.73-0.89,1.43-1.8,2.02-2.78
		c1.07-1.78,2.31-3.44,3.5-5.14c0.06-0.09,0.12-0.19,0.25-0.38c-0.83,0.36-1.29,0.96-1.82,1.5c-1.51,1.55-2.43,3.52-3.73,5.22
		c-1.14,1.49-2.57,2.48-4.36,2.97c-0.6,0.16-1.25,0.02-1.94,0.25c0.33,0.18,0.6,0.32,0.95,0.51c-0.86,0.54-1.66,1.05-2.48,1.55
		c-1.93,1.18-3.97,2.08-6.23,2.41c-1.51,0.22-3.04,0.37-4.58-0.35c0.33-0.15,0.59-0.26,0.85-0.38c2.4-1.11,4.72-2.36,6.88-3.9
		c0.92-0.66,2.01-1.03,2.88-1.78c1.04-0.89,2-1.86,2.84-2.93c1.02-1.3,2.16-2.49,3.31-3.66c0.13-0.13,0.27-0.25,0.34-0.46
		c-0.79,0.11-1.38,0.54-1.89,1.05c-1.39,1.38-2.76,2.79-4.13,4.19c-0.62,0.63-1.24,1.26-2,1.71c-1.32,0.78-2.62,1-4.45,0.71
		c3.07-1.85,5.92-3.89,8.5-6.3c-4.52,3.32-9.28,6.27-14.49,8.35C16.48,47,11.21,48.88,5.49,49.07c0.08-0.19,0.22-0.19,0.33-0.22
		c3.71-0.97,7.39-2.03,11.02-3.27c5.58-1.91,10.76-4.53,15.39-8.21c1.75-1.39,3.31-2.98,4.9-4.55c1.02-1.01,2.2-1.83,3.33-2.69
		c1.47-1.12,2.81-2.39,4.16-3.65c0.28-0.26,0.57-0.5,0.85-0.75c0.12-0.1,0.25-0.15,0.41-0.15c1.44,0.03,2.68-0.55,3.87-1.28
		c0.53-0.32,1.06-0.47,1.69-0.46c1.53,0.01,2.99-0.39,4.39-1.01c0.78-0.35,1.52-0.48,2.4-0.36c1.45,0.19,2.87-0.23,4.26-0.63
		c0.89-0.26,1.76-0.56,2.67-0.85c-0.03,0.5-0.18,0.9-0.45,1.27c-0.74,1.01-1.4,2.07-1.74,3.29c-0.14,0.53-0.22,1.07-0.3,1.61
		c-0.02,0.15-0.1,0.45,0.16,0.43c0.25-0.02,0.67-0.01,0.69-0.35c0.11-2.06,1.35-3.57,2.49-5.12c0.44-0.6,0.69-1.24,0.77-1.96
		c0.05-0.45-0.14-0.64-0.59-0.67c-0.48-0.02-0.92,0.11-1.35,0.29c-1.57,0.66-3.21,1.07-4.88,1.37c-0.64,0.12-1.29,0.06-2.03,0.04
		c0.52-0.78,0.97-1.54,1.19-2.42c-0.99,1.04-1.92,2.16-3.25,2.77c-1.31,0.6-2.68,1.04-4.24,1.05c0.61-0.87,1.24-1.64,1.44-2.71
		c-3.49,3.41-3.66,3.53-6.47,4.42c0.68-1.01,0.76-2.21,1.97-2.87c1.76-0.96,3.47-2.03,5.32-2.83c2.3-0.99,4.69-1.73,7.19-1.93
		c2.14-0.17,4.32-0.33,6.41,0.45c0.94,0.35,1.15,0.8,0.95,1.77c-0.22,1.01-0.78,1.86-1.21,2.78c-0.76,1.63-1.22,3.36-1.85,5.15
		c0.67-0.18,1.26-0.33,1.84-0.49c1.54-0.44,3.13-0.59,4.72-0.72c1.57-0.12,3.14-0.31,4.72-0.38c2.83-0.14,5.65-0.03,8.48,0.14
		c3.19,0.2,6.36,0.51,9.5,1.11c0.39,0.07,0.42-0.05,0.31-0.38c-0.68-2.03-1.33-4.08-2.38-5.96c-0.27-0.49-0.4-1.02-0.51-1.55
		c-0.13-0.58,0.13-1.05,0.71-1.34c0.69-0.34,1.43-0.54,2.2-0.6c3.2-0.25,6.33,0.05,9.39,1.09c2.71,0.92,5.22,2.21,7.64,3.72
		c0.66,0.41,1.13,0.88,1.35,1.62c0.12,0.39,0.34,0.75,0.52,1.13c-1.64-0.35-3.74-1.13-6.38-4.34c0.21,1.08,0.81,1.85,1.43,2.71
		c-1.54,0.01-2.89-0.43-4.2-1.02c-1.34-0.61-2.26-1.72-3.23-2.8c0,0.36,0.1,0.69,0.41,1.23c0.22,0.39,0.45,0.76,0.7,1.17
		c-1.32,0.18-2.56-0.09-3.8-0.4c-1.05-0.26-2.08-0.57-3.08-0.99c-0.43-0.18-0.88-0.3-1.35-0.29c-0.43,0.01-0.62,0.25-0.58,0.63
		c0.07,0.68,0.26,1.32,0.69,1.89c0.9,1.19,1.83,2.37,2.3,3.83c0.06,0.17,0.11,0.35,0.15,0.53c0.16,0.68,0.15,0.69,0.94,0.8
		c-0.09-1.61-0.71-3.02-1.61-4.32c-0.73-1.05-0.74-1.05-0.84-1.83c0.99,0.31,1.96,0.63,2.94,0.91c1.05,0.31,2.13,0.52,3.23,0.59
		c0.36,0.02,0.73,0.03,1.09-0.07c0.48-0.13,0.94-0.08,1.4,0.13c0.77,0.35,1.56,0.65,2.38,0.88c0.98,0.28,1.98,0.43,3,0.39
		c0.48-0.02,0.87,0.18,1.25,0.42c0.83,0.53,1.72,0.94,2.67,1.19c0.16,0.04,0.33,0.12,0.49,0.1c0.96-0.14,1.51,0.46,2.1,1.06
		c1.95,1.96,4.16,3.62,6.32,5.33c1.36,1.07,2.48,2.41,3.76,3.58c2.65,2.44,5.57,4.54,8.75,6.24c5.8,3.09,12.02,5.03,18.35,6.69
		c0.64,0.17,1.28,0.34,1.91,0.55c-0.86,0.09-1.72,0-2.57-0.1c-3.1-0.37-6.05-1.35-9.02-2.26c-3.66-1.12-7.09-2.72-10.46-4.5
		c-2.77-1.46-5.35-3.22-7.9-5.03c-0.21-0.15-0.43-0.3-0.67-0.4c2.54,2.38,5.36,4.37,8.38,6.19c-2.35,0.41-4.29-0.21-5.91-1.86
		c-1.56-1.59-3.11-3.19-4.69-4.76c-0.5-0.5-1.08-0.93-1.9-1.03c0.42,0.55,0.86,1,1.32,1.42c1.24,1.17,2.19,2.58,3.35,3.83
		c1.17,1.26,2.43,2.41,4.03,3.13c0.43,0.2,0.83,0.49,1.22,0.77c2.14,1.54,4.5,2.69,6.9,3.76c0.12,0.05,0.23,0.11,0.42,0.19
		c-0.68,0.3-1.31,0.49-2,0.51c-2.98,0.1-5.71-0.72-8.27-2.2c-1.03-0.6-2.05-1.22-3.08-1.93c0.31-0.17,0.59-0.32,0.95-0.52
		c-0.28-0.05-0.45-0.1-0.62-0.1c-2.74-0.05-4.61-1.5-6.11-3.64c-0.97-1.39-1.79-2.88-2.86-4.2c-0.53-0.66-1.03-1.35-1.79-1.78
		c-0.08-0.04-0.14-0.16-0.3-0.06c0.61,0.87,1.24,1.71,1.82,2.6c1.08,1.67,2.07,3.4,3.29,4.99c1.17,1.53,2.57,2.64,4.58,2.74
		c0.15,0.01,0.24,0.1,0.33,0.2c1.38,1.49,3.1,2.49,4.87,3.42c0.09,0.04,0.17,0.09,0.31,0.17c-0.45,0.41-0.97,0.56-1.51,0.63
		c-3.22,0.42-6.08-0.49-8.65-2.41c-0.96-0.72-1.89-1.46-2.78-2.33c0.14-0.11,0.26-0.2,0.4-0.3c-0.12-0.17-0.3-0.22-0.46-0.27
		c-1.39-0.41-2.31-1.39-3.11-2.52c-0.71-1-1.3-2.1-2.15-2.99c-0.34-0.35-0.68-0.71-1.19-0.85c-0.06,0.13,0.01,0.22,0.06,0.29
		c1.12,1.74,2.1,3.59,3.45,5.18c0.53,0.63,1.1,1.19,1.96,1.37c0.48,0.1,0.7,0.54,0.99,0.87c1.53,1.72,3.26,3.17,5.34,4.18
		c0.04,0.02,0.07,0.06,0.13,0.12c-0.78,0.54-1.63,0.64-2.52,0.49c-0.8-0.13-1.54-0.45-2.19-0.92c-1.84-1.33-3.47-2.89-4.88-4.68
		c-0.6-0.76-0.96-1.67-1.36-2.54c-0.41-0.91-0.77-1.85-1.24-2.72c-0.73-1.34-1.14-2.8-1.71-4.19c-0.14-0.33-0.3-0.65-0.6-1.02
		c-0.01,0.92,0.25,1.69,0.46,2.46c0.4,1.48,0.84,2.94,0.77,4.5c-0.03,0.66-0.15,1.28-0.44,1.87c-0.38,0.77-0.71,1.57-0.87,2.42
		c-0.27-0.03-0.23-0.26-0.23-0.42c-0.06-2.56-0.7-4.99-1.58-7.37c0.36,2.15,0.83,4.29,1.09,6.46c0.23,1.9,0.04,3.74-0.47,5.57
		c-0.12,0.43-0.23,0.86-0.37,1.29c0.58-0.64,0.85-1.43,1.02-2.25c0.18-0.86,0.33-1.73,0.3-2.62c-0.01-0.24-0.05-0.51,0.23-0.66
		c0.49-0.14,0.73-0.56,0.97-0.94c0.69-1.08,1.09-2.27,1.06-3.57c0-0.05,0-0.09,0.01-0.14c0-0.01,0.02-0.02,0.08-0.06
		c0.53,1.16,0.93,2.36,1.32,3.56c0.77,2.38,1.25,4.81,1.46,7.3c0.06,0.71,0.05,1.43-0.21,2.12c-0.1,0.27-0.23,0.51-0.55,0.74
		c-0.16-3.28-0.5-6.46-2.02-9.38c1.27,4.47,1.65,9,0.93,13.6c-0.1,0.61-0.16,1.24-0.4,1.92c-0.47-0.71-0.68-1.43-0.74-2.16
		c-0.14-1.52-0.19-3.05-0.31-4.58c-0.13-1.54-0.33-3.07-0.72-4.57c-0.03-0.12-0.07-0.25-0.19-0.35c0.04,0.65,0.07,1.3,0.12,1.96
		c0.23,2.86,0.26,5.71,0.07,8.57c-0.08,1.2-0.46,2.33-0.94,3.46c-0.62-0.77-0.69-1.64-0.72-2.52c-0.05-1.38,0.04-2.76-0.09-4.14
		c-0.1-1.05-0.24-2.1-0.49-3.14c-0.1,4.58,0.18,9.19-1.03,13.69c-0.34-0.51-0.54-1.05-0.67-1.6c-0.2-0.84-0.35-1.69-0.33-2.56
		c0.05-1.91-0.01-3.82-0.33-5.76c-0.13,0.18-0.07,0.36-0.09,0.52c-0.1,0.57,0.04,1.15-0.08,1.72c-0.09,2.22-0.16,4.46-0.53,6.65
		c-0.19,1.09-0.51,2.16-0.95,3.19c-0.13,0.31-0.25,0.38-0.5,0.08c-0.56-0.66-0.94-1.41-1.22-2.21c-0.21-0.62,0.08-1.22,0.13-1.82
		c0.16-1.7,0.11-3.39-0.15-5.08c-0.06,0.81-0.12,1.63-0.18,2.44c-0.12,1.63-0.33,3.24-0.93,4.78c-0.24,0.61-0.56,1.16-0.99,1.66
		c-0.25,0.29-0.48,0.31-0.65-0.04c-0.48-1.01-0.92-2.02-0.57-3.2c0.29-0.98,0.39-2.01,0.43-3.15c-0.36,0.48-0.59,0.9-0.7,1.39
		c-0.19,0.86-0.46,1.7-0.79,2.51c-0.2,0.48-0.53,0.88-0.87,1.27c-0.15,0.16-0.3,0.37-0.53,0.32c-0.23-0.05-0.18-0.33-0.25-0.5
		c-0.03-0.07-0.04-0.16-0.06-0.25c-0.18,0-0.23,0.16-0.32,0.26c-2.02,2.52-4.3,4.81-6.69,6.97c-1.43,1.29-2.88,2.57-4.51,3.61
		c-0.08,0.05-0.17,0.1-0.25,0.16c-1.09,0.71-2.13,0.62-3.19-0.11c-1.1-0.75-2.08-1.65-3.07-2.53c-1.56-1.39-3.21-2.69-4.67-4.2
		c-1.06-1.1-2.1-2.22-3.04-3.43c-0.1-0.13-0.22-0.24-0.33-0.37c-0.27,0.53-0.33,0.53-0.74,0.15c-0.95-0.91-1.26-2.13-1.6-3.32
		c-0.14-0.49-0.43-0.87-0.7-1.29c-0.09,0.72,0,1.43,0.21,2.09c0.36,1.12,0.21,2.16-0.25,3.19c-0.05,0.11-0.09,0.22-0.15,0.32
		c-0.3,0.52-0.43,0.54-0.81,0.06c-1.01-1.25-1.36-2.75-1.61-4.29c-0.2-1.23-0.27-2.48-0.34-3.72c-0.01-0.26,0-0.53-0.15-0.83
		c-0.05,0.55-0.09,1.05-0.14,1.55C60.85,62.12,60.85,63.13,60.92,64.14z"/>
	<path class="st4" d="M74.83,21.36c-0.96-1.86-1.94-3.71-3.12-5.44c-0.2-0.3-0.21-0.41,0.2-0.42c0.69-0.01,1.37,0.04,2,0.32
		c0.83,0.35,1.43,0.99,1.2,2.02c-0.11,0.49,0.31,0.85,0.44,1.29c0.12,0.43,0.37,0.59,0.84,0.56c0.66-0.05,1.33-0.01,1.99-0.01
		c0.11-1.03,0.07-2.06,0.03-3.1c-0.01-0.03-0.01-0.07-0.02-0.1c-0.95-1.17-0.96-2.21-0.01-3.48c0.31-0.41,0.68-0.77,1.06-1.12
		c0.16-0.14,0.28-0.19,0.46-0.02c0.56,0.52,1.12,1.04,1.53,1.7c0.65,1.06,0.53,2.09-0.34,2.91c-0.07,1.06-0.09,2.13,0.01,3.19
		c0.75,0,1.49,0,2.24,0c0.2,0,0.37-0.01,0.44-0.23c0.23-0.67,0.68-1.24,0.56-2.06c-0.12-0.81,0.54-1.28,1.22-1.57
		c0.66-0.29,1.38-0.33,2.1-0.32c0.28,0,0.36,0.08,0.17,0.34c-1.22,1.74-2.22,3.62-3.18,5.51c-0.11,0.12-0.25,0.07-0.38,0.07
		c-3.03,0-6.06,0-9.08,0C75.08,21.43,74.94,21.48,74.83,21.36z"/>
	<path class="st5" d="M144.91,48.31c-1.29,0.21-2.57,0.14-3.85-0.1c-1.89-0.35-3.66-1.05-5.41-1.81c-1.66-0.72-3.25-1.57-4.92-2.49
		c0.82-0.11,1.55-0.21,2.1-0.79c0.16-0.17,0.34-0.01,0.5,0.08c2.57,1.45,5.21,2.77,7.96,3.86
		C142.47,47.52,143.69,47.88,144.91,48.31z"/>
	<path class="st6" d="M15.48,48.31c1.05-0.35,2.02-0.63,2.97-0.98c2.95-1.08,5.77-2.44,8.47-4.05c0.36-0.22,0.64-0.26,0.97,0.06
		c0.46,0.45,1.08,0.46,1.68,0.54c0.02,0.16-0.14,0.16-0.22,0.2c-2.74,1.5-5.49,2.96-8.52,3.81c-1.56,0.44-3.16,0.63-4.78,0.53
		C15.88,48.41,15.73,48.36,15.48,48.31z"/>
	<path class="st7" d="M52.85,38.76c-0.04,0.49-0.09,0.99-0.13,1.48c-0.1,1.07,0.16,2.06,0.65,3c-0.12,0.12-0.05,0.17,0.07,0.21
		c0.29,0.47,0.38,1.01,0.62,1.63c0.2-2.9,0.67-5.61,1.89-8.25c0.15,0.39,0,0.65-0.01,0.91c-0.01,0.28-0.06,0.56-0.13,0.84
		c-0.55,2.04-0.79,4.14-1.01,6.23c-0.16,1.52,0.14,3.01,0.54,4.48c0.15,0.57,0.33,1.14,0.52,1.79c-0.43-0.27-0.66-0.59-0.84-0.96
		c-0.68-1.35-0.85-2.82-0.89-4.3c-0.01-0.35-0.1-0.57-0.38-0.82c-1.04-0.92-1.46-2.18-1.7-3.51c-0.06-0.34-0.07-0.69-0.12-1.16
		c-0.28,0.71-0.52,1.33-0.77,1.95c-0.02-0.08-0.07-0.16-0.06-0.24c0.02-0.48-0.19-0.6-0.61-0.38c0.43-1.06,0.89-2.11,1.45-3.11
		c0.31,0.22,0.17,0.67,0.44,0.88C52.57,39.24,52.51,38.87,52.85,38.76z"/>
	<path class="st8" d="M47.1,22.56c-0.63,0.76-1.28,1.52-2.09,2.07c-0.49,0.33-0.84,0.78-1.25,1.18c-2.82,2.76-6.03,4.98-9.39,7.02
		c-0.08,0.05-0.15,0.14-0.32,0.07C38.53,29.58,42.52,25.71,47.1,22.56z"/>
	<path class="st9" d="M84.28,22.2c-0.16,0.33-0.32,0.65-0.48,0.98c-0.1,0.08-0.22,0.05-0.34,0.05c-2.47,0-4.94,0-7.42,0
		c-0.11,0-0.23,0.02-0.34-0.05c-0.24-0.28-0.31-0.66-0.48-0.98c0.09-0.11,0.21-0.07,0.32-0.07c2.8,0,5.6,0,8.4,0
		C84.06,22.13,84.18,22.1,84.28,22.2z"/>
	<path class="st10" d="M113.4,22.57c4.47,3.23,8.5,7.01,12.89,10.34C121.35,30.26,117.24,26.59,113.4,22.57z"/>
	<path class="st11" d="M74.83,21.36c2.2,0.01,4.4,0.02,6.61,0.02c1.08,0,2.15-0.01,3.23-0.02c-0.1,0.2-0.29,0.12-0.44,0.12
		c-2.98,0.01-5.97,0-8.95,0C75.12,21.48,74.93,21.56,74.83,21.36z"/>
	<path class="st12" d="M84.28,22.2c-3.02,0-6.04,0.01-9.05,0.01c0.08-0.19,0.25-0.12,0.39-0.12c2.75,0,5.51,0,8.26,0
		C84.02,22.08,84.18,22.02,84.28,22.2z"/>
	<path class="st13" d="M75.7,23.18c2.7,0,5.39,0,8.09-0.01c-0.09,0.15-0.23,0.11-0.36,0.11c-2.46,0-4.91,0-7.37,0
		C75.94,23.28,75.79,23.32,75.7,23.18z"/>
	<path class="st14" d="M81.11,19.68c-0.01-0.01-0.04-0.01-0.04-0.02c-0.11-1.06-0.13-2.11,0.03-3.17
		C81.1,17.55,81.1,18.61,81.11,19.68z"/>
	<path class="st15" d="M78.42,16.58c0.1,1.03,0.19,2.07-0.03,3.1C78.4,18.64,78.41,17.61,78.42,16.58z"/>
	<path class="st16" d="M60.92,64.14c-0.16-1.01-0.15-2.01,0-3.02C60.92,62.12,60.92,63.13,60.92,64.14z"/>
	<path class="st17" d="M102.58,58.84c0-0.57-0.08-1.15,0.08-1.72C102.66,57.7,102.73,58.27,102.58,58.84z"/>
	<path class="st18" d="M80.81,26.16c3.59,0.04,7.17,0.31,10.73,0.79c2.52,0.34,5.02,0.76,7.42,1.63c0.8,0.29,1.57,0.64,2.24,1.17
		c0.26,0.2,0.36,0.42,0.37,0.76c0.05,4.88-0.08,9.74-0.69,14.59c-0.56,4.42-1.58,8.72-3.38,12.81c-1.33,3.01-3.04,5.79-5.1,8.36
		c-2.92,3.65-6.27,6.87-9.93,9.77c-0.64,0.51-1.31,0.97-2.07,1.29c-0.33,0.14-0.62,0.13-0.95-0.04c-1.05-0.53-1.94-1.27-2.79-2.07
		c-1.69-1.58-3.53-2.98-5.17-4.62c-3.96-3.95-6.97-8.53-9.1-13.69c-1.61-3.9-2.75-7.94-3.42-12.1c-0.62-3.85-0.89-7.73-0.72-11.63
		c0.05-1.05,0.16-2.09,0.49-3.09c0.07-0.22,0.15-0.43,0.43-0.49c2.5-0.56,4.92-1.41,7.37-2.13c2.17-0.64,4.4-0.83,6.63-1
		c1.28-0.1,2.55-0.2,3.83-0.31C78.27,26.1,79.54,26.11,80.81,26.16z"/>
	<path class="st19" d="M103.88,51.96c-0.08,1.15-0.27,2.28-0.85,3.3c-0.19,0.33-0.44,0.59-0.82,0.69c-0.55,0.14-0.83-0.03-1.29-0.82
		c-0.05,1.04-0.34,1.94-0.71,2.82c-0.1,0.24-0.21,0.49-0.36,0.71c-0.33,0.46-0.91,0.57-1.37,0.28c-0.17-0.11-0.28-0.22-0.19-0.45
		c0.08-0.2,0.19-0.26,0.42-0.2c0.48,0.14,0.69-0.19,0.84-0.57c0.43-1.06,0.65-2.17,0.67-3.3c0.02-1.33,0.36-2.59,0.66-3.86
		c0.12-0.01,0.13,0.07,0.13,0.16c-0.01,1.04,0.04,2.09-0.03,3.13c0.01,0.43-0.11,0.88,0.36,1.2c0.48,0.34,0.81,0.33,1.09-0.19
		c0.48-0.88,0.67-1.83,0.72-2.82C103.3,49,103.02,46,102.63,43c-0.04-0.32-0.01-0.65-0.01-1c0.48,0.55,1.17,4.23,1.26,6.73
		C103.93,49.8,103.94,50.88,103.88,51.96z"/>
	<path class="st7" d="M59.62,51.95c0.51,1.28,0.66,2.63,0.81,3.98c0.07,0.66,0.3,1.29,0.55,1.91c0.12,0.31,0.33,0.54,0.71,0.49
		c0.31-0.04,0.36,0.22,0.4,0.41c0.05,0.21-0.18,0.25-0.32,0.31c-0.51,0.19-1-0.02-1.3-0.63c-0.43-0.9-0.77-1.84-0.86-2.84
		c-0.01-0.11-0.01-0.23-0.02-0.33c-0.07-0.04-0.12-0.02-0.13,0.03c-0.26,0.96-1.41,0.95-1.96,0.07c-0.42-0.68-0.65-1.42-0.77-2.2
		c-0.37-2.52-0.18-5.04,0.22-7.54c0.17-1.03,0.3-2.07,0.6-3.08c0.19,0.29,0.27,0.87,0.19,1.45c-0.39,2.71-0.53,5.42-0.41,8.15
		c0.04,0.87,0.2,1.71,0.58,2.5c0.17,0.35,0.34,0.72,0.81,0.67c0.4-0.04,0.75-0.55,0.78-1.03c0-0.1,0-0.2,0-0.3
		c-0.06-0.6-0.01-1.21-0.03-1.81C59.48,52.05,59.47,51.94,59.62,51.95z"/>
	<path class="st19" d="M116.37,34.16c0.75,0.29,1.27,0.75,1.77,1.22c1.08,1.02,1.91,2.26,2.9,3.35c1.22,1.34,2.4,2.72,3.89,3.77
		c1,0.7,2.11,1.18,3.49,1.36c-0.85,0.45-1.58,0.51-2.33,0.21c-1.5-0.6-2.86-1.4-3.89-2.68c-1.82-2.25-3.66-4.48-5.49-6.72
		C116.61,34.54,116.52,34.38,116.37,34.16z"/>
	<path class="st20" d="M44.02,34.13c-0.35,0.58-0.69,0.98-1.03,1.39c-1.55,1.89-3.11,3.76-4.63,5.68c-1.12,1.42-2.58,2.32-4.25,2.93
		c-0.69,0.25-1.36,0.16-2.08-0.23c0.94-0.26,1.79-0.48,2.6-0.89c1.27-0.64,2.16-1.68,3.16-2.63c1.36-1.28,2.43-2.81,3.68-4.2
		C42.18,35.4,42.91,34.65,44.02,34.13z"/>
	<path class="st21" d="M50.42,33.23c-0.41,0.95-0.93,1.83-1.45,2.72c-1.14,1.95-2.09,4.01-3.43,5.84c-0.67,0.91-1.42,1.75-2.31,2.46
		c-0.56,0.44-1.2,0.7-1.94,0.62c-0.19-0.02-0.35-0.07-0.53-0.2c0.14-0.18,0.34-0.23,0.51-0.29c1.3-0.53,2.27-1.46,3.13-2.55
		c1.03-1.33,1.81-2.81,2.73-4.2c0.82-1.25,1.46-2.61,2.46-3.74C49.83,33.62,50.09,33.39,50.42,33.23z"/>
	<path class="st22" d="M110.08,33.31c0.85,0.43,1.35,1.17,1.82,1.93c1.1,1.76,2.17,3.54,3.25,5.31c1.08,1.78,2.37,3.34,4.54,4.04
		c-0.48,0.39-0.95,0.32-1.38,0.22c-0.9-0.21-1.54-0.82-2.14-1.48c-0.96-1.06-1.77-2.25-2.48-3.49c-1.18-2.06-2.31-4.15-3.46-6.23
		C110.17,33.52,110.13,33.42,110.08,33.31z"/>
	<path class="st21" d="M106.27,31.67c-0.99,0.43-1.59,0.29-2.59-0.55c0.09,0.5,0.17,0.96,0.24,1.42c0.08,0.55,0.05,1.09-0.08,1.63
		c-0.09,0.37-0.31,0.63-0.69,0.71c-0.26,0.06-0.51,0.01-0.59-0.29c-0.07-0.26,0.01-0.41,0.34-0.44c0.32-0.03,0.33-0.37,0.35-0.63
		c0.07-0.95-0.28-1.83-0.46-2.73c-0.34-1.73-1.5-3.04-2.24-4.56c-0.17-0.35-0.41-0.67-0.5-1.14c0.55,0.16,0.82,0.55,1.09,0.93
		c0.48,0.68,0.94,1.37,1.39,2.06C103.49,29.53,104.49,30.94,106.27,31.67z"/>
	<path class="st23" d="M47.31,25.67c-0.68,1.21-1.4,2.38-2.17,3.52c-0.86,1.28-1.57,2.69-2.77,3.74c-0.89,0.78-1.86,1.28-3.09,0.94
		c-0.45-0.13-0.86-0.34-1.2-0.8c0.31,0,0.58-0.05,0.82,0.01c1.23,0.27,2.21-0.21,3.08-1.01c0.83-0.76,1.38-1.74,1.99-2.66
		c0.6-0.91,1.28-1.76,1.94-2.63C46.29,26.3,46.75,25.93,47.31,25.67z"/>
	<path class="st21" d="M113.07,25.57c1.1,0.57,1.71,1.43,2.31,2.3c0.79,1.17,1.55,2.36,2.39,3.49c0.59,0.8,1.33,1.44,2.33,1.69
		c0.42,0.11,0.84,0.14,1.28,0.04c0.28-0.07,0.58-0.08,0.89-0.02c-0.61,0.82-1.79,1.12-2.85,0.73c-1.05-0.38-1.76-1.16-2.42-2
		c-0.58-0.75-1.07-1.56-1.55-2.38c-0.64-1.09-1.29-2.17-2-3.21C113.33,26.05,113.24,25.86,113.07,25.57z"/>
	<path class="st24" d="M57.21,34.8c-0.39-0.14-0.51-0.43-0.58-0.77c-0.2-0.97-0.03-1.91,0.24-2.96c-0.79,0.7-1.56,1.1-2.55,0.64
		c0.14-0.24,0.4-0.25,0.59-0.36c1.09-0.63,1.89-1.56,2.59-2.58c0.68-0.99,1.34-1.98,2.02-2.96c0.22-0.31,0.46-0.61,0.9-0.71
		c0,0.42-0.25,0.72-0.43,1.04c-0.37,0.68-0.77,1.35-1.16,2.04c-0.17,0.3-0.35,0.59-0.59,0.85c-0.49,0.52-0.55,1.23-0.69,1.89
		c-0.23,1.12-0.38,2.26-0.31,3.42C57.24,34.48,57.22,34.62,57.21,34.8z"/>
	<path class="st25" d="M106.46,45.15c-0.17,0.7-0.07,1.42-0.19,2.13c-0.16,1-0.34,1.99-0.83,2.9c-0.18,0.34-0.43,0.62-0.81,0.95
		c0.23-1,0.53-1.86,0.74-2.74c0.39-1.68,0.35-3.34,0.16-5.04c-0.23-2.03-0.75-4.01-1.05-6.02c-0.02-0.12,0-0.25,0-0.47
		c0.57,0.93,0.86,1.88,1.09,2.84c0.41,1.69,0.82,3.39,0.8,5.15c0,0.12,0,0.23,0.08,0.33C106.47,45.16,106.46,45.15,106.46,45.15z"/>
	<path class="st26" d="M43.24,33.12c0.16-0.18,0.36-0.2,0.53-0.24c1.08-0.3,1.85-0.97,2.49-1.87c0.91-1.29,1.65-2.68,2.45-4.04
		c0.28-0.47,0.57-0.93,0.97-1.32c0.16-0.16,0.31-0.34,0.58-0.36c0.05,0.21-0.05,0.37-0.14,0.52c-1.03,1.82-1.8,3.78-3,5.51
		c-0.37,0.54-0.78,1.03-1.27,1.46c-0.52,0.47-1.14,0.66-1.83,0.66C43.73,33.43,43.46,33.36,43.24,33.12z"/>
	<path class="st21" d="M117.14,33.1c-0.54,0.48-1.48,0.43-2.24-0.13c-0.76-0.56-1.3-1.32-1.81-2.1c-1.06-1.63-1.78-3.44-2.74-5.13
		c-0.07-0.13-0.11-0.27-0.2-0.52c0.53,0.19,0.82,0.54,1.08,0.9c0.68,0.94,1.19,1.99,1.79,2.99c0.47,0.79,0.95,1.55,1.51,2.28
		c0.54,0.7,1.2,1.23,2.07,1.47C116.79,32.92,117,32.94,117.14,33.1z"/>
	<path class="st25" d="M53.91,26c-0.84,1.16-1.7,2.28-2.38,3.51c-0.53,0.96-1.05,1.92-1.77,2.77c-0.33,0.4-0.7,0.76-1.17,0.99
		c-0.56,0.28-1.09,0.19-1.6-0.12c0.04-0.21,0.22-0.22,0.34-0.26c1.22-0.47,2.05-1.36,2.71-2.46c0.67-1.11,1.25-2.27,2.08-3.27
		C52.6,26.59,53.12,26.09,53.91,26z"/>
	<path class="st27" d="M106.52,26.03c0.81,0.04,1.31,0.51,1.77,1.04c0.68,0.78,1.16,1.69,1.69,2.58c0.47,0.8,0.94,1.61,1.62,2.26
		c0.55,0.53,1.24,0.81,1.92,1.14c-0.56,0.58-1.44,0.42-1.99-0.01c-0.69-0.54-1.21-1.23-1.66-1.97c-0.81-1.33-1.51-2.73-2.49-3.95
		C107.08,26.76,106.8,26.4,106.52,26.03z"/>
	<path class="st28" d="M51.15,31.92c0.06-0.18,0.2-0.31,0.35-0.41c1.48-1,2.47-2.44,3.5-3.84c0.68-0.92,1.16-1.36,1.91-1.72
		c-0.33,0.85-0.78,1.6-1.29,2.31c-0.59,0.82-1.23,1.61-1.86,2.4c-0.52,0.65-1.2,1.08-2,1.33C51.55,32.05,51.35,32.09,51.15,31.92z"
		/>
	<path class="st29" d="M103.6,25.94c1.02,0.5,1.64,1.38,2.27,2.25c0.87,1.18,1.73,2.36,2.97,3.2c0.2,0.14,0.4,0.3,0.51,0.59
		c-0.72,0.16-1.26-0.22-1.8-0.55c-0.58-0.37-0.99-0.93-1.41-1.47c-0.84-1.09-1.73-2.15-2.32-3.42
		C103.75,26.34,103.62,26.17,103.6,25.94z"/>
	<path class="st0" d="M52.85,38.76c-0.2,0.12-0.07,0.38-0.27,0.55c-0.31,0.27-0.42,0.15-0.52-0.14c-0.07-0.2-0.09-0.42-0.13-0.63
		c0.81-1.45,0.96-3.18,1.98-4.54C53.79,35.65,53.21,37.18,52.85,38.76z"/>
	<path class="st30" d="M102.53,35.79c0.35,1.1,0.21,2.19-0.12,3.27C102.49,37.97,102.44,36.88,102.53,35.79z"/>
	<path class="st31" d="M64.64,25.88c-0.14,1.08-0.26,1.26-0.91,1.4C63.9,26.75,64.23,26.36,64.64,25.88z"/>
	<path class="st32" d="M100.99,53.85c0-0.92-0.01-1.85-0.02-2.77c0-0.17,0.06-0.37-0.09-0.52c-0.01-0.08-0.02-0.17,0.07-0.22
		c0.09-0.05,0.11,0.03,0.11,0.1C101.04,51.57,101.18,52.71,100.99,53.85z"/>
	<path class="st33" d="M80.81,26.16c-1.27,0-2.54,0-3.81,0c0.45-0.17,0.92-0.08,1.38-0.08C79.19,26.08,80,26,80.81,26.16z"/>
	<path class="st34" d="M103.88,51.96c0-1.08,0-2.15,0-3.23C104.02,49.8,104.04,50.88,103.88,51.96z"/>
	<path class="st35" d="M95.79,25.85c0.31,0.27,0.55,0.59,0.74,1C95.8,26.81,95.96,26.21,95.79,25.85z"/>
	<path class="st36" d="M59.62,51.95c-0.21,0.37-0.07,0.77-0.1,1.16c-0.02,0.28-0.01,0.56-0.02,0.85c-0.19-0.79-0.03-1.6-0.11-2.5
		C59.57,51.65,59.63,51.78,59.62,51.95z"/>
	<path class="st0" d="M53.44,43.45c-0.12,0.02-0.18,0.22-0.33,0.11c-0.04-0.03-0.07-0.12-0.06-0.17c0.03-0.18,0.19-0.12,0.31-0.15
		C53.39,43.31,53.42,43.38,53.44,43.45z"/>
	<path class="st0" d="M51.33,40.88c0,0.09-0.03,0.21-0.17,0.22c-0.11,0.01-0.11-0.1-0.11-0.18c0-0.11,0.05-0.2,0.15-0.23
		C51.3,40.68,51.33,40.77,51.33,40.88z"/>
	<path class="st37" d="M84.01,28.26c2.83,0.03,5.66,0.18,8.42,0.83c2.31,0.55,4.57,1.28,6.86,1.92c0.24,0.07,0.29,0.24,0.34,0.43
		c0.27,1.03,0.36,2.1,0.42,3.16c0.1,1.96,0.01,3.93-0.2,5.88c-0.31,2.89-0.83,5.75-1.56,8.56c-1.07,4.12-2.58,8.06-4.69,11.76
		c-3.18,5.58-7.51,10.12-12.69,13.87c-0.85,0.62-0.85,0.59-1.66-0.07c-1.28-1.03-2.57-2.05-3.87-3.06
		c-1.65-1.28-3.11-2.75-4.37-4.42c-2.08-2.77-4.03-5.62-5.65-8.68c-2.49-4.69-4.18-9.65-4.87-14.93c-0.47-3.59-0.5-7.19-0.07-10.79
		c0-0.03,0-0.07,0.01-0.1c0.21-1.72-0.15-1.3,1.5-1.96c2.19-0.87,4.51-1.23,6.81-1.67c2.14-0.41,4.31-0.6,6.48-0.71
		c0.11-0.07,0.23-0.05,0.34-0.05c2.72,0,5.45,0,8.17,0C83.81,28.22,83.91,28.21,84.01,28.26z"/>
	<path class="st38" d="M84.01,28.26c-1.84,0-3.68,0.01-5.52,0.01c-1.09,0-2.19,0-3.28,0c0.12-0.11,0.28-0.1,0.42-0.1
		c2.66,0.01,5.33,0.01,7.99,0.02C83.75,28.19,83.89,28.18,84.01,28.26z"/>
	<path class="st0" d="M98.68,32.08c-0.03-0.26-0.14-0.35-0.36-0.39c-0.46-0.09-0.91-0.17-1.37-0.26c-4.49-0.93-8.98-1.79-13.57-2.1
		c-2.38-0.16-4.75-0.21-7.13-0.14c-2.69,0.08-5.36,0.46-8.03,0.81c-1.93,0.25-3.84,0.59-5.65,1.36c-0.73,0.31-1.08,0.79-1.17,1.56
		c-0.19,1.63-0.19,3.25-0.11,4.88c0.17,3.29,0.37,6.57,1.01,9.81c1.36,6.87,4.41,12.88,9.09,18.07c2.59,2.87,5.44,5.47,8.27,8.09
		c0.33,0.31,0.52,0.24,0.83,0.02c5.08-3.72,9.27-8.25,12.5-13.67c4.04-6.78,6.04-14.13,6.08-22.34
		C99.04,36.08,98.92,34.08,98.68,32.08z M66.26,39.9c-0.13,0.7,0.1,1.34,0.39,1.96c0.12,0.26,0.25,0.49,0.16,0.79
		c-0.33,1.11,0.05,2.03,0.75,2.87c0.09,0.11,0.29,0.19,0.21,0.35c-0.08,0.14-0.27,0.08-0.41,0.02c-0.74-0.32-1.43,0.04-2.13,0.19
		c-0.26,0.06-0.29,0.03-0.33-0.21c-0.23-1.66-0.34-3.32-0.51-4.99c-0.14-1.37-0.2-2.74-0.2-4.11c-0.05-0.64-0.05-1.29,0-1.93
		c0-1.01,0-1.02,0.99-1.35c0.9-0.29,1.84-0.4,2.8-0.54c-0.25,0.79-0.36,1.59-0.59,2.35c-0.17,0.55-0.55,1.04-0.62,1.65
		c-0.01,0.08-0.07,0.17-0.05,0.24C67,38.17,66.43,39,66.26,39.9z M71.88,61.68c-1.09-1.35-2.03-2.7-2.87-4.3
		c1.55,0.54,3,1.02,4.56,1.29C72.89,59.65,72.16,60.51,71.88,61.68z M88.54,61.63c-0.32-1.16-0.98-1.98-1.65-2.89
		c0.45-0.11,0.86-0.22,1.29-0.31c0.56-0.12,1.07-0.31,1.54-0.64c0.4-0.29,0.91-0.17,1.45-0.4C90.38,58.92,89.48,60.23,88.54,61.63z
		 M95.7,44.09c-0.09,0.61-0.18,1.21-0.3,1.81c-0.04,0.21-0.11,0.22-0.28,0.16c-0.91-0.31-1.82-0.29-2.75,0.11
		c-0.02-0.31,0.12-0.42,0.23-0.53c0.84-0.87,1.21-1.88,0.87-3.08c-0.06-0.22,0.02-0.39,0.11-0.56c0.43-0.87,0.76-1.81,0.28-2.71
		c-0.52-0.99-0.16-2.08-0.57-3.06c-0.04-0.09-0.02-0.23-0.09-0.28c-0.75-0.66-0.43-1.63-0.76-2.49c1.17,0.24,2.27,0.47,3.38,0.7
		c0.2,0.04,0.16,0.18,0.17,0.3C96.24,37.68,96.18,40.89,95.7,44.09z"/>
	<path class="st39" d="M92.93,52.96c0.13,0.36,0,0.59-0.27,0.76c-0.27,0.17-0.53,0.14-0.79-0.03c-0.33-0.22-0.67-0.43-1.01-0.64
		c-0.1-0.06-0.2-0.14-0.31-0.03c-0.11,0.1,0,0.18,0.03,0.27c0.07,0.2,0.16,0.4,0.24,0.6c0.16,0.4-0.01,0.65-0.37,0.79
		c-0.37,0.14-0.65,0.03-0.79-0.37c-0.1-0.28-0.2-0.55-0.35-0.96c-0.19,1.54-1.07,2.24-2.4,2.46c-1.12,0.19-2.18-0.47-2.46-1.47
		c-0.07-0.23-0.11-0.48-0.03-0.69c0.19-0.54-0.03-0.52-0.45-0.44c-0.3,0.05-0.29,0.17-0.26,0.4c0.1,0.69,0.18,1.38,0.28,2.07
		c0.06,0.42-0.14,0.63-0.53,0.68c-0.43,0.05-0.63-0.13-0.67-0.59c-0.06-0.68-0.14-1.35-0.19-2.03c-0.02-0.26-0.1-0.36-0.36-0.32
		c-0.08,0.01-0.17,0.01-0.25,0.02c-0.35,0.03-0.68-0.06-0.69-0.46c-0.01-0.4,0.31-0.49,0.65-0.53c0.71-0.06,1.42-0.14,2.13-0.22
		c0.17-0.02,0.39-0.06,0.47,0.06c0.28,0.42,0.44,0.16,0.67-0.04c0.98-0.86,2.5-0.83,3.45,0.05c0.08,0.07,0.13,0.2,0.31,0.21
		c-0.09-0.29-0.18-0.58-0.28-0.85c-0.12-0.36-0.03-0.62,0.33-0.77c0.4-0.16,0.79-0.34,1.2-0.48c0.52-0.17,1.01-0.08,1.49,0.29
		c0.03-0.64,0.26-1.12,0.74-1.47c0.42-0.31,0.89-0.52,1.43-0.5c0.26,0.01,0.54,0.02,0.57,0.35c0.03,0.31-0.16,0.5-0.45,0.58
		c-0.33,0.09-0.7,0.09-0.96,0.35c-0.12,0.12-0.26,0.25-0.18,0.43c0.09,0.19,0.3,0.14,0.44,0.09c0.4-0.12,0.76-0.32,1.17-0.42
		c0.48-0.12,0.9-0.07,1.22,0.32c0.35,0.44,0.27,0.92-0.02,1.34C95.06,52.75,94.14,53.16,92.93,52.96z"/>
	<path class="st40" d="M82.1,70.23c-0.54,0.25-1.12,0.32-1.71,0.29c-0.14-0.12-0.31-0.03-0.46-0.06c-0.11-0.02-0.3,0.08-0.33-0.09
		c-0.03-0.14,0.14-0.2,0.25-0.26c0.09-0.05,0.17-0.09,0.24-0.16c0.39-0.54,0.24-1.19-0.32-1.47c-0.39-0.19-0.76-0.41-1.1-0.67
		c-0.28-0.2-0.55-0.27-0.88-0.14c-0.42,0.15-0.87,0.19-1.26,0.42c-0.11,0.13-0.08,0.28-0.1,0.43c-0.02,0.13-0.03,0.28-0.18,0.33
		c-0.16,0.05-0.23-0.09-0.33-0.17c-0.09-0.07-0.13-0.19-0.24-0.24c-0.59-0.63-0.99-1.36-1.17-2.2c-0.06-0.09-0.04-0.19-0.04-0.28
		c0-0.15-0.11-0.34,0.08-0.43c0.22-0.1,0.29,0.13,0.42,0.24c0.44,0.34,0.74,0.81,1.08,1.24c0.24,0.31,0.51,0.41,0.87,0.27
		c0.05-0.02,0.09-0.04,0.14-0.04c0.75-0.07,1.11-0.5,1.13-1.24c0-0.03,0-0.07,0.02-0.1c0.46-0.83,0.06-1.44-0.49-2.02
		c-0.07-0.07-0.13-0.15-0.2-0.22c-0.63-0.73-0.62-0.72-1.51-0.4c-0.28,0.1-0.44,0.27-0.53,0.54c-0.08,0.25-0.12,0.52-0.27,0.75
		c-0.16,0.2-0.33,0.43-0.49,0c-0.04-0.38,0.09-0.73,0.21-1.07c0.15-0.42,0.2-0.84,0.06-1.27c-0.02-0.16-0.05-0.32,0.04-0.47
		c0.43-0.9,1.09-1.58,1.94-2.1c0.1-0.02,0.2-0.08,0.31-0.05c0.64,0.68,1.42,0.35,2.16,0.3c0.13-0.01,0.27-0.09,0.39-0.05
		c0.82,0.24,1.45-0.1,2.04-0.6c0.21-0.15,0.44-0.2,0.68-0.1c0.88,0.3,1.57,0.88,2.17,1.57c0.03,0.13,0.05,0.26,0.01,0.39
		c-0.02,0.07-0.05,0.13-0.08,0.2c-0.07,0.95-0.07,0.95-1.01,0.89c-0.4-0.03-0.82,0.15-1.2-0.11c-0.4-0.29-0.66-0.69-0.96-1.07
		c-0.21-0.26-0.46-0.42-0.79-0.47c-0.18-0.03-0.36-0.05-0.54-0.05c-1.64-0.03-2.14,0.35-2.59,1.93c-0.05,0.19,0,0.33,0.12,0.46
		c0.39,0.45,0.76,0.92,1.12,1.4c0.12,0.15,0.27,0.27,0.47,0.23c0.53-0.1,1.06-0.07,1.59-0.08c0.17,0,0.32-0.06,0.46-0.16
		c0.23-0.15,0.43-0.21,0.51,0.15c0.3,0.71,0.75,1.36,0.89,2.14c0.01,0.07,0.03,0.14,0.03,0.21c0,0.05-0.01,0.09-0.02,0.14
		c-0.23,0.47-0.72,0.72-0.97,1.17c-0.06,0.08-0.12,0.17-0.2,0.21c-0.63,0.27-0.71,0.78-0.61,1.37c0.02,0.26,0.21,0.25,0.4,0.26
		c0.21,0.01,0.43-0.02,0.63,0.03C82.15,69.95,82.31,70.02,82.1,70.23z"/>
	<path class="st41" d="M73.04,42.58c-0.24,0.32-0.46,0.66-0.85,0.81c-0.28,0.11-0.01,0.33-0.13,0.49c-0.21-0.53-0.62-0.8-1.12-0.95
		c-0.53-0.16-0.88-0.49-1.04-1.04c-0.17-0.56-0.48-1.06-0.76-1.61c1.27,0.13,1.68,1.15,2.22,2.1c-0.06-1.14-0.05-1.19-0.79-1.92
		c-0.48-0.47-0.74-0.99-0.76-1.66c-0.02-0.48-0.08-0.95-0.13-1.5c0.97,0.55,1.48,1.29,1.46,2.44c0.3-0.94,0.26-1.15-0.2-1.86
		c-0.61-0.95-0.68-1.99-0.47-3.07c0.06-0.29,0.2-0.36,0.41-0.1c0.4,0.53,0.6,1.14,0.65,1.8c0.02,0.35,0,0.7,0,1.1
		c0.21-0.44,0.39-0.84,0.58-1.23c0.08-0.17,0.06-0.32-0.01-0.48c-0.38-0.84-0.25-1.65,0.12-2.45c0.18-0.39,0.33-0.79,0.51-1.22
		c0.42,0.43,0.51,0.93,0.44,1.47c-0.07,0.52-0.31,1.01-0.42,1.53c0.42-0.46,0.89-0.84,0.87-1.6c-0.04-1.28,0.84-2.1,1.67-2.95
		c0.34,0.65,0.21,1.25-0.13,1.92c1.2-0.56,2.4-0.69,3.61-0.91c-0.14,0.77-0.8,1.39-1.76,1.64c-0.52,0.13-1.05,0.21-1.58,0.17
		c-0.51-0.04-0.91,0.07-1.26,0.61c1.2-0.43,2.29-0.41,3.37,0.36c-0.96,0.07-1.79,0.53-2.72,0.38c-0.16-0.03-0.33-0.06-0.48-0.12
		c-0.73-0.28-0.74-0.28-1.21,0.36c-0.16,0.21-0.29,0.44-0.49,0.73c0.46-0.1,0.78-0.33,1.13-0.48c0.63-0.27,1.26-0.44,1.92-0.11
		c0.08,0.04,0.2,0.11,0.21,0.18c0.03,0.12-0.11,0.15-0.19,0.19c-0.48,0.25-0.99,0.48-1.46,0.76c-0.51,0.31-1.01,0.13-1.5,0.04
		c-0.33-0.06-0.5,0.04-0.62,0.33c-0.15,0.38-0.33,0.75-0.42,1.3c0.91-0.88,1.76-1.65,3.22-1.31c-0.78,0.33-1.19,0.9-1.72,1.33
		c-0.4,0.32-0.89,0.44-1.4,0.46c-0.21,0.01-0.28,0.07-0.3,0.29c-0.03,0.56-0.1,1.12-0.12,1.72c0.49-1.17,1.19-2.08,2.6-2.22
		c-0.3,0.68-0.54,1.36-1.04,1.9c-0.32,0.35-0.7,0.63-1.18,0.7c-0.32,0.05-0.41,0.2-0.36,0.5c0.09,0.54,0.24,1.05,0.44,1.58
		c0.15-1.23,0.49-2.33,1.79-2.91c-0.1,0.86-0.32,1.64-0.54,2.41C73.1,42.54,73.08,42.57,73.04,42.58z"/>
	<path class="st42" d="M73.04,42.58c0.02-0.03,0.04-0.06,0.05-0.09c0.27-0.24,0.4-0.61,0.82-0.8c-0.1,1.21,0.25,2.46-0.65,3.49
		c-0.09,0.1-0.15,0.2-0.04,0.34c0.33,0.46,0.7,0.88,1.24,1.24c-0.19-1.19-0.84-2.34,0.11-3.48c0.23,0.58,0.46,1.09,0.65,1.61
		c0.19,0.51,0.11,1.01-0.09,1.51c-0.28,0.7-0.26,0.71,0.39,1.06c0.27,0.15,0.55,0.29,0.94,0.5c-0.55-1.11-1.5-2.04-0.67-3.45
		c0.17,0.77,0.63,1.24,0.96,1.79c0.27,0.45,0.29,0.95,0.24,1.45c-0.04,0.37,0.12,0.52,0.44,0.59c0.44,0.09,0.87,0.2,1.48,0.21
		c-0.93-0.82-1.98-1.44-1.78-2.87c1.01,0.68,2.05,1.28,2.21,2.63c0.03,0.28,0.16,0.37,0.42,0.34c0.05-0.01,0.1,0,0.15,0
		c0.86,0.01,0.84,0,1.1-0.78c0.35-1.07,1.2-1.66,2.17-2.22c0.04,0.85-0.16,1.52-0.83,2.01c-0.36,0.27-0.75,0.5-0.99,0.93
		c0.26,0.01,0.49-0.12,0.74-0.05c-0.13,0.14-0.24,0.24,0.08,0.24c0.46,0,0.93,0,1.38,0.15c0.51,0.16,0.92,0.45,1.28,0.99
		c-1.28-0.07-2.52,0.12-3.52-0.81c-0.22-0.21-0.46-0.3-0.81-0.15c0.24,0.25,0.46,0.47,0.66,0.7c0.07,0.08,0.28,0.17,0.12,0.3
		c-0.14,0.11-0.28,0-0.36-0.15c-0.1-0.21-0.23-0.4-0.4-0.57c-0.28-0.28-0.5-0.3-0.79,0.01c-0.22,0.25-0.36,0.6-0.75,0.76
		c-0.02-0.55,0.47-0.71,0.7-1.08c-0.37-0.11-0.57,0.13-0.79,0.3c-1.04,0.79-2.19,1.03-3.5,0.72c0.56-0.92,1.3-1.4,2.38-1.26
		c-0.51-0.22-0.98-0.51-1.54-0.07c-0.37,0.29-0.86,0.21-1.31,0.14c-0.69-0.11-1.34-0.36-2.16-0.43c1.06-0.77,2.08-0.7,3.14-0.37
		c-0.57-0.46-1.1-0.91-1.93-0.67c-0.57,0.17-1.13,0.06-1.64-0.35c-0.43-0.35-0.94-0.61-1.48-0.96c0.6-0.2,1.11-0.21,1.63-0.08
		c0.52,0.13,0.94,0.46,1.47,0.71c-0.6-0.78-1.18-1.44-2.23-1.34c-0.35,0.03-0.62-0.17-0.85-0.44c-0.41-0.49-0.85-0.96-1.31-1.49
		c1.41-0.22,2.12,0.68,2.86,1.57c0.1-0.22-0.09-0.34-0.07-0.52c0.17,0.17,0.23,0.4,0.5,0.54C72.89,44.14,72.84,43.35,73.04,42.58z"
		/>
	<path class="st43" d="M89.11,39.64c0.06-0.27,0.12-0.54,0.2-0.81c0.09-0.32,0.22-0.63,0.45-0.88c0.22-0.24,0.47-0.64,0.77-0.53
		c0.22,0.08,0.01,0.53-0.02,0.81c-0.01,0.12-0.02,0.23-0.02,0.35c-0.03,0.83-0.26,1.56-1.01,2.04c-0.55,0.36-0.43,1-0.55,1.54
		c0.42-0.99,1.09-1.68,2.24-1.91c-0.28,0.66-0.53,1.27-0.81,1.88c-0.17,0.37-0.48,0.6-0.86,0.71c-0.6,0.18-1.07,0.51-1.33,1.1
		c-0.09-0.45-0.56-0.66-0.69-0.9c0.12,0.47,0.05,1.12,0.04,1.7c0.14-0.28,0.2-0.66,0.63-0.78c-0.05,0.14-0.09,0.28-0.19,0.59
		c0.78-0.88,1.61-1.29,2.76-1.21c-0.78,0.95-1.35,2.06-2.71,2.11c-0.82,0.03-1.2,0.6-1.63,1.16c0.92-0.62,1.88-0.99,3.13-0.58
		c-0.68,0.23-1.09,0.63-1.55,0.98c-0.43,0.33-0.95,0.48-1.46,0.33c-0.79-0.25-1.33,0.19-1.91,0.58c1.02-0.35,1.95-0.15,2.99,0.45
		c-0.93,0.01-1.56,0.58-2.38,0.58c-0.8,0-1.49-0.46-2.42-0.51c0.55-0.19,0.55-0.47,0.41-0.84c-0.16-0.43,0-0.86,0.22-1.24
		c0.35-0.58,0.73-1.14,1.1-1.72c0.56,0.86,0.47,1.28-0.71,3.32c0.63-0.15,1.08-0.5,1.53-0.83c0.18-0.13-0.01-0.27-0.06-0.4
		c-0.41-1.2-0.15-2.3,0.43-3.43c0.7,1.16,0.54,2.28,0.02,3.49c0.6-0.36,0.96-0.77,1.3-1.2c0.14-0.18,0.09-0.3-0.04-0.43
		c-0.65-0.65-0.88-1.42-0.67-2.33c0.08-0.35,0.08-0.71,0.05-1.09c0.36,0.02,0.49,0.3,0.78,0.54c-0.17-0.77-0.32-1.45-0.49-2.19
		c1.3,0.54,1.49,1.7,1.75,2.89c0.39-0.61,0.41-1.22,0.48-1.81c0.02-0.15-0.09-0.21-0.21-0.23c-0.98-0.17-1.47-0.89-1.91-1.68
		c-0.17-0.3-0.33-0.6-0.52-0.95c0.77,0.01,1.32,0.32,1.73,0.9c0.29,0.41,0.56,0.83,0.83,1.24c0.27-0.07,0.1-0.28,0.14-0.42
		C88.99,39.9,88.82,39.67,89.11,39.64z"/>
	<path class="st44" d="M76.2,56.24c-0.48-0.01-1-0.02-1.41-0.24c-0.34-0.18-0.62-0.22-1.01-0.22c-0.73-0.01-1.46-0.26-2.15-0.55
		c-0.26-0.11-0.38-0.34-0.29-0.61c0.3-0.95,0.62-1.89,0.93-2.83c0.09-0.28,0.31-0.4,0.59-0.34c0.6,0.14,1.21,0.25,1.77,0.49
		c0.3,0.13,0.5,0.21,0.85,0.19c0.7-0.04,1.42,0.12,2.03,0.54c0.75,0.52,1.1,1.35,0.89,2.15c-0.19,0.76-0.91,1.31-1.81,1.4
		C76.47,56.24,76.33,56.24,76.2,56.24z"/>
	<path class="st45" d="M82.72,43.78c-1.79-0.04-2.98-0.97-3.37-2.36c-0.37-1.3,0.21-2.77,1.38-3.51c1.17-0.75,2.7-0.63,3.75,0.27
		c0.45,0.39,0.53,0.8,0.23,1.17c-0.29,0.36-0.71,0.36-1.18,0c-0.61-0.47-1.31-0.53-1.95-0.16c-0.61,0.35-0.88,0.94-0.78,1.69
		c0.08,0.62,0.59,1.16,1.26,1.33c0.52,0.12,0.98-0.01,1.4-0.34c0.14-0.11,0.29-0.25,0.46-0.29c0.35-0.09,0.67,0.02,0.85,0.35
		c0.19,0.33,0.13,0.65-0.14,0.91C83.99,43.46,83.23,43.79,82.72,43.78z"/>
	<path class="st46" d="M75.59,40.56c0-0.75-0.01-1.5,0-2.25c0.01-0.59,0.27-0.84,0.86-0.85c0.67-0.01,1.33-0.01,2,0
		c0.52,0.01,0.86,0.32,0.86,0.77c0,0.46-0.32,0.78-0.83,0.8c-0.37,0.02-0.73,0.02-1.1,0c-0.42-0.02-0.26,0.29-0.28,0.49
		c-0.02,0.19-0.06,0.41,0.28,0.38c0.25-0.02,0.5-0.01,0.74,0.04c0.39,0.08,0.61,0.34,0.58,0.75c-0.03,0.39-0.29,0.57-0.65,0.65
		c-0.02,0-0.03,0-0.05,0c-0.29,0.04-0.7-0.14-0.85,0.09c-0.14,0.23-0.05,0.61-0.06,0.92c0,0.2,0.01,0.4,0,0.6
		c-0.03,0.44-0.37,0.78-0.76,0.78c-0.4-0.01-0.74-0.35-0.75-0.79C75.58,42.16,75.59,41.36,75.59,40.56z"/>
	<path class="st47" d="M86.68,34.27c0.01,0.02,0.02,0.04,0.02,0.06c0.03,0.11-0.01,0.15-0.12,0.13c-0.12,0.04-0.26,0.06-0.37,0.13
		c-1.16,0.77-2.21,0.2-3.31-0.2c0.95-0.92,1.99-0.74,3.15-0.35c-0.29-0.42-0.55-0.55-0.95-0.54c-1.43,0.05-2.71-0.26-3.57-1.55
		c-0.04-0.07-0.12-0.12-0.09-0.22c1.02-0.09,2.9,0.45,3.89,1.17c-0.21-0.42-0.44-0.73-0.5-1.1c-0.07-0.37-0.06-0.76,0.18-1.16
		c0.57,0.71,1.34,1.19,1.6,2.09C86.71,33.25,86.57,33.77,86.68,34.27z"/>
	<path class="st48" d="M68.79,51.1c0.04-0.03,0.09-0.06,0.11-0.1c0.53-0.89,0.53-0.89,1.52-0.47c0.49,0.2,1,0.36,1.28,0.87
		c0.4,0.73,0.16,1.45-0.63,1.72c-0.2,0.07-0.28,0.1-0.2,0.33c0.08,0.22,0.1,0.45,0.17,0.67c0.1,0.3,0.12,0.6-0.23,0.7
		c-0.36,0.11-0.73,0.03-0.86-0.37c-0.14-0.41-0.21-0.84-0.31-1.25c-0.03-0.12-0.01-0.31-0.17-0.33c-0.19-0.03-0.21,0.18-0.27,0.3
		c-0.07,0.15-0.12,0.31-0.19,0.46c-0.17,0.42-0.48,0.48-0.85,0.3c-0.36-0.17-0.44-0.44-0.27-0.82c0.27-0.59,0.63-1.13,0.77-1.77
		C68.63,51.22,68.66,51.14,68.79,51.1z"/>
	<path class="st49" d="M80.29,52.54c0.29-0.01,0.44,0.17,0.56,0.41c0.48,0.93,0.99,1.84,1.55,2.71c0.17,0.27,0.27,0.52-0.05,0.73
		c-0.31,0.2-0.76,0.23-0.88-0.1c-0.3-0.81-0.92-0.61-1.51-0.65c-0.36-0.03-0.55,0.12-0.68,0.42c-0.14,0.35-0.4,0.52-0.78,0.46
		c-0.42-0.06-0.6-0.4-0.38-0.76c0.58-0.95,1.15-1.89,1.65-2.89C79.88,52.66,80.05,52.53,80.29,52.54z"/>
	<path class="st50" d="M68.79,51.1c-0.04,0.08-0.08,0.16-0.12,0.24c-0.67,0.55-1.36,0.55-2.06,0.08c-0.33-0.22-0.52-0.14-0.67,0.19
		c-0.06,0.14-0.15,0.26-0.23,0.39c-0.22,0.37-0.51,0.38-0.84,0.17c-0.32-0.21-0.46-0.48-0.22-0.83c0.53-0.8,1.05-1.61,1.58-2.41
		c0.18-0.28,0.44-0.35,0.73-0.19c0.42,0.23,0.85,0.46,1.23,0.74C68.75,49.87,68.91,50.44,68.79,51.1z"/>
	<path class="st51" d="M88.8,38.74c-0.02-0.15-0.12-0.18-0.25-0.18c-1.36-0.02-2.24-0.85-3.08-1.84c1.35-0.32,2.2,0.48,3.07,1.31
		c0.07-0.38-0.16-0.61-0.13-0.92c0.19,0.15,0.2,0.38,0.36,0.62c0.11-1.18-0.33-2.47,0.97-3.25c-0.21,0.86,0.08,1.7,0.03,2.55
		c-0.02,0.39-0.22,0.72-0.49,1.01c-0.14,0.15-0.37,0.25-0.38,0.5C88.93,38.64,88.99,38.75,88.8,38.74z"/>
	<path class="st52" d="M87.5,34.96c-0.47-0.91-0.37-1.82,0.05-2.84c0.17,0.66,0.47,1.16,0.73,1.67c0.28,0.54,0.24,1.09,0,1.63
		c-0.16,0.37-0.31,0.74-0.04,1.22c-0.24-0.09-0.3-0.33-0.55-0.24c-1.31,0.42-2.33-0.26-3.37-0.93c0.83-0.46,1.79-0.37,2.87,0.25
		c0.11,0.06,0.2,0.23,0.33,0.11c0.12-0.11-0.08-0.23-0.07-0.35C87.49,35.3,87.59,35.14,87.5,34.96z"/>
	<path class="st40" d="M85.69,66.91c-0.16,0.5-0.45,0.93-0.81,1.31c-0.22,0.11-0.29-0.06-0.29-0.2c-0.01-0.46-0.1-0.91-0.11-1.36
		c0.54-0.62,0.75-1.41,1.05-2.15c0.08-0.11,0.17-0.21,0.32-0.24c0.06,0,0.11,0.02,0.16,0.05c0.21,0.62,0.05,1.23-0.1,1.83
		C85.84,66.41,85.77,66.66,85.69,66.91z"/>
	<path class="st53" d="M84.58,66.61c0.05,0.51,0.09,1.01,0.15,1.52c0,0.04,0.1,0.07,0.15,0.1c-0.67,1.03-1.62,1.66-2.78,2.01
		c0.04-0.13,0.04-0.22-0.14-0.22c-0.26,0.01-0.52,0-0.78,0c-0.29,0-0.42-0.13-0.37-0.42c1.3,0.38,2.72-0.13,3.5-1.24
		c0.21-0.3,0.17-0.64,0.13-0.96c-0.02-0.22-0.21-0.22-0.38-0.23c-0.7-0.03-1.41-0.09-1.89,0.61c-0.1,0.14-0.26,0.28-0.47,0.18
		c0.24-0.46,0.71-0.71,1-1.13c0.28,0.02,0.55-0.02,0.83,0c-0.28-0.02-0.55,0.02-0.83,0c-0.02-0.08-0.05-0.15-0.07-0.23
		C83.28,66.4,83.93,66.38,84.58,66.61z"/>
	<path class="st54" d="M74.8,64.5c0.21,0.48,0.19-0.16,0.32-0.07c0.17,0.52,0.06,1-0.17,1.47c-0.19-0.03-0.17-0.26-0.35-0.34
		c-0.17,0.2-0.05,0.45-0.1,0.67c-0.52-1.58-0.3-3.08,0.51-4.51c0.03,0.14,0.06,0.28,0.09,0.42c-0.19,0.84-0.48,1.67-0.48,2.53
		c-0.05,0.08,0.06,0.06,0,0.03c-0.01-0.01,0-0.02,0.01-0.05C74.65,64.57,74.7,64.51,74.8,64.5z"/>
	<path class="st55" d="M82.54,59.12c-0.25-0.05-0.43,0.11-0.62,0.21c-1.34-0.46-2.65-0.39-3.94,0.16c-0.2,0.09-0.39,0.27-0.64,0.14
		c-0.13-0.01-0.25-0.01-0.38-0.02C78.72,58.46,80.59,58.29,82.54,59.12z"/>
	<path class="st56" d="M85.69,66.91c0.02-0.72,0.43-1.38,0.3-2.12c-0.03-0.16,0.04-0.33-0.09-0.47c-0.18-0.14-0.15-0.36-0.18-0.55
		c-0.14-0.83-0.43-1.58-0.88-2.29c-0.09-0.14-0.2-0.27-0.15-0.45c-0.07-0.12-0.05-0.23,0.02-0.34
		C86.21,62.27,86.62,64.89,85.69,66.91z"/>
	<path class="st57" d="M80.2,70c-0.06,0.27-0.37,0.18-0.51,0.37c0.23,0.14,0.52-0.07,0.71,0.16c-1.92,0.07-3.5-0.6-4.73-2.1
		c0.57,0.35,0.57,0.35,0.64-0.33c0.01-0.06,0.05-0.11,0.08-0.17c0.08,0.07,0.13,0.16,0.13,0.26c-0.05,0.6,0.35,0.88,0.78,1.15
		c0.58,0.37,1.21,0.58,1.88,0.72C79.54,70.13,79.85,69.86,80.2,70z"/>
	<path class="st58" d="M88.13,43.97c-0.23,0.33-0.45,0.67-0.74,1.09c0.01-0.83,0.1-1.57-0.08-2.32c0.14,0.51,1.06,0.46,0.84,1.21
		C88.15,43.94,88.13,43.97,88.13,43.97z"/>
	<path class="st59" d="M87.5,34.96c0.05,0.18,0.4,0.38-0.05,0.51c-0.29-0.33-0.58-0.67-0.87-1c0.04-0.04,0.08-0.08,0.12-0.13
		c0.26,0.18,0.41,0.47,0.62,0.7C87.47,35.2,87.49,35.11,87.5,34.96z"/>
	<path class="st60" d="M88.8,38.74c0.03-0.07,0.07-0.13,0.1-0.2c0.07,0.37,0.14,0.73,0.21,1.1c-0.2,0.19-0.08,0.44-0.12,0.66
		c-0.02,0.1,0.06,0.33-0.19,0.17c0.22-0.44,0.05-0.89,0.05-1.34C88.84,39,88.81,38.87,88.8,38.74z"/>
	<path class="st61" d="M64.2,34.85c0,0.64,0,1.29,0,1.93C64.07,36.13,64.07,35.49,64.2,34.85z"/>
	<path class="st59" d="M86.68,34.27c-0.19-0.5-0.06-1.02-0.08-1.53C86.79,33.25,86.64,33.77,86.68,34.27z"/>
	<path class="st62" d="M86.87,52.62c0.69-0.01,1.21,0.44,1.22,1.04c0.01,0.62-0.63,1.17-1.36,1.19c-0.67,0.01-1.15-0.41-1.17-1.02
		C85.55,53.14,86.11,52.62,86.87,52.62z"/>
	<path class="st63" d="M92.04,51.3c0.56,0.42,1.08,0.36,1.6,0.2c0.24-0.07,0.46-0.17,0.7-0.25c0.13-0.04,0.29-0.18,0.4-0.01
		c0.13,0.19-0.07,0.29-0.18,0.41c-0.28,0.29-0.63,0.34-1,0.3c-0.73-0.09-0.94,0.07-1.01,0.79c-0.26-0.15-0.65-0.23-0.7-0.49
		C91.8,52,92.11,51.72,92.04,51.3z"/>
	<path class="st64" d="M90.2,52.09c-0.19-0.06-0.26-0.24-0.23-0.38c0.08-0.32,0.4-0.31,0.66-0.37c0.18-0.04,0.31,0.08,0.27,0.26
		C90.82,51.97,90.45,51.94,90.2,52.09z"/>
	<path class="st65" d="M81.39,64.32c-0.12,0.18-0.3,0.17-0.49,0.17c-0.53,0.01-1.06-0.01-1.59,0.12c-0.2,0.05-0.38,0.02-0.52-0.17
		c-0.42-0.56-0.85-1.1-1.3-1.64c-0.16-0.19-0.15-0.32-0.04-0.52c0.26-0.48,0.53-0.96,0.75-1.46c0.11-0.25,0.29-0.35,0.53-0.39
		c0.23-0.04,0.46-0.08,0.69-0.1c1.06-0.1,2.03-0.01,2.59,1.08c0.1,0.2,0.31,0.34,0.46,0.51c0.14,0.11,0.07,0.25,0.02,0.35
		C82.13,62.98,81.88,63.71,81.39,64.32z"/>
	<path class="st0" d="M84.58,66.61c-0.65,0-1.3-0.01-1.96-0.01c-0.17-0.78-0.58-1.45-0.91-2.16c0.17-0.74,0.59-1.36,0.92-2.03
		c0.07-0.15,0.19-0.23,0.39-0.24c0.36-0.02,0.72-0.03,1.09,0.02c0.15,0.02,0.3,0.05,0.4,0.17c0.49,0.57,0.86,1.22,1.1,1.93
		c0.03,0.08,0.01,0.16-0.02,0.24c-0.12,0.64-0.4,1.22-0.7,1.8C84.83,66.46,84.75,66.58,84.58,66.61z"/>
	<path class="st66" d="M74.95,65.9c0.06-0.49,0.11-0.98,0.17-1.47c0.09-0.27,0.19-0.53,0.26-0.8c0.07-0.27,0.23-0.4,0.49-0.49
		c1.09-0.34,1.05-0.32,1.85,0.55c0.64,0.7,0.95,1.35,0.62,2.36c-0.23,0.7-0.42,1.16-1.23,1.29c-0.79,0.13-0.77,0.2-1.3-0.44
		C75.53,66.57,75.32,66.17,74.95,65.9z"/>
	<path class="st67" d="M80.2,70c-1.12,0.36-3.01-0.2-3.7-1.11c-0.21-0.28-0.1-0.64-0.11-0.96c0.59-0.16,1.19-0.44,1.78-0.44
		c0.6,0,1.03,0.59,1.59,0.84c0.2,0.09,0.52,0.08,0.58,0.33c0.09,0.37,0.08,0.76,0.11,1.14C80.45,69.95,80.25,69.9,80.2,70z"/>
	<path class="st68" d="M81.7,67.95c0.11-0.08,0.25-0.13,0.31-0.23c0.59-0.92,1.51-0.7,2.37-0.72c0.08,0,0.21,0.01,0.2,0.1
		c-0.01,0.44,0.19,0.92-0.13,1.29c-0.56,0.67-1.28,1.15-2.09,1.48c-0.46,0.18-1.32,0.02-1.55-0.27
		C80.52,68.73,81.13,68.35,81.7,67.95z"/>
	<path class="st69" d="M77.33,59.64c1.33-0.71,2.74-0.93,4.22-0.59c0.13,0.03,0.45-0.06,0.37,0.28c-0.59,0.56-1.26,0.81-2.1,0.66
		c-0.49-0.08-1.01,0.05-1.52,0.16C77.85,60.25,77.54,60.01,77.33,59.64z"/>
	<path class="st56" d="M85.59,64.52c-0.25-0.61-0.55-1.2-0.9-1.76c-0.26-0.42-0.59-0.56-1.09-0.58c-0.59-0.02-0.89,0.18-1.11,0.71
		c-0.21,0.53-0.45,1.06-0.78,1.54c0.02-0.39-0.18-0.18-0.32-0.11c0.3-0.63,0.6-1.25,0.89-1.88c0.07-0.16,0.21-0.3,0.19-0.5
		c0.25,0.14,0.51,0.17,0.78,0.12c0.11-0.02,0.23-0.02,0.34-0.03c0.28-0.01,0.58,0.24,0.81,0.03c0.21-0.2,0.04-0.54,0.1-0.81
		c0.01-0.04,0.05-0.08,0.08-0.12c0.05,0.04,0.11,0.1,0.1,0.16c-0.05,0.7,0.4,1.19,0.72,1.74c0.23,0.39,0.47,0.79,0.39,1.28
		C85.76,64.41,85.7,64.48,85.59,64.52z"/>
	<path class="st70" d="M85.8,64.31c-0.08-0.59-0.37-1.1-0.72-1.54c-0.4-0.5-0.53-1.03-0.49-1.63c0.04-0.03,0.07-0.06,0.11-0.09
		c0.71,0.98,1.17,2.06,1.21,3.29C85.87,64.32,85.83,64.31,85.8,64.31z"/>
	<path class="st71" d="M74.8,64.5c-0.16,0.19-0.02,0.46-0.25,0.72c-0.1-1.13,0.03-2.13,0.55-3.07c0.2,0.57,0.06,1.1-0.15,1.63
		C74.86,64.01,74.85,64.26,74.8,64.5z"/>
	<path class="st72" d="M74.94,52.67c-0.19,0.92-0.36,1.75-0.55,2.65c-0.36-0.56-0.95-0.51-1.44-0.67c-0.18-0.06-0.33-0.09-0.25-0.36
		c0.07-0.25,0.19-0.25,0.4-0.19c0.24,0.07,0.47,0.16,0.73,0.14c0.23-0.01,0.38-0.12,0.44-0.33c0.06-0.2-0.08-0.35-0.23-0.45
		c-0.19-0.14-0.43-0.16-0.65-0.22c-0.17-0.04-0.38-0.05-0.29-0.37c0.08-0.28,0.19-0.31,0.45-0.25
		C73.97,52.72,74.41,52.97,74.94,52.67z"/>
	<path class="st19" d="M76.1,55.26c-0.41,0.09-0.48-0.14-0.4-0.53c0.08-0.41,0.15-0.82,0.19-1.23c0.04-0.36,0.2-0.38,0.5-0.29
		c0.64,0.2,1,0.68,0.91,1.24C77.23,54.96,76.79,55.26,76.1,55.26z"/>
	<path class="st73" d="M70.37,52.16c-0.17-0.14-0.55-0.04-0.53-0.42c0.01-0.13,0.05-0.39,0.29-0.28c0.25,0.11,0.64,0.12,0.65,0.5
		C70.79,52.15,70.57,52.18,70.37,52.16z"/>
	<path class="st74" d="M80.49,54.61c-0.14,0.08-0.28,0.08-0.42,0c0.03-0.16,0.09-0.31,0.21-0.43
		C80.42,54.29,80.46,54.44,80.49,54.61z"/>
	<path class="st75" d="M67.07,49.93c0.24,0.14,0.57,0.2,0.64,0.54c0.04,0.2-0.14,0.29-0.27,0.26c-0.27-0.07-0.59-0.14-0.68-0.45
		C66.73,50.18,66.84,49.95,67.07,49.93z"/>
	<path class="st40" d="M82.7,66.82c0.44-0.18,0.88-0.08,1.33-0.01C83.58,66.91,83.14,67.01,82.7,66.82L82.7,66.82z"/>
</g>
<g>
	<path class="st3" d="M87.37,22.56c0.54-1.16,1.12-2.23,1.84-3.39c0.15,1.42,0.84,2.51,1.43,3.72
		C89.51,22.77,88.47,22.67,87.37,22.56z"/>
	<path class="st3" d="M69.88,22.83c0.41-0.82,0.76-1.54,1.15-2.34c0.38,0.73,0.83,1.36,1.12,2.15C71.4,22.7,70.69,22.76,69.88,22.83
		z"/>
</g>
<g>
</g>
<g>
</g>
<g>
</g>
<g>
</g>
<g>
</g>
<g>
</g>
</svg>
