<?xml version="1.0" encoding="UTF-8"?>
<svg id="Layer_1" xmlns="http://www.w3.org/2000/svg" version="1.1" viewBox="0 0 415.5 100">
  <!-- Generator: Adobe Illustrator 29.8.4, SVG Export Plug-In . SVG Version: 2.1.1 Build 6)  -->
  <defs>
    <style>
      .st0 {
        fill: #1b4265;
      }

      .st1 {
        fill: #e29f63;
      }

      .st2 {
        fill: #e98a33;
      }

      .st3 {
        fill: #ec8a33;
      }

      .st4 {
        fill: #1a4165;
      }
    </style>
  </defs>
  <g>
    <path class="st4" d="M9.1,43c0,0,.7-.2.9-.2.6.2,5.1,4.8,5.9,5.7,1.8,1.9,4.3,5.2,6.2,6.8s2.2,1.3,2.2-.2c-3.6-4.8-7.8-9.2-11.7-13.8-.5-1.1,0-2.1,1.3-1.6,4.2,4.8,10,8.9,14.1,13.8s2.7,4.1,2.4,7.2-1.5,3.4-.2,5.7l20,22c.3,0,3.9-3.9,4.5-4.5,5.9-6.4,11.6-13,17.4-19.5,1-1.7-.3-3.3-.5-4.8-1.6-11.9,14.7-25.7,24-17.7s-3.2,26.4-14.8,25.8-3.4-1.5-5.5-.1c-7.1,7.3-13.5,15.3-20.5,22.7s-4.3,5-8.5.6c-5.9-6-11.1-12.8-16.9-18.9s-2.9-3.1-3.8-3.3c-1.9-.4-3.6.5-5.3.5-4.6,0-8.2-5.7-10.9-9s-4.8-6.1-7.2-9.2c-.4-.8-.1-1.5.8-1.4s10.7,11.1,12.4,12.6c.8.6,2.1.7,2-.5l-11.8-13.8c-.4-.7.1-1.7.9-1.7s11.2,11.6,12.8,13.1c3.1.8,1.1-1.8.2-3-2.8-3.4-7.6-7.8-9.8-11.2s-.7-1.5-.4-2Z"/>
    <path class="st3" d="M21.9,41.6c1.4-6.9,7.5-14.1,13.6-17.5,14-7.7,32.1-3.4,40.3,10.6.6,1,2.6,4.6,2.2,5.5s-3,2.8-3.3,2.6c-5.3-16.9-25.4-23.6-39.9-13s-6.2,6.8-8.7,11.9c-.7,2.7-1.4,4.8-3.8,1.8s-.8-1.1-.5-1.8Z"/>
    <path class="st0" d="M65.6,21.7l-4.2-1.7c1.7-12.9-17.2-17.4-21.6-5.4s-.5,4.8-.8,5.2c-.4.6-3.4,1.3-4.1,2v-5.5c0-.8,1.4-4.3,1.9-5.2,5.6-10,21.5-10,26.9.2s1.8,4.4,1.8,5.3v5.2Z"/>
    <path class="st1" d="M26.1,41.6l-1,4.3c-1-.6-3.6-2.4-3.6-3.6s.3-.6.3-.7c-.4,1.1,1.6,2.8,2.4,2.8s1.4-2,1.8-2.8Z"/>
    <path class="st2" d="M66.7,40.1c-3.3-6.3-11.4-7-16.5-2.5-2.6-2.4-6.1-3.3-9.6-2.7-2.5.4-5.4,2.9-6.6,5-5.6,10.2,6.2,22,13.8,27.4,1.1.8,1.7,1.6,3.2,1.3.7-.1,6-4.5,6.9-5.3,5.9-5.4,13.3-14.7,8.9-23.1ZM50.4,63.7c-5.6-4.1-14.2-11.5-13.5-19.1.2-2.6,2.2-5,4.8-5.5,1.6-.3,3.1,0,4.4.8,1.3.9,2.7,3.8,3.8,3.9,1.8.3,2.8-2.4,4.1-3.6,2.5-2.1,6.2-1.7,8.2.9,5.8,7.3-6.3,18.5-11.8,22.5Z"/>
  </g>
  <g>
    <path class="st3" d="M110.3,33h23.6v5.2h-18.9v46.8h-4.7v-52ZM117.6,57.2v-16h16.2v5.2h-11.5v5.5h11.1v5.2h-15.8ZM122.4,85h-4.8v-24.9h15.8v5.2h-11.1v19.7Z"/>
    <path class="st3" d="M160.3,85c-13.8,0-23.6-10.7-23.6-26.1s9.8-26,23.6-26h1.9c13.7,0,23.6,10.6,23.6,26s-9.8,26.1-23.6,26.1h-1.9ZM160.3,79.8h1.9c10.9,0,18.9-8.3,18.9-20.8s-8-20.7-18.9-20.7h-1.9c-11,0-19,8.3-19,20.7s8,20.8,19,20.8ZM160.3,76.9c-9.2,0-16.3-6.9-16.3-17.9s7.1-17.9,16.3-17.9h1.9c9.2,0,16.2,6.9,16.2,17.9s-7,17.9-16.2,17.9h-1.9ZM162.1,71.7c6.8,0,11.6-4.4,11.6-12.7s-4.8-12.6-11.6-12.6h-1.9c-6.9,0-11.6,4.3-11.6,12.6s4.8,12.7,11.6,12.7h1.9Z"/>
    <path class="st3" d="M212.2,85c-13.8,0-23.6-10.7-23.6-26.1s9.8-26,23.6-26h1.9c13.7,0,23.6,10.6,23.6,26s-9.8,26.1-23.6,26.1h-1.9ZM212.2,79.8h1.9c10.9,0,18.9-8.3,18.9-20.8s-8-20.7-18.9-20.7h-1.9c-11,0-19,8.3-19,20.7s8,20.8,19,20.8ZM212.2,76.9c-9.2,0-16.3-6.9-16.3-17.9s7.1-17.9,16.3-17.9h1.9c9.2,0,16.2,6.9,16.2,17.9s-7,17.9-16.2,17.9h-1.9ZM214.1,71.7c6.8,0,11.6-4.4,11.6-12.7s-4.8-12.6-11.6-12.6h-1.9c-6.9,0-11.6,4.3-11.6,12.6s4.8,12.7,11.6,12.7h1.9Z"/>
    <path class="st3" d="M279.2,65.7c0,12.1-8.1,20-18.9,20s-18.6-7.9-18.6-20,8.1-20,18.6-20h6.9v-12.7h4.7v17.6h-11.5c-8.3,0-14.1,6.2-14.1,15.2s5.9,15.2,14.1,15.2,14.1-6.3,14.1-15.2v-32.8h4.7v32.8ZM271.9,53.4v12.3c0,6.9-4.8,12.3-11.4,12.3s-11.7-5.5-11.7-12.3,5.1-12.3,11.5-12.3h11.5ZM267.2,58.6h-6.9c-4.7,0-6.9,2.7-6.9,7.1s2.3,7.1,6.9,7.1,6.9-2.7,6.9-7.1v-7.1Z"/>
    <path class="st4" d="M286.4,33h4.8v52h-4.8v-52ZM314.9,57.4h-21.1v-24.4h4.7v19.2h11.7v-19.2h4.8v24.4ZM293.8,60.4h21.1v24.6h-4.8v-19.4h-11.7v19.4h-4.7v-24.6ZM322.3,85h-4.8v-52h4.8v52Z"/>
    <path class="st4" d="M367.3,63.9c0,13.5-7.6,21.8-19.4,21.8s-19.4-8.3-19.4-21.8v-31h4.7v31c0,11.3,6.6,16.5,14.7,16.5s14.7-5.2,14.7-16.5v-31h4.8v31ZM359.9,63.9c0,9.4-5.4,13.6-12,13.6s-12.1-4.1-12.1-13.6v-31h4.7v31c0,6.1,3,8.9,7.4,8.9s7.3-2.8,7.3-8.9v-31h4.7v31Z"/>
    <path class="st4" d="M373.4,33h4.8v32.8c0,8.9,5.8,15.2,14,15.2s14.1-6.3,14.1-15.2-5.8-15.2-14.1-15.2h-11.5v-17.6h4.8v12.7h6.8c10.6,0,18.7,8,18.7,20s-8.1,20-18.7,20-18.9-7.9-18.9-20v-32.8ZM392.2,53.4c6.6,0,11.6,5.4,11.6,12.3s-5.1,12.3-11.8,12.3-11.4-5.5-11.4-12.3v-12.3h11.5ZM385.5,65.7c0,4.4,2,7.1,6.8,7.1s6.9-2.7,6.9-7.1-2.2-7.1-6.9-7.1h-6.8v7.1Z"/>
  </g>
</svg>