<?xml version="1.0" encoding="utf-8"?>
<!-- Generator: Adobe Illustrator 27.1.1, SVG Export Plug-In . SVG Version: 6.00 Build 0)  -->
<svg version="1.1" id="Layer_1" xmlns="http://www.w3.org/2000/svg" xmlns:xlink="http://www.w3.org/1999/xlink" x="0px" y="0px"
	 viewBox="0 0 100 47" style="enable-background:new 0 0 100 47;" xml:space="preserve">
<style type="text/css">
	.st0{fill:#436BE1;}
</style>
<g>
	<g>
		<path class="st0" d="M34.09,28.3c-0.08-0.04-0.17-0.02-0.26-0.02c-2.15,0-4.3,0-6.45,0c-0.41,0-0.81-0.03-1.2-0.15
			c-0.93-0.27-1.67-0.8-2.17-1.64c-0.35-0.6-0.53-1.24-0.46-1.94c0.07-0.67,0.31-1.29,0.76-1.81c0.78-0.92,1.78-1.37,2.98-1.37
			c5.54,0,11.08,0,16.62,0c0.35,0,0.33-0.02,0.34,0.32c0.01,0.99,0,1.98-0.12,2.96c-0.11,1-0.3,1.99-0.57,2.97
			c-0.26,0.97-0.6,1.9-1,2.82c-0.41,0.92-0.87,1.82-1.41,2.67c-0.33,0.53-0.68,1.05-1.06,1.55c-0.63,0.83-1.31,1.61-2.06,2.34
			c-0.53,0.52-1.09,1.02-1.68,1.48c-0.64,0.51-1.31,0.98-2,1.41c-0.71,0.44-1.45,0.84-2.2,1.2c-1.36,0.64-2.78,1.14-4.25,1.47
			c-0.93,0.21-1.86,0.36-2.81,0.45c-0.97,0.09-1.93,0.11-2.9,0.09c-0.87-0.02-1.73-0.1-2.59-0.22c-1.38-0.2-2.73-0.52-4.05-0.99
			c-1.05-0.37-2.06-0.83-3.03-1.36c-0.8-0.43-1.57-0.91-2.31-1.44c-1.07-0.77-2.05-1.63-2.96-2.58c-0.34-0.36-0.66-0.73-0.98-1.11
			c-0.54-0.65-1.04-1.34-1.49-2.06c-0.29-0.45-0.55-0.92-0.8-1.39c-0.51-0.94-0.94-1.92-1.29-2.93c-0.42-1.21-0.72-2.46-0.91-3.73
			c-0.26-1.75-0.29-3.5-0.13-5.25c0.1-1.12,0.3-2.24,0.6-3.33c0.17-0.62,0.36-1.24,0.6-1.84c0.4-0.98,0.85-1.94,1.4-2.85
			c0.22-0.37,0.45-0.74,0.69-1.1c0.51-0.77,1.07-1.49,1.68-2.18c0.65-0.73,1.35-1.41,2.1-2.04c0.89-0.75,1.82-1.43,2.82-2.04
			c1.01-0.62,2.06-1.14,3.16-1.59c1.22-0.5,2.47-0.89,3.75-1.16c1.37-0.29,2.76-0.46,4.17-0.47c0.93-0.01,1.86,0.01,2.78,0.12
			c1.02,0.12,2.03,0.3,3.03,0.56c1.41,0.37,2.77,0.87,4.08,1.5c0.98,0.47,1.92,1.03,2.81,1.66c1.1,0.78,2.11,1.66,3.04,2.62
			c0.52,0.54,1.02,1.09,1.49,1.67c0.08,0.1,0.13,0.19,0.15,0.32c0.18,1.16,0.37,2.31,0.55,3.47c0.08,0.48,0.17,0.95,0.25,1.43
			c0.01,0.06,0.02,0.12,0.03,0.18c0.01,0.1-0.01,0.13-0.11,0.14c-0.17,0.01-0.34,0.02-0.51,0.06c-0.76,0.17-1.34,0.58-1.72,1.27
			c-0.02,0.04-0.04,0.07-0.06,0.1c-0.02,0.02-0.06,0.03-0.08,0.02c-0.05-0.01-0.09-0.04-0.14-0.06c-0.94-0.48-1.89-0.96-2.83-1.44
			c-0.97-0.49-1.94-0.99-2.91-1.48c-0.11-0.06-0.2-0.12-0.29-0.21c-0.61-0.65-1.28-1.23-2-1.75c-0.69-0.49-1.43-0.91-2.21-1.25
			c-0.42-0.18-0.84-0.34-1.27-0.48c-0.61-0.2-1.22-0.34-1.85-0.44c-0.83-0.14-1.66-0.18-2.5-0.14c-1.64,0.08-3.21,0.46-4.7,1.15
			c-1.49,0.69-2.8,1.63-3.94,2.82c-0.74,0.78-1.38,1.63-1.91,2.57c-0.47,0.83-0.86,1.69-1.13,2.6c-0.33,1.09-0.5,2.2-0.54,3.34
			c-0.03,0.92,0.01,1.84,0.16,2.74c0.19,1.14,0.54,2.23,1.04,3.28c0.41,0.86,0.9,1.67,1.49,2.42c0.95,1.21,2.08,2.22,3.39,3.02
			c1.25,0.76,2.58,1.32,4.02,1.62c1.5,0.32,3.02,0.39,4.54,0.16c1.56-0.24,3.03-0.76,4.4-1.54c0.9-0.52,1.71-1.14,2.45-1.86
			c0.75-0.73,1.4-1.53,1.96-2.41c0.16-0.25,0.3-0.5,0.46-0.75C34.08,28.42,34.12,28.37,34.09,28.3z M37.19,8.35
			C37.06,8.2,36.95,8.1,36.84,8c-0.28-0.24-0.56-0.49-0.85-0.73c-0.71-0.6-1.47-1.13-2.26-1.62c-0.88-0.54-1.79-1.01-2.74-1.41
			c-0.93-0.39-1.89-0.71-2.86-0.97c-0.68-0.18-1.38-0.31-2.07-0.42c-0.54-0.08-1.08-0.15-1.62-0.18c-1.12-0.06-2.24-0.07-3.36,0.04
			c-0.89,0.09-1.78,0.22-2.66,0.41c-0.97,0.22-1.91,0.5-2.83,0.86c-1.47,0.56-2.85,1.28-4.15,2.17c-0.75,0.51-1.47,1.07-2.14,1.68
			C8.56,8.49,7.87,9.2,7.24,9.96c-0.69,0.83-1.31,1.72-1.85,2.65c-0.5,0.86-0.93,1.74-1.29,2.67c-0.34,0.88-0.62,1.77-0.83,2.68
			c-0.14,0.63-0.25,1.27-0.34,1.9c-0.08,0.57-0.12,1.14-0.14,1.72c-0.06,1.54,0.07,3.06,0.38,4.57c0.25,1.24,0.63,2.44,1.12,3.6
			c0.36,0.86,0.78,1.68,1.26,2.48c0.55,0.92,1.18,1.78,1.87,2.6c0.8,0.94,1.68,1.8,2.64,2.58c1.06,0.86,2.2,1.61,3.41,2.24
			c1.36,0.71,2.77,1.25,4.25,1.64c0.97,0.25,1.95,0.42,2.94,0.54c0.51,0.06,1.02,0.1,1.54,0.11c0.78,0.02,1.55,0.03,2.33-0.05
			c0.46-0.04,0.93-0.08,1.38-0.14c1.08-0.16,2.14-0.39,3.18-0.72c1.42-0.44,2.78-1.03,4.07-1.76c1.36-0.78,2.62-1.7,3.77-2.77
			c0.96-0.9,1.83-1.88,2.59-2.95c0.41-0.57,0.8-1.17,1.14-1.78c0.52-0.93,0.97-1.9,1.34-2.91c0.17-0.46,0.3-0.94,0.45-1.41
			c0.15-0.48,0.26-0.97,0.35-1.47c0.12-0.65,0.22-1.29,0.27-1.95c0.04-0.43,0.09-0.86,0.09-1.3c0-0.46,0.06-0.41-0.39-0.41
			c-3.16,0-6.32,0-9.47,0c-0.07,0-0.14,0-0.21,0c-0.05,0-0.1-0.02-0.14,0.06c0.07,0.1,0.16,0.19,0.22,0.31
			c0.08,0.16,0.2,0.21,0.37,0.19c0.08-0.01,0.16,0,0.24,0c2.83,0,5.65,0,8.48,0c0.32,0,0.32-0.02,0.31,0.31
			c-0.03,0.64-0.11,1.27-0.2,1.89c-0.15,1.05-0.4,2.08-0.74,3.08c-0.33,0.98-0.73,1.92-1.21,2.83c-0.34,0.65-0.73,1.28-1.14,1.89
			c-0.61,0.9-1.29,1.73-2.04,2.51c-0.69,0.71-1.43,1.37-2.21,1.97c-1.06,0.81-2.2,1.5-3.4,2.08c-0.92,0.44-1.87,0.81-2.84,1.11
			c-1.02,0.31-2.07,0.54-3.13,0.68c-2.39,0.31-4.77,0.21-7.13-0.32c-2.25-0.51-4.35-1.4-6.3-2.64c-1.12-0.71-2.15-1.54-3.1-2.46
			c-0.93-0.9-1.76-1.89-2.48-2.96c-0.62-0.91-1.16-1.87-1.61-2.88c-0.05-0.11-0.09-0.22-0.14-0.33c-0.35-0.75-0.59-1.54-0.83-2.34
			c-0.23-0.78-0.37-1.57-0.5-2.37c-0.11-0.7-0.16-1.4-0.18-2.11c-0.03-1.33,0.05-2.64,0.31-3.94c0.17-0.85,0.37-1.69,0.65-2.52
			c0.29-0.86,0.63-1.7,1.05-2.51c0.58-1.15,1.27-2.22,2.07-3.23c0.59-0.74,1.21-1.43,1.9-2.07c0.71-0.67,1.47-1.29,2.28-1.85
			c1.49-1.03,3.1-1.85,4.81-2.44c1.33-0.46,2.69-0.78,4.09-0.95c1.45-0.17,2.9-0.18,4.35-0.05c1.4,0.12,2.77,0.41,4.11,0.83
			c1.17,0.37,2.29,0.84,3.37,1.42c0.99,0.53,1.93,1.13,2.81,1.83c0.39,0.3,0.76,0.63,1.14,0.95c0.08,0.07,0.16,0.11,0.27,0.1
			C36.77,8.37,36.95,8.37,37.19,8.35z M34.41,9c-0.05-0.04-0.08-0.08-0.12-0.11c-0.7-0.57-1.44-1.07-2.21-1.53
			c-0.89-0.52-1.82-0.96-2.79-1.32c-1.07-0.4-2.17-0.69-3.3-0.88c-0.84-0.14-1.68-0.23-2.53-0.25c-0.98-0.03-1.96,0.03-2.93,0.16
			c-1.34,0.17-2.64,0.48-3.9,0.95c-2.1,0.77-3.99,1.89-5.66,3.36c-1.19,1.04-2.22,2.23-3.09,3.55c-0.6,0.91-1.1,1.87-1.52,2.88
			c-0.45,1.08-0.76,2.19-0.99,3.33c-0.09,0.43-0.13,0.88-0.19,1.32c-0.13,1.01-0.13,2.03-0.06,3.05c0.06,0.87,0.19,1.72,0.39,2.57
			c0.29,1.26,0.72,2.48,1.28,3.64c0.54,1.11,1.19,2.15,1.95,3.12c0.33,0.42,0.68,0.83,1.04,1.22c0.66,0.7,1.37,1.34,2.14,1.92
			c0.73,0.56,1.5,1.06,2.31,1.5c1.08,0.58,2.2,1.05,3.37,1.41c0.95,0.29,1.91,0.49,2.89,0.63c0.81,0.11,1.63,0.16,2.44,0.16
			c0.81,0,1.61-0.05,2.41-0.16c0.68-0.09,1.35-0.22,2.02-0.39c1.46-0.36,2.84-0.9,4.16-1.61c0.95-0.51,1.85-1.11,2.7-1.78
			c1.09-0.87,2.07-1.86,2.93-2.96c0.68-0.88,1.28-1.81,1.78-2.81c0.13-0.25,0.24-0.51,0.36-0.77c0.32-0.68,0.56-1.38,0.78-2.1
			c0.22-0.73,0.38-1.48,0.49-2.24c0.01-0.1,0.09-0.21,0.03-0.29c-0.07-0.1-0.21-0.04-0.31-0.04c-2.03,0-4.06,0-6.08,0
			c-0.07,0-0.14,0-0.21,0c-0.12,0.01-0.14,0.03-0.15,0.14c0,0.03,0,0.06,0,0.09c0,0.38-0.04,0.35,0.33,0.35c1.78,0,3.55,0,5.33,0
			c0.09,0,0.18,0,0.27,0c0.12,0,0.14,0.03,0.13,0.15c0,0.04-0.01,0.08-0.02,0.12c-0.16,0.76-0.33,1.51-0.59,2.25
			c-0.35,1-0.79,1.96-1.31,2.89c-0.54,0.94-1.16,1.82-1.87,2.63c-0.6,0.69-1.24,1.32-1.94,1.91c-0.71,0.6-1.47,1.14-2.27,1.61
			c-1.32,0.78-2.71,1.38-4.18,1.8c-1.23,0.35-2.48,0.56-3.75,0.63c-1.33,0.07-2.66,0.02-3.98-0.21c-0.82-0.14-1.62-0.33-2.41-0.58
			c-1.35-0.43-2.63-1.02-3.84-1.76c-1.56-0.96-2.93-2.14-4.12-3.53c-0.65-0.76-1.22-1.58-1.73-2.44c-0.5-0.86-0.91-1.75-1.25-2.68
			c-0.25-0.67-0.44-1.36-0.59-2.06c-0.22-1-0.34-2.01-0.37-3.03c-0.03-1.36,0.05-2.7,0.37-4.03c0.19-0.81,0.4-1.62,0.73-2.4
			c0.21-0.5,0.41-1.01,0.66-1.49c0.39-0.78,0.84-1.51,1.35-2.22c0.48-0.68,1.01-1.31,1.59-1.9c0.65-0.68,1.36-1.29,2.12-1.85
			c0.99-0.74,2.05-1.36,3.17-1.87c1.24-0.56,2.52-0.96,3.85-1.23c0.97-0.2,1.95-0.29,2.94-0.33c0.81-0.03,1.61,0.02,2.42,0.1
			C26.2,5.7,27.49,6,28.75,6.45c1.75,0.62,3.38,1.48,4.84,2.63c0.09,0.07,0.18,0.13,0.27,0.2c0.03,0.03,0.07,0.04,0.11,0.01
			C34.11,9.2,34.27,9.13,34.41,9z M29.12,28.03C29.12,28.03,29.12,28.03,29.12,28.03c0.59,0,1.17,0,1.76,0
			c0.47,0,0.47,0.01,0.87-0.26c0.94-0.65,1.51-1.53,1.59-2.69c0.04-0.51-0.03-1.01-0.23-1.48c-0.35-0.81-0.92-1.41-1.69-1.84
			c-0.15-0.08-0.29-0.12-0.46-0.12c-0.68,0-1.35,0-2.03,0c-0.52,0-1.05,0-1.57,0c-0.66,0-1.28,0.17-1.85,0.5
			c-0.66,0.39-1.16,0.95-1.4,1.68c-0.31,0.92-0.22,1.81,0.31,2.64c0.3,0.47,0.7,0.83,1.18,1.1c0.56,0.31,1.16,0.46,1.8,0.46
			C27.97,28.03,28.55,28.03,29.12,28.03z M37.02,27.06c0,0.06,0.01,0.08,0.01,0.09c-0.03,0.09-0.06,0.17-0.09,0.26
			c-0.26,0.62-0.53,1.24-0.86,1.83c-0.47,0.85-1.03,1.64-1.66,2.38c-0.83,0.96-1.76,1.8-2.8,2.53c-0.89,0.62-1.83,1.14-2.83,1.55
			c-1.53,0.63-3.13,1-4.78,1.12c-1.53,0.11-3.04-0.02-4.54-0.37c-1.7-0.4-3.29-1.08-4.76-2.03c-1.14-0.74-2.16-1.63-3.06-2.64
			c-0.74-0.83-1.37-1.74-1.9-2.73c-0.51-0.95-0.91-1.96-1.2-3c-0.3-1.09-0.46-2.21-0.49-3.35c-0.04-1.52,0.13-3.02,0.59-4.48
			c0.19-0.6,0.39-1.18,0.65-1.76c0.39-0.88,0.87-1.7,1.43-2.49c0.46-0.65,0.98-1.26,1.54-1.83c0.73-0.73,1.52-1.38,2.39-1.95
			c0.88-0.58,1.81-1.06,2.79-1.44c0.84-0.32,1.7-0.58,2.58-0.75c0.7-0.13,1.39-0.23,2.1-0.26c1.17-0.05,2.34,0.01,3.5,0.21
			c0.91,0.16,1.79,0.4,2.65,0.72c1.42,0.53,2.73,1.25,3.93,2.18c0.04,0.03,0.07,0.07,0.15,0.07c0.1-0.1,0.18-0.23,0.26-0.35
			c0.03-0.05,0.03-0.1-0.02-0.13c-0.04-0.03-0.08-0.06-0.12-0.09c-0.49-0.37-1-0.71-1.54-1.02c-0.55-0.32-1.12-0.61-1.7-0.86
			c-0.84-0.36-1.69-0.64-2.58-0.85c-0.66-0.16-1.32-0.28-2-0.34c-0.62-0.06-1.25-0.09-1.87-0.08c-1.48,0.02-2.93,0.22-4.35,0.65
			c-2.04,0.61-3.88,1.59-5.51,2.94c-0.95,0.79-1.8,1.68-2.53,2.67c-0.6,0.8-1.11,1.66-1.53,2.57c-0.08,0.16-0.14,0.33-0.22,0.5
			c-0.34,0.74-0.57,1.51-0.77,2.29c-0.25,0.98-0.36,1.98-0.39,2.99c-0.04,1.3,0.07,2.58,0.36,3.84c0.23,0.96,0.54,1.9,0.96,2.8
			c0.12,0.25,0.22,0.5,0.35,0.74c0.44,0.82,0.94,1.6,1.52,2.33c0.31,0.39,0.63,0.76,0.97,1.12c0.86,0.89,1.81,1.66,2.85,2.33
			c0.69,0.44,1.41,0.82,2.16,1.15c1.52,0.66,3.11,1.06,4.76,1.22c1.67,0.16,3.33,0.06,4.97-0.29c1.05-0.22,2.06-0.56,3.04-1
			c1.19-0.54,2.3-1.21,3.33-2.02c0.98-0.78,1.86-1.67,2.63-2.67c0.58-0.75,1.08-1.56,1.52-2.4c0.25-0.48,0.46-0.99,0.65-1.5
			c0.1-0.26,0.18-0.53,0.27-0.8c0.03-0.11,0-0.15-0.11-0.15c-0.06,0-0.12,0-0.18,0c-1.26,0-2.52,0-3.78,0c-0.07,0-0.14,0-0.21,0.01
			c-0.04,0-0.08,0.02-0.1,0.06c-0.05,0.07-0.2,0.37-0.23,0.51C34.47,27.06,35.74,27.06,37.02,27.06z M34.67,9.83
			c-0.47,0.27-0.85,0.61-1.19,1c-0.01,0.02-0.02,0.03-0.04,0.05c-0.02,0.04-0.03,0.08,0,0.11c0.03,0.04,0.07,0.07,0.11,0.1
			c0.42,0.36,0.84,0.72,1.26,1.08c0.94,0.8,1.88,1.61,2.83,2.42c0.31,0.26,0.61,0.53,0.92,0.79c0.06,0.05,0.13,0.1,0.2,0.14
			c0.03,0.02,0.08,0,0.1-0.04c0.02-0.03,0.03-0.06,0.01-0.08c-0.03-0.05-0.07-0.1-0.1-0.15c-0.7-0.92-1.4-1.84-2.1-2.77
			c-0.54-0.72-1.08-1.43-1.62-2.15C34.94,10.17,34.81,10.01,34.67,9.83z M35.23,9.54c0.05,0.07,0.08,0.12,0.11,0.17
			c0.33,0.43,0.66,0.86,0.99,1.3c0.41,0.55,0.82,1.1,1.24,1.64c0.52,0.67,1.02,1.35,1.53,2.03c0.08,0.11,0.17,0.23,0.26,0.34
			c0.02,0.03,0.05,0.06,0.08,0.09c0.05,0.04,0.1,0,0.14-0.02c0.05-0.02,0.05-0.06,0.04-0.1c-0.02-0.07-0.05-0.13-0.08-0.19
			c-0.2-0.43-0.39-0.86-0.59-1.29c-0.36-0.78-0.71-1.56-1.07-2.34c-0.28-0.61-0.56-1.23-0.83-1.84c-0.01-0.02-0.02-0.04-0.03-0.05
			c-0.08-0.15-0.1-0.17-0.26-0.15c-0.34,0.04-0.68,0.1-1,0.21C35.59,9.38,35.41,9.42,35.23,9.54z M32.7,12.75
			c0,0.07,0.01,0.17,0.02,0.27c0.01,0.2,0.1,0.32,0.29,0.41c0.77,0.38,1.53,0.77,2.29,1.16c0.9,0.46,1.8,0.91,2.69,1.37
			c0.09,0.05,0.18,0.09,0.27,0.13c0.03,0.01,0.06,0.01,0.08-0.02c0.02-0.03,0.02-0.06,0-0.08c-0.06-0.06-0.11-0.11-0.17-0.17
			c-0.49-0.42-0.99-0.83-1.47-1.25c-0.93-0.8-1.87-1.6-2.8-2.4c-0.24-0.21-0.49-0.42-0.74-0.63c-0.08-0.07-0.12-0.06-0.16,0.02
			C32.82,11.92,32.7,12.3,32.7,12.75z M37.67,9.16c0.03,0.07,0.05,0.14,0.08,0.22c0.2,0.44,0.4,0.88,0.6,1.32
			c0.41,0.9,0.82,1.8,1.23,2.7c0.19,0.42,0.38,0.85,0.58,1.27c0.03,0.07,0.08,0.14,0.12,0.21c0.01,0.01,0.04,0.01,0.05,0.01
			c0.02,0,0.04-0.02,0.04-0.04c0-0.04,0-0.08,0-0.12c-0.11-0.74-0.22-1.48-0.34-2.21c-0.04-0.23-0.08-0.46-0.12-0.68
			c-0.08-0.49-0.14-0.98-0.22-1.47c-0.03-0.18,0-0.38-0.12-0.52c-0.12-0.15-0.31-0.22-0.48-0.31c-0.4-0.21-0.81-0.36-1.26-0.41
			C37.77,9.12,37.72,9.11,37.67,9.16z"/>
		<path class="st0" d="M62.28,23.46c-0.07-0.02-0.12,0.03-0.16,0.05c-1.37,0.72-2.82,1-4.36,0.91c-0.19-0.01-0.38-0.02-0.57-0.03
			c-0.06,0-0.09,0.04-0.07,0.1c0.03,0.11,0.07,0.21,0.09,0.32c0.14,0.54,0.19,1.09,0.17,1.65c-0.03,0.79-0.17,1.57-0.41,2.32
			c-0.24,0.75-0.55,1.47-0.96,2.15c-0.54,0.87-1.19,1.63-2.02,2.23c-1.06,0.76-2.24,1.17-3.56,1.19c-0.57,0.01-1.13-0.03-1.68-0.18
			c-1.04-0.29-1.85-0.86-2.4-1.8c-0.42-0.73-0.6-1.52-0.62-2.34c-0.03-1.08,0.19-2.12,0.57-3.13c0.23-0.61,0.52-1.18,0.86-1.73
			c0.53-0.85,1.2-1.57,2.01-2.15c0.08-0.06,0.18-0.09,0.24-0.21c-3.01-0.77-5.62-2.22-7.79-4.44c0.14,0.1,0.29,0.19,0.43,0.3
			c1.33,0.97,2.77,1.72,4.31,2.29c0.71,0.26,1.43,0.48,2.17,0.65c0.85,0.19,1.7,0.33,2.57,0.41c0.19,0.02,0.38,0,0.57-0.03
			c0.92-0.14,1.83-0.15,2.73,0.08c0.24,0.06,0.47,0.13,0.68,0.24c0.26,0.14,0.54,0.21,0.83,0.27c0.69,0.14,1.38,0.27,2.09,0.3
			c0.94,0.04,1.85-0.09,2.74-0.38c0.49-0.16,0.95-0.39,1.39-0.66c0.28-0.17,0.55-0.34,0.8-0.55c0.1-0.09,0.18-0.18,0.23-0.31
			c0.17-0.52,0.35-1.03,0.52-1.55c0.44-1.3,0.88-2.6,1.32-3.9c0.4-1.17,0.79-2.35,1.19-3.52c0.11-0.31,0.23-0.62,0.33-0.94
			c0.14-0.46,0.46-0.66,0.93-0.67c0.23,0,0.46,0,0.69,0.05c0.08,0.02,0.16,0.04,0.23,0.08c0.14,0.07,0.23,0.19,0.23,0.36
			c0.01,0.17-0.03,0.32-0.08,0.47c-0.18,0.53-0.36,1.05-0.53,1.57c-0.33,0.97-0.65,1.95-0.98,2.92c-0.2,0.58-0.39,1.16-0.59,1.75
			c-0.43,1.27-0.85,2.54-1.29,3.81c-0.19,0.55-0.37,1.11-0.56,1.66c-0.44,1.29-0.87,2.58-1.31,3.87c-0.22,0.65-0.44,1.3-0.66,1.95
			c-0.29,0.86-0.59,1.72-0.88,2.58c-0.05,0.16-0.1,0.33-0.13,0.5c-0.09,0.51,0.21,0.62,0.61,0.49c0.2-0.07,0.37-0.2,0.52-0.36
			c0.23-0.25,0.46-0.51,0.68-0.77c0.07-0.08,0.13-0.16,0.2-0.22c0.17-0.15,0.36-0.18,0.56-0.07c0.16,0.09,0.32,0.18,0.45,0.31
			c0.21,0.21,0.26,0.46,0.1,0.72c-0.46,0.74-1,1.39-1.77,1.82c-0.7,0.39-1.45,0.49-2.22,0.31c-0.51-0.12-0.85-0.44-1.01-0.95
			c-0.11-0.36-0.13-0.73-0.1-1.11c0.05-0.62,0.2-1.21,0.4-1.8c0.11-0.33,0.22-0.65,0.33-0.97c0.3-0.88,0.59-1.76,0.88-2.64
			c0.22-0.64,0.43-1.28,0.65-1.92c0.13-0.39,0.27-0.78,0.4-1.17C62.28,23.55,62.3,23.51,62.28,23.46z M47.86,29.6
			c0.01,0.17,0.01,0.34,0.03,0.51c0.05,0.58,0.24,1.1,0.61,1.55c0.06,0.07,0.12,0.14,0.19,0.2c0.42,0.35,0.91,0.56,1.46,0.59
			c0.23,0.01,0.46,0.02,0.69,0c0.53-0.03,1.03-0.18,1.49-0.45c0.66-0.39,1.19-0.93,1.61-1.56c0.46-0.69,0.8-1.44,1.02-2.25
			c0.18-0.66,0.28-1.32,0.26-2c-0.02-0.38-0.09-0.76-0.24-1.11c-0.31-0.7-0.83-1.13-1.57-1.28c-0.92-0.19-1.8-0.06-2.63,0.41
			c-0.61,0.35-1.12,0.82-1.53,1.4c-0.36,0.51-0.67,1.05-0.89,1.64C48.07,28.01,47.86,28.78,47.86,29.6z"/>
		<path class="st0" d="M81.99,26.41c0.08-0.03,0.11-0.09,0.14-0.15c0.47-0.72,1-1.39,1.57-2.03c0.49-0.55,1.02-1.06,1.62-1.49
			c0.42-0.3,0.86-0.57,1.35-0.74c0.5-0.18,1.01-0.2,1.51-0.01c0.5,0.19,0.88,0.52,1.17,0.96c0.06,0.1,0.09,0.2,0.11,0.31
			c0.01,0.06-0.01,0.12,0.03,0.18c0.08,0.03,0.13-0.03,0.18-0.08c0.2-0.16,0.4-0.31,0.61-0.45c1.01-0.69,2.14-1.02,3.36-1.05
			c0.6-0.02,1.19,0.03,1.77,0.18c0.65,0.16,1.23,0.46,1.72,0.91c0.4,0.37,0.7,0.8,0.9,1.31c0.32,0.82,0.43,1.67,0.33,2.55
			c-0.09,0.79-0.24,1.58-0.52,2.33c-0.31,0.85-0.7,1.65-1.24,2.38c-0.49,0.66-1.06,1.24-1.74,1.71c-1.03,0.7-2.16,1.08-3.4,1.1
			c-0.65,0.01-1.29-0.04-1.91-0.24c-1.12-0.37-1.94-1.08-2.41-2.18c-0.36-0.83-0.46-1.69-0.4-2.58c0.07-1.1,0.38-2.14,0.84-3.14
			c0.22-0.49,0.48-0.96,0.8-1.38c0.08-0.1,0.15-0.22,0.22-0.33c0.04-0.07,0.03-0.12-0.05-0.13c-0.13-0.02-0.22-0.09-0.32-0.16
			c-0.14-0.1-0.28-0.2-0.43-0.29c-0.37-0.22-0.76-0.23-1.16-0.08c-0.36,0.14-0.68,0.35-0.99,0.58c-0.51,0.38-0.97,0.82-1.39,1.3
			c-0.81,0.89-1.51,1.86-2.16,2.87c-0.45,0.71-0.87,1.43-1.26,2.17c-0.29,0.54-0.54,1.11-0.81,1.66c-0.17,0.36-0.28,0.73-0.4,1.11
			c-0.03,0.1-0.06,0.19-0.11,0.28c-0.13,0.23-0.34,0.37-0.6,0.41c-0.26,0.04-0.52,0.04-0.78,0.01c-0.15-0.02-0.29-0.08-0.43-0.15
			c-0.15-0.08-0.22-0.21-0.2-0.37c0.01-0.09,0.03-0.18,0.06-0.26c0.19-0.49,0.33-0.99,0.5-1.49c0.29-0.87,0.58-1.74,0.87-2.61
			c0.14-0.42,0.27-0.85,0.41-1.27c0.4-1.21,0.8-2.41,1.2-3.62c0.19-0.56,0.37-1.13,0.56-1.69c0.04-0.12,0.1-0.24,0.15-0.36
			c0.12-0.23,0.31-0.37,0.57-0.4c0.3-0.04,0.6-0.03,0.91,0.01c0.03,0,0.06,0.02,0.09,0.02c0.35,0.1,0.47,0.3,0.39,0.66
			c-0.02,0.08-0.04,0.15-0.07,0.23c-0.38,1.14-0.75,2.28-1.13,3.42C82,26.35,82,26.38,81.99,26.41z M88.85,29.65
			C88.83,30,88.89,30.37,89,30.74c0.25,0.86,0.8,1.42,1.67,1.63c0.85,0.2,1.68,0.12,2.47-0.28c0.47-0.24,0.87-0.58,1.24-0.96
			c0.35-0.37,0.63-0.79,0.87-1.23c0.55-1,0.89-2.07,0.95-3.22c0.02-0.44,0-0.87-0.12-1.29c-0.26-0.88-0.84-1.42-1.75-1.61
			c-0.33-0.07-0.66-0.07-0.99-0.05c-0.59,0.03-1.13,0.2-1.63,0.5c-0.68,0.41-1.22,0.96-1.65,1.62c-0.43,0.67-0.77,1.39-0.96,2.17
			C88.96,28.55,88.85,29.07,88.85,29.65z"/>
		<path class="st0" d="M70.37,25.57c0.16-0.19,0.29-0.35,0.42-0.51c0.45-0.56,0.94-1.08,1.48-1.56c0.58-0.52,1.21-0.97,1.93-1.29
			c0.49-0.21,0.99-0.34,1.52-0.34c1.02,0,1.75,0.47,2.23,1.35c0.29,0.54,0.42,1.13,0.45,1.74c0.04,0.9-0.11,1.77-0.35,2.63
			c-0.23,0.83-0.57,1.62-0.99,2.37c-0.49,0.88-1.09,1.67-1.82,2.37c-0.71,0.68-1.51,1.22-2.42,1.58c-0.55,0.22-1.12,0.34-1.71,0.38
			c-1.14,0.08-2.2-0.17-3.22-0.66c-0.04-0.02-0.09-0.04-0.14-0.05c-0.01,0-0.02,0-0.05,0.01c-0.08,0.23-0.17,0.46-0.25,0.7
			c-0.36,1.09-0.72,2.18-1.08,3.27c-0.19,0.56-0.38,1.13-0.57,1.69c-0.44,1.31-0.88,2.62-1.32,3.93c-0.2,0.61-0.41,1.22-0.61,1.83
			c-0.04,0.12-0.09,0.25-0.14,0.37c-0.09,0.2-0.25,0.35-0.47,0.4c-0.41,0.11-0.82,0.12-1.22-0.04c-0.32-0.13-0.39-0.29-0.29-0.62
			c0.07-0.24,0.17-0.48,0.25-0.71c0.13-0.4,0.26-0.81,0.39-1.21c0.45-1.36,0.9-2.72,1.35-4.08c0.21-0.63,0.41-1.26,0.62-1.9
			c0.29-0.86,0.58-1.72,0.87-2.58c0.34-1.01,0.66-2.03,1-3.05c0.43-1.29,0.85-2.59,1.29-3.87c0.2-0.58,0.38-1.17,0.58-1.75
			c0.22-0.67,0.44-1.34,0.67-2.01c0.13-0.38,0.25-0.77,0.38-1.15c0.05-0.14,0.11-0.28,0.18-0.42c0.12-0.23,0.32-0.36,0.58-0.39
			c0.29-0.04,0.59-0.03,0.88,0.01c0.45,0.07,0.61,0.32,0.48,0.75c-0.17,0.56-0.36,1.11-0.55,1.67c-0.11,0.34-0.23,0.69-0.34,1.03
			C70.36,25.47,70.37,25.5,70.37,25.57z M70.76,32.47c0.81,0.03,1.61-0.2,2.33-0.7c0.62-0.42,1.11-0.96,1.54-1.56
			c0.33-0.46,0.61-0.95,0.83-1.47c0.08-0.19,0.15-0.37,0.23-0.56c0.24-0.58,0.39-1.19,0.47-1.81c0.06-0.42,0.07-0.84,0.01-1.27
			c-0.04-0.3-0.11-0.6-0.27-0.86c-0.21-0.34-0.5-0.54-0.93-0.52c-0.33,0.01-0.63,0.1-0.93,0.24c-0.65,0.3-1.18,0.77-1.68,1.27
			c-0.4,0.4-0.76,0.83-1.1,1.28c-0.47,0.62-0.91,1.26-1.32,1.92c-0.35,0.57-0.7,1.16-1.03,1.74c-0.2,0.34-0.36,0.7-0.47,1.08
			c-0.06,0.19-0.12,0.38-0.18,0.58c-0.03,0.09-0.01,0.12,0.08,0.16c0.04,0.02,0.07,0.03,0.11,0.04
			C69.18,32.29,69.92,32.46,70.76,32.47z"/>
		<path class="st0" d="M41.33,18.07c-0.09,0-0.15-0.04-0.21-0.07c-0.64-0.32-1.27-0.65-1.91-0.97c-0.05-0.03-0.11-0.06-0.16-0.09
			c-0.05-0.03-0.06-0.08-0.04-0.13c0.05-0.12,0.1-0.24,0.18-0.35c0.41-0.52,0.96-0.79,1.63-0.78c0.12,0,0.14,0.02,0.16,0.14
			c0.03,0.19,0.06,0.38,0.09,0.57c0.08,0.49,0.17,0.97,0.25,1.46C41.33,17.91,41.35,17.98,41.33,18.07z M41.08,17.84
			c0.02,0.02,0.05,0.04,0.07,0.01c0.01-0.02,0-0.05-0.01-0.08c-0.09-0.6-0.18-1.19-0.27-1.79c-0.02-0.11-0.04-0.13-0.16-0.13
			c-0.31,0-0.6,0.08-0.86,0.24c-0.28,0.17-0.5,0.4-0.63,0.71c-0.03,0.06,0,0.09,0.04,0.13c0.02,0.01,0.04,0.02,0.05,0.03
			c0.41,0.21,0.82,0.43,1.24,0.63C40.71,17.67,40.88,17.79,41.08,17.84z"/>
	</g>
</g>
</svg>
