<?xml version="1.0" encoding="UTF-8"?>
<svg id="Layer_1" xmlns="http://www.w3.org/2000/svg" version="1.1" viewBox="0 0 637 218.1">
  <!-- Generator: Adobe Illustrator 29.5.0, SVG Export Plug-In . SVG Version: 2.1.0 Build 137)  -->
  <defs>
    <style>
      .st0 {
        fill: #d42a2f;
      }

      .st1 {
        fill: #d42b30;
      }
    </style>
  </defs>
  <path class="st0" d="M407.4,75.04h-11.58c-1.95-10.82-16.66-11.68-22.43-3.46-6.24,8.92-4.5,29.4,8.7,30.94,8.25.96,14.9-2.76,15.17-11.55h-11.87v-8.69h22.88v28.96h-7.82c-.16-.91-.75-5.54-1.3-5.79-2.25,3.24-5.84,5.61-9.7,6.52-25.25,5.97-38.91-23.61-27.35-43.57,10.75-18.56,42.32-16.09,45.3,6.64Z"/>
  <path class="st0" d="M547,57.37v33.17c.44,3.82.24,7.2,3.47,9.84,3.76,3.06,13.22,3.22,16.5-.59.85-.99,2.32-4.27,2.32-5.5v-36.93h11.87v37.5c0,11.67-11.97,17.69-22.16,17.81-15.15.19-23.16-6.32-23.9-21.56-.54-11.09.43-22.62.01-33.75h11.87Z"/>
  <path class="st0" d="M262.6,57.37c.42,10.83-.56,22.09-.01,32.88.24,4.72.75,9.38,5.65,11.44,3.67,1.54,11.1,1.39,14.06-1.59,1.05-1.06,2.6-4.4,2.6-5.8v-36.93h11.87v37.79c0,2.72-2.33,7.97-4.06,10.13-7.66,9.55-29.47,9.84-37.35.58-1.84-2.17-4.35-7.62-4.35-10.42v-38.08h11.58Z"/>
  <path class="st0" d="M313.57,137.88h-7.24c-.17,0-.02-1.93-1.01-3.19-3.38-4.34-13.3-1.41-10.3,3.35,1.46,2.31,11.17,3.5,14.19,4.92,7.2,3.39,7.61,13.09.96,17.17-8.4,5.15-24.39,2.25-24.13-9.79h7.1c.73,1.75.54,3.04,2.17,4.49,3.87,3.44,14.79,1.74,11.84-4.02-1.41-2.75-11.21-3.96-14.44-5.55-8.44-4.15-6.61-14.79,1.8-17.6,7.68-2.56,19.77.17,19.05,10.22Z"/>
  <rect class="st1" x="323.71" y="127.75" width="7.24" height="33.88"/>
  <path class="st0" d="M100.07,3.3C26.11,7.26-20.26,87.24,10.87,154.3c35.52,76.49,142.59,82.9,186.97,11.07C243.72,91.14,186.45-1.33,100.07,3.3ZM180,151.87c-30.55,52.42-105.54,56.03-140.93,6.67C-.32,103.59,37.85,27.42,104.99,25.31c65.63-2.07,108.22,69.6,75.01,126.56Z"/>
  <path class="st0" d="M455.77,86.04c1.83-1.38,3.64-2.03,5.22-3.9,7.75-9.17,1.42-23.55-10.58-24.77h-31.13v53.87h11.87v-20.85h14.34c.11,0,1.9.6,2.17.72,6.38,2.85,3.59,14.92,6.23,20.13h11.73c-4.27-7.97,1.21-21.72-9.85-25.2ZM449.49,80.49c-.58.38-2.54,1.21-3.14,1.21h-15.2v-15.06h14.92c.24,0,2.63.85,3.01,1.04,4.17,2.11,4.16,10.34.42,12.81Z"/>
  <path class="st0" d="M495.68,56.3c-28,2.69-31.01,47.46-4.64,55.15,16.96,4.94,33.49-5.32,34.81-23.24,1.43-19.4-9.85-33.87-30.18-31.91ZM503.78,102.05c-23.24,6.32-25.58-34.9-5.21-35.91,19.69-.97,19.99,31.89,5.21,35.91Z"/>
  <path class="st0" d="M619.84,57.37h-26.79v53.87h11.87v-19.11c10.87-.02,26.03,1.94,30.1-11.17,3.65-11.74-2.74-22.57-15.19-23.59ZM619.17,82.19c-1,.27-3.59.67-4.55.67h-9.7v-16.22h11.15c.65,0,2.89.49,3.61.73,6.59,2.21,6.4,12.99-.51,14.82Z"/>
  <path class="st0" d="M335.44,57.37h-26.79v53.87h11.58v-19.11c9.52-.32,22.42,2.05,28.5-7.27,7.07-10.82.5-27.49-13.3-27.49ZM334.77,82.2c-.93.27-3.65.66-4.55.66h-9.7v-16.22h11.73c.57,0,3.59.95,4.21,1.29,5.36,2.9,4.64,12.46-1.69,14.27Z"/>
  <path class="st0" d="M359,127.79l-7.65-.25-12.87,34.09h7.53l2.59-7.4,12.58-.15,2.49,7.55h7.82l-12.49-33.85ZM350.64,148.31l4.49-11.88,3.91,11.88h-8.4Z"/>
  <path class="st0" d="M268.4,127.89c-1.2-.1-7.48-.45-7.97.15l-12.59,33.6h7.39l2.79-7.49c1.59.12,12.34-.37,12.73.14l2.72,7.35h7.67l-12.74-33.74ZM260.43,148.6s-.56-.41-.31-.59l4.36-11.87,4.2,12.46h-8.25Z"/>
  <path class="st0" d="M62.48,77.35v46.21c-.27,13,10.11,17.05,21.43,14.18,5.26-1.33,8.69-6.5,8.69-11.88v-48.51h16.22v45.63c-.85,18.96-10.71,28.43-29.69,29.09-17.2.6-31.17-6.91-32.59-25.33v-49.39h15.94Z"/>
  <path class="st0" d="M152.99,77.34h-35.78v72.99h16.22v-26.07c16.02.07,36.72,2.61,41.27-17.37,3.54-15.52-5.73-28.65-21.71-29.56ZM159.75,102.37c-.49,5.08-4.74,9.16-9.96,9.16h-16.36v-21.72c5.51.27,11.47-.49,16.91.32,6.92,1.04,10.09,5.21,9.41,12.24Z"/>
</svg>