<?xml version="1.0" encoding="utf-8"?>
<!-- Generator: Adobe Illustrator 27.1.1, SVG Export Plug-In . SVG Version: 6.00 Build 0)  -->
<svg version="1.1" id="Layer_1" xmlns="http://www.w3.org/2000/svg" xmlns:xlink="http://www.w3.org/1999/xlink" x="0px" y="0px"
	 viewBox="0 0 54 50.8" style="enable-background:new 0 0 54 50.8;" xml:space="preserve">
<style type="text/css">
	.st0{fill:#04AA6D;}
</style>
<g>
	<g transform="matrix(1.451231002808, 0, 0, 1.451231002808, -0.053854331374, -2.645e-9)">
		<path class="st0" d="M31.4,7.4c0,0,0.9,1,2.2,1c1,0,1.8-0.6,1.8-1.5c0-1-1-1.5-2.1-1.5h-0.7l-0.4-0.9L34,2.3
			c0.4-0.5,0.7-0.8,0.7-0.8s-0.3,0-0.9,0h-3V0h6v1.1l-2.4,2.8c1.4,0.2,2.7,1.2,2.7,2.9c0,1.7-1.3,3.3-3.5,3.3
			c-2.1,0-3.3-1.3-3.3-1.3L31.4,7.4z"/>
		<path class="st0" d="M19.6,9.5l8,14.2l3.9-7L24,3.2h-8.8l-3.6,6.5L7.9,3.2H0l11.5,20.5l0-0.1l0,0.1L19.6,9.5z"/>
	</g>
</g>
<g>
	<path class="st0" d="M5.7,41.2v4.7c0,0.3-0.1,0.7-0.2,1S5.2,47.4,5,47.7c-0.2,0.2-0.5,0.4-0.8,0.6c-0.3,0.1-0.6,0.2-1,0.2
		c-0.5,0-0.9-0.1-1.3-0.3c-0.4-0.2-0.7-0.5-0.9-0.9c-0.2-0.4-0.3-0.8-0.3-1.3v-4.7h2.1v4.6c0,0.1,0,0.3,0.1,0.4s0.2,0.1,0.3,0.1
		c0.1,0,0.2,0,0.3-0.1c0.1-0.1,0.1-0.2,0.1-0.4v-4.6H5.7z"/>
	<path class="st0" d="M6.9,48.3v-4.7c0-0.5,0.1-0.9,0.3-1.3c0.2-0.4,0.5-0.7,0.9-1S8.9,41,9.4,41c0.5,0,0.9,0.1,1.3,0.3
		c0.4,0.2,0.7,0.5,0.9,0.9c0.2,0.4,0.3,0.8,0.3,1.3v4.7H9.9v-4.6c0-0.1,0-0.3-0.1-0.4c-0.1-0.1-0.2-0.1-0.3-0.1
		c-0.1,0-0.2,0-0.3,0.1C9,43.4,9,43.5,9,43.7v4.6H6.9z"/>
	<path class="st0" d="M15.4,41.2v7.1h-2.1v-7.1H15.4z"/>
	<path class="st0" d="M22,41.2l-3.2,7.5l-3-7.5h2.4l0.6,2.2l0.6-2.2H22z"/>
	<path class="st0" d="M26.4,43.9v1.6H25c-0.2,0-0.3,0-0.4,0.1c-0.1,0-0.1,0.1-0.1,0.3c0,0.2,0.1,0.3,0.2,0.3c0.1,0,0.3,0.1,0.4,0.1
		h1.4v2h-1.7c-0.7,0-1.2-0.2-1.6-0.5c-0.4-0.4-0.7-0.9-0.7-1.5v-3.1c0-0.3,0.1-0.7,0.3-1s0.4-0.5,0.7-0.7s0.6-0.3,1-0.3h2v2h-1.4
		c-0.3,0-0.5,0.1-0.5,0.4c0,0.2,0.2,0.4,0.5,0.4H26.4z"/>
	<path class="st0" d="M30,43.1v5.2h-2.1v-7.1h2.9c0.4,0,0.8,0.1,1.2,0.3s0.7,0.5,0.9,0.8c0.2,0.4,0.3,0.7,0.3,1.2
		c0,0.4-0.1,0.7-0.2,1.1c-0.2,0.3-0.4,0.6-0.7,0.8l1.2,2.9h-2.2l-1-2.3v-1.8c0.3,0,0.5,0,0.6-0.1c0.2-0.1,0.2-0.2,0.2-0.5
		c0-0.2-0.1-0.3-0.2-0.4c-0.1-0.1-0.3-0.1-0.4-0.1H30z"/>
	<path class="st0" d="M37.6,41.1v2c-0.2-0.1-0.3-0.1-0.3-0.1c-0.2,0-0.3,0.1-0.4,0.2c-0.1,0.1-0.2,0.3-0.2,0.4c0,0.1,0,0.2,0.1,0.4
		c0.1,0.2,0.2,0.4,0.3,0.6c0.1,0.2,0.2,0.4,0.3,0.6c0.1,0.2,0.1,0.4,0.1,0.7c0,0.5-0.1,0.9-0.3,1.3c-0.2,0.4-0.5,0.7-0.9,0.9
		c-0.4,0.2-0.8,0.3-1.3,0.3c-0.3,0-0.6-0.1-0.9-0.2v-2.1c0.2,0.1,0.4,0.2,0.5,0.2c0.2,0,0.3-0.1,0.4-0.2c0.1-0.1,0.2-0.2,0.2-0.4
		c0-0.1-0.1-0.3-0.2-0.6c-0.2-0.3-0.3-0.6-0.4-0.8s-0.1-0.5-0.1-0.8c0-0.4,0.1-0.8,0.3-1.2c0.2-0.4,0.5-0.7,0.9-0.9
		c0.4-0.2,0.8-0.3,1.2-0.3C37,41,37.3,41,37.6,41.1z"/>
	<path class="st0" d="M40.8,41.2v7.1h-2.1v-7.1H40.8z"/>
	<path class="st0" d="M45.4,43.2v5.1h-2.1v-5.1h-1.6v-2H47v2H45.4z"/>
	<path class="st0" d="M54,41.2l-2,3.2v3.9h-2.1v-3.9l-2-3.2H50l0.9,1.5l1-1.5H54z"/>
</g>
</svg>
