<?xml version="1.0" encoding="utf-8"?>
<!-- Generator: Adobe Illustrator 27.1.1, SVG Export Plug-In . SVG Version: 6.00 Build 0)  -->
<svg version="1.1" id="Layer_1" xmlns="http://www.w3.org/2000/svg" xmlns:xlink="http://www.w3.org/1999/xlink" x="0px" y="0px"
	 viewBox="0 0 100 100" style="enable-background:new 0 0 100 100;" xml:space="preserve">
<style type="text/css">
	.st0{fill:#FFFFFF;}
</style>
<path d="M75.3,0H24.7C11,0,0,11,0,24.7v50.7C0,89,11,100,24.7,100h50.7C89,100,100,89,100,75.3V24.7C100,11,89,0,75.3,0z"/>
<g>
	<path class="st0" d="M16.4,30.4v-8.6c0.8,0,1.5-0.2,2.1-0.5s0.8-0.9,0.8-1.7c0-0.6-0.2-1.2-0.7-1.7c-0.4-0.5-1-0.7-1.6-0.7
		c-0.7,0-1.2,0.3-1.6,0.8c-0.4,0.6-0.6,1.2-0.6,1.9v21.7H5.1v-21c0-1.9,0.2-3.4,0.6-4.4c0.6-1.6,1.5-2.9,2.6-4.2
		c1.2-1.2,2.5-2.2,4.1-2.9c1.6-0.7,3.2-1,4.8-1c1.6,0,3.1,0.3,4.6,0.9c1.5,0.6,2.8,1.4,4,2.5c1.2,1.1,2.1,2.3,2.8,3.7
		c0.7,1.4,1,2.9,1,4.6c0,1.7-0.3,3.2-1,4.7s-1.6,2.7-2.9,3.7c-1.1,0.8-2.2,1.4-3.3,1.7c-1.1,0.3-2.5,0.4-4.1,0.4H16.4z"/>
	<path class="st0" d="M43.6,17.8v23.9h-9.7V9h13.4c1.9,0,3.7,0.5,5.4,1.4s3.2,2.2,4.3,3.8c1.1,1.6,1.6,3.4,1.6,5.3
		c0,1.7-0.4,3.3-1.1,4.8c-0.7,1.5-1.8,2.8-3.2,3.9L60,41.7H49.7L45,31.1v-8.4c1.2,0,2.1-0.2,2.8-0.5c0.7-0.4,1.1-1.1,1.1-2.1
		c0-0.8-0.3-1.3-0.9-1.7c-0.6-0.4-1.3-0.6-2.1-0.6H43.6z"/>
	<path class="st0" d="M61.7,24.8c0-2.3,0.4-4.4,1.3-6.5s2.1-3.8,3.8-5.3c1.6-1.5,3.4-2.7,5.5-3.6s4.2-1.3,6.5-1.3
		c2.3,0,4.5,0.4,6.5,1.3s3.9,2,5.5,3.6c1.6,1.5,2.9,3.3,3.8,5.3c0.9,2,1.4,4.2,1.4,6.5c0,3.1-0.8,6.1-2.3,8.8s-3.6,4.9-6.2,6.5
		s-5.5,2.4-8.6,2.4c-3.1,0-6-0.8-8.6-2.4c-2.6-1.6-4.7-3.8-6.2-6.5C62.4,30.9,61.7,27.9,61.7,24.8z M71.2,25c0,1.4,0.3,2.7,1,3.9
		c0.7,1.2,1.6,2.2,2.7,3c1.2,0.8,2.4,1.1,3.8,1.1c1.4,0,2.7-0.4,3.9-1.1c1.2-0.8,2.1-1.8,2.8-3s1-2.6,1-4c0-1.3-0.4-2.6-1.1-3.7
		c-0.7-1.1-1.7-2-2.8-2.6c-1.2-0.6-2.4-1-3.7-1c-1.3,0-2.5,0.3-3.7,1c-1.2,0.7-2.1,1.5-2.8,2.7C71.6,22.4,71.2,23.7,71.2,25z"/>
	<path class="st0" d="M26.5,56.1v28.6H14.6V56.1H5.4V44.7h30.1v11.4H26.5z"/>
	<path class="st0" d="M52.8,44.7v40H40.7v-40H52.8z"/>
	<path class="st0" d="M72.9,44.7v40H60.8v-40H72.9z M95.5,44.7L85,62.8l10.5,21.8H82.1l-9.1-22.1l10.3-17.9H95.5z"/>
</g>
<g>
</g>
<g>
</g>
<g>
</g>
<g>
</g>
<g>
</g>
<g>
</g>
<g>
</g>
<g>
</g>
<g>
</g>
<g>
</g>
<g>
</g>
</svg>
